<svg width="49" height="49" viewBox="0 0 49 49" fill="none" xmlns="http://www.w3.org/2000/svg">
<path d="M26.5834 26.8125H30.4375L31.9792 20.6458H26.5834V17.5625C26.5834 15.9746 26.5834 14.4792 29.6667 14.4792H31.9792V9.29918C31.4766 9.23289 29.5788 9.08334 27.5746 9.08334C23.389 9.08334 20.4167 11.6379 20.4167 16.3292V20.6458H15.7917V26.8125H20.4167V39.9167H26.5834V26.8125Z" fill="#FFAA13"/>
<path d="M48.1533 24.5133C48.1533 37.8105 37.3738 48.59 24.0767 48.59C10.7795 48.59 0 37.8105 0 24.5133C0 11.2161 10.7795 0.436646 24.0767 0.436646C37.3738 0.436646 48.1533 11.2161 48.1533 24.5133ZM3.51987 24.5133C3.51987 35.8665 12.7235 45.0701 24.0767 45.0701C35.4299 45.0701 44.6335 35.8665 44.6335 24.5133C44.6335 13.1601 35.4299 3.95651 24.0767 3.95651C12.7235 3.95651 3.51987 13.1601 3.51987 24.5133Z" fill="#FFAA13"/>
</svg>
