<svg width="30" height="28" viewBox="0 0 30 28" fill="none" xmlns="http://www.w3.org/2000/svg">
<path d="M14.8003 27.6057C11.8791 27.6057 9.0234 26.7987 6.59449 25.2867C4.16557 23.7747 2.27245 21.6256 1.15455 19.1113C0.0366406 16.5969 -0.255811 13.8302 0.314093 11.1609C0.883997 8.49169 2.29071 6.03981 4.35633 4.1154C6.42195 2.19098 9.05361 0.880432 11.9187 0.349486C14.7838 -0.18146 17.7537 0.091057 20.4525 1.13254C23.1514 2.17403 25.4581 3.93768 27.0811 6.20056C28.704 8.46343 29.5702 11.1239 29.5702 13.8454C29.5675 17.4941 28.0107 20.9927 25.2413 23.5727C22.472 26.1528 18.7167 27.6033 14.8003 27.6057ZM14.8003 1.51978C12.1965 1.52348 9.65224 2.24562 7.48853 3.59505C5.32482 4.94447 3.63854 6.86073 2.64258 9.10204C1.64663 11.3434 1.38557 13.8093 1.89234 16.1887C2.39911 18.5681 3.65106 20.7543 5.49012 22.4715C7.32917 24.1887 9.67301 25.36 12.2258 25.8376C14.7787 26.3151 17.4261 26.0775 19.8341 25.1547C22.2421 24.2319 24.3028 22.6653 25.7561 20.6526C27.2095 18.6399 27.9904 16.2712 28.0002 13.8454C27.995 10.5871 26.6019 7.4639 24.127 5.16167C21.6521 2.85944 18.2977 1.5664 14.8003 1.56641V1.51978Z" fill="url(#paint0_linear_122_8)"/>
<path fill-rule="evenodd" clip-rule="evenodd" d="M12.4899 13.9107V21.8856C12.4899 21.9399 12.5131 21.992 12.5543 22.0305C12.5956 22.0689 12.6515 22.0905 12.7098 22.0905H15.8899C15.9482 22.0905 16.0042 22.0689 16.0454 22.0305C16.0867 21.992 16.1099 21.9399 16.1099 21.8856V13.7803H18.4099C18.4661 13.7807 18.5204 13.762 18.5627 13.7277C18.6051 13.6934 18.6326 13.6458 18.6399 13.594L18.8599 11.1531C18.8628 11.1238 18.8589 11.0944 18.8485 11.0666C18.8381 11.0389 18.8215 11.0136 18.7997 10.9924C18.7779 10.9712 18.7513 10.9546 18.722 10.9438C18.6928 10.9329 18.6614 10.928 18.6299 10.9295H16.1099V9.19664C16.1099 9.00144 16.1932 8.8142 16.3413 8.67617C16.4895 8.53815 16.6904 8.46061 16.8999 8.46061H18.6699C18.6996 8.46187 18.7293 8.45749 18.7572 8.44776C18.7851 8.43802 18.8104 8.42313 18.8319 8.40397C18.8534 8.38481 18.8705 8.3618 18.8822 8.33631C18.8939 8.31081 18.8999 8.28339 18.8999 8.25567V5.81478C18.8999 5.75795 18.8757 5.70343 18.8325 5.66324C18.7894 5.62306 18.7309 5.60046 18.6699 5.60046H15.6699C15.2515 5.60046 14.8372 5.67742 14.4507 5.82689C14.0642 5.97636 13.7131 6.1954 13.4177 6.47149C13.1223 6.74758 12.8882 7.07531 12.729 7.43583C12.5698 7.79634 12.4886 8.18256 12.4899 8.5724V10.9295H10.8999C10.8702 10.9282 10.8405 10.9326 10.8126 10.9423C10.7848 10.9521 10.7593 10.967 10.7378 10.9861C10.7163 11.0053 10.6992 11.0283 10.6875 11.0538C10.6758 11.0793 10.6699 11.1067 10.6699 11.1344V13.5753C10.6699 13.603 10.6758 13.6305 10.6875 13.656C10.6992 13.6815 10.7163 13.7045 10.7378 13.7237C10.7593 13.7428 10.7848 13.7577 10.8126 13.7674C10.8405 13.7772 10.8702 13.7816 10.8999 13.7803H12.4899V13.9107Z" fill="url(#paint1_linear_122_8)"/>
<defs>
<linearGradient id="paint0_linear_122_8" x1="37.7102" y1="11.3766" x2="259.892" y2="-16.2393" gradientUnits="userSpaceOnUse">
<stop stop-color="#003350"/>
<stop offset="0.55" stop-color="#00866F"/>
<stop offset="1" stop-color="#4BDF23"/>
</linearGradient>
<linearGradient id="paint1_linear_122_8" x1="37.7199" y1="11.4698" x2="259.902" y2="-16.1461" gradientUnits="userSpaceOnUse">
<stop stop-color="#003350"/>
<stop offset="0.55" stop-color="#00866F"/>
<stop offset="1" stop-color="#4BDF23"/>
</linearGradient>
</defs>
</svg>
