<svg width="355" height="311" viewBox="0 0 355 311" fill="none" xmlns="http://www.w3.org/2000/svg">
<g opacity="0.26">
<path d="M354.65 292.529H344.87V282.759H336.89V292.529H327.12V300.519H336.89V310.289H344.87V300.519H354.65V292.529Z" fill="#B7B7B7"/>
<path d="M27.9597 159.019H18.1897V149.249H10.2097V159.019H0.429688V166.999H10.2097V176.769H18.1897V166.999H27.9597V159.019Z" fill="#B7B7B7"/>
<path d="M97.1495 71.1594C100.23 71.1629 103.21 70.0632 105.549 68.0593L122.909 78.0593C122.034 81.2137 122.388 84.583 123.901 87.4862C125.414 90.3894 127.972 92.61 131.06 93.6993V113.699C128.539 114.591 126.356 116.241 124.812 118.424C123.269 120.608 122.439 123.216 122.439 125.889C122.439 126.239 122.439 126.579 122.439 126.889L105.499 136.669C103.257 134.752 100.426 133.658 97.477 133.57C94.5276 133.481 91.6367 134.403 89.2834 136.183C86.9301 137.963 85.2557 140.494 84.538 143.356C83.8203 146.218 84.1024 149.24 85.3373 151.92C86.5723 154.599 88.686 156.777 91.3281 158.09C93.9701 159.404 96.9818 159.775 99.8638 159.143C102.746 158.51 105.325 156.912 107.174 154.612C109.023 152.312 110.03 149.45 110.029 146.499C110.03 145.708 109.96 144.918 109.819 144.139L125.989 134.799C127.194 136.064 128.643 137.071 130.249 137.759C131.854 138.447 133.583 138.801 135.329 138.801C137.076 138.801 138.805 138.447 140.41 137.759C142.016 137.071 143.465 136.064 144.669 134.799L160.849 144.139C160.705 144.918 160.631 145.708 160.629 146.499C160.638 149.172 161.47 151.778 163.012 153.961C164.555 156.144 166.733 157.799 169.249 158.699V179.579C166.372 180.597 163.947 182.599 162.402 185.232C160.858 187.865 160.295 190.959 160.811 193.968C161.327 196.976 162.891 199.705 165.224 201.672C167.558 203.64 170.512 204.719 173.564 204.719C176.617 204.719 179.571 203.64 181.905 201.672C184.238 199.705 185.802 196.976 186.318 193.968C186.834 190.959 186.271 187.865 184.726 185.232C183.182 182.599 180.757 180.597 177.879 179.579V158.719C180.396 157.819 182.574 156.164 184.117 153.981C185.659 151.798 186.491 149.192 186.499 146.519C186.498 145.728 186.424 144.938 186.279 144.159L202.449 134.819C203.656 136.083 205.106 137.089 206.712 137.776C208.318 138.463 210.047 138.818 211.794 138.818C213.542 138.818 215.27 138.463 216.877 137.776C218.483 137.089 219.933 136.083 221.139 134.819L237.31 144.159C237.165 144.938 237.091 145.728 237.089 146.519C237.089 149.951 238.453 153.243 240.879 155.669C243.306 158.096 246.598 159.459 250.029 159.459C253.461 159.459 256.753 158.096 259.179 155.669C261.606 153.243 262.969 149.951 262.969 146.519C262.967 145.728 262.894 144.938 262.749 144.159L278.919 134.819C280.27 136.229 281.921 137.315 283.751 137.995C285.58 138.675 287.54 138.932 289.483 138.747C291.427 138.562 293.303 137.939 294.971 136.926C296.639 135.912 298.056 134.534 299.116 132.895C300.175 131.256 300.85 129.398 301.09 127.461C301.329 125.524 301.127 123.558 300.498 121.71C299.869 119.862 298.83 118.18 297.458 116.791C296.087 115.402 294.419 114.342 292.579 113.689V93.6893C294.35 93.097 295.972 92.1281 297.333 90.8492C298.694 89.5704 299.762 88.0119 300.463 86.2811C301.164 84.5502 301.481 82.6881 301.394 80.8227C301.307 78.9573 300.817 77.1329 299.957 75.4751C299.097 73.8173 297.889 72.3653 296.414 71.2191C294.94 70.0729 293.235 69.2596 291.417 68.8353C289.598 68.4109 287.709 68.3855 285.88 68.7608C284.05 69.1361 282.324 69.9032 280.819 71.0093L262.819 60.5994C263.15 58.8294 263.108 57.0099 262.695 55.2573C262.282 53.5047 261.508 51.8575 260.423 50.4211C259.337 48.9847 257.963 47.7906 256.39 46.9153C254.816 46.04 253.078 45.5027 251.285 45.3378C249.492 45.1729 247.684 45.384 245.977 45.9576C244.27 46.5312 242.702 47.4547 241.373 48.669C240.043 49.8833 238.982 51.3617 238.256 53.0096C237.531 54.6576 237.157 56.4388 237.159 58.2393C237.161 59.0343 237.235 59.8275 237.379 60.6093L219.379 71.0093C217.19 69.4485 214.568 68.6096 211.879 68.6096C209.191 68.6096 206.569 69.4485 204.379 71.0093L186.379 60.5994C186.946 57.5708 186.411 54.4394 184.87 51.771C183.33 49.1026 180.885 47.0732 177.979 46.0493V25.1393C180.857 24.1215 183.282 22.1192 184.826 19.4863C186.371 16.8533 186.934 13.7593 186.418 10.7509C185.902 7.74257 184.338 5.01364 182.005 3.04633C179.671 1.07901 176.717 0 173.664 0C170.612 0 167.658 1.07901 165.324 3.04633C162.991 5.01364 161.427 7.74257 160.911 10.7509C160.395 13.7593 160.958 16.8533 162.503 19.4863C164.047 22.1192 166.472 24.1215 169.349 25.1393V46.0093C166.443 47.0332 163.999 49.0626 162.459 51.731C160.918 54.3994 160.383 57.5307 160.949 60.5593L142.949 70.9694C140.76 69.4085 138.138 68.5696 135.449 68.5696C132.761 68.5696 130.139 69.4085 127.949 70.9694L109.949 60.5593C110.435 57.9434 110.102 55.2415 108.996 52.8215C107.89 50.4016 106.066 48.3813 103.77 47.0359C101.475 45.6904 98.8208 45.0852 96.1691 45.3026C93.5175 45.52 90.9972 46.5495 88.9517 48.2509C86.9062 49.9522 85.4349 52.2427 84.7381 54.8104C84.0413 57.3781 84.1529 60.0982 85.0578 62.6002C85.9626 65.1021 87.6167 67.2644 89.7947 68.7924C91.9728 70.3204 94.5689 71.14 97.2294 71.1393L97.1495 71.1594ZM181.999 136.689C179.659 134.682 176.678 133.579 173.594 133.579C170.511 133.579 167.53 134.682 165.189 136.689L148.249 126.909C148.249 126.569 148.249 126.229 148.249 125.909C148.249 123.236 147.42 120.628 145.877 118.445C144.333 116.261 142.15 114.611 139.629 113.719V93.7194C142.717 92.63 145.275 90.4094 146.788 87.5062C148.301 84.603 148.655 81.2338 147.779 78.0793L165.139 68.0793C167.482 70.0809 170.463 71.1807 173.544 71.1807C176.626 71.1807 179.606 70.0809 181.949 68.0793L199.31 78.0793C198.434 81.235 198.79 84.6053 200.305 87.5087C201.82 90.4121 204.38 92.632 207.469 93.7194V113.719C204.946 114.608 202.76 116.257 201.215 118.441C199.669 120.624 198.839 123.234 198.839 125.909C198.839 126.259 198.839 126.599 198.839 126.909L181.999 136.689ZM258.459 136.689C256.121 134.683 253.141 133.58 250.06 133.58C246.978 133.58 243.998 134.683 241.659 136.689L224.719 126.909C224.719 126.569 224.719 126.229 224.719 125.909C224.722 123.235 223.894 120.626 222.35 118.442C220.806 116.258 218.622 114.608 216.099 113.719V93.7194C219.177 92.6161 221.726 90.3938 223.238 87.4952C224.751 84.5967 225.115 81.2347 224.259 78.0793L241.619 68.0793C243.961 70.0802 246.94 71.1796 250.019 71.1796C253.099 71.1796 256.078 70.0802 258.419 68.0793L275.789 78.0793C275.475 79.1989 275.317 80.3565 275.319 81.5193C275.328 84.1924 276.16 86.798 277.702 88.9811C279.245 91.1642 281.423 92.8188 283.939 93.7194V113.719C281.419 114.611 279.236 116.261 277.692 118.445C276.149 120.628 275.32 123.236 275.319 125.909C275.319 126.259 275.319 126.599 275.319 126.909L258.459 136.689Z" fill="#B7B7B7"/>
</g>
</svg>
