<svg width="49" height="49" viewBox="0 0 49 49" fill="none" xmlns="http://www.w3.org/2000/svg">
<path d="M48.3067 24.5133C48.3067 37.8105 37.5272 48.59 24.23 48.59C10.9328 48.59 0.15332 37.8105 0.15332 24.5133C0.15332 11.2161 10.9328 0.436646 24.23 0.436646C37.5272 0.436646 48.3067 11.2161 48.3067 24.5133ZM3.67319 24.5133C3.67319 35.8665 12.8768 45.0701 24.23 45.0701C35.5832 45.0701 44.7868 35.8665 44.7868 24.5133C44.7868 13.1601 35.5832 3.95651 24.23 3.95651C12.8768 3.95651 3.67319 13.1601 3.67319 24.5133Z" fill="#FFAA13"/>
<path d="M23.8429 20.3387C22.8387 20.3387 21.8757 20.7376 21.1656 21.4477C20.4556 22.1578 20.0567 23.1208 20.0567 24.125C20.0567 25.1292 20.4556 26.0922 21.1656 26.8023C21.8757 27.5123 22.8387 27.9112 23.8429 27.9112C24.8471 27.9112 25.8101 27.5123 26.5202 26.8023C27.2303 26.0922 27.6292 25.1292 27.6292 24.125C27.6292 23.1208 27.2303 22.1578 26.5202 21.4477C25.8101 20.7376 24.8471 20.3387 23.8429 20.3387ZM23.8429 17.8146C25.5165 17.8146 27.1216 18.4794 28.3051 19.6628C29.4885 20.8463 30.1533 22.4514 30.1533 24.125C30.1533 25.7986 29.4885 27.4037 28.3051 28.5871C27.1216 29.7706 25.5165 30.4354 23.8429 30.4354C22.1693 30.4354 20.5642 29.7706 19.3808 28.5871C18.1973 27.4037 17.5325 25.7986 17.5325 24.125C17.5325 22.4514 18.1973 20.8463 19.3808 19.6628C20.5642 18.4794 22.1693 17.8146 23.8429 17.8146ZM32.0465 17.499C32.0465 17.9175 31.8803 18.3187 31.5844 18.6146C31.2885 18.9104 30.8873 19.0767 30.4689 19.0767C30.0504 19.0767 29.6492 18.9104 29.3533 18.6146C29.0575 18.3187 28.8913 17.9175 28.8913 17.499C28.8913 17.0806 29.0575 16.6794 29.3533 16.3835C29.6492 16.0877 30.0504 15.9214 30.4689 15.9214C30.8873 15.9214 31.2885 16.0877 31.5844 16.3835C31.8803 16.6794 32.0465 17.0806 32.0465 17.499ZM23.8429 14.0283C20.7205 14.0283 20.2106 14.0372 18.758 14.1015C17.7685 14.1482 17.1047 14.2807 16.4888 14.5205C15.9733 14.7098 15.5074 15.0131 15.1257 15.4078C14.7307 15.7894 14.427 16.2554 14.2372 16.7708C13.9974 17.3892 13.8649 18.0518 13.8195 19.0401C13.7538 20.4334 13.745 20.9206 13.745 24.125C13.745 27.2486 13.7538 27.7573 13.8182 29.2099C13.8649 30.1981 13.9974 30.8632 14.2359 31.4779C14.4505 32.0269 14.7029 32.4219 15.1219 32.8409C15.5472 33.265 15.9423 33.5187 16.485 33.7282C17.1084 33.9692 17.7723 34.103 18.7567 34.1484C20.1501 34.2141 20.6372 34.2216 23.8417 34.2216C26.9653 34.2216 27.4739 34.2128 28.9266 34.1484C29.9135 34.1018 30.5774 33.9692 31.1946 33.7307C31.7095 33.5405 32.1753 33.2374 32.5576 32.8435C32.9829 32.4194 33.2366 32.0244 33.4461 31.4804C33.6859 30.8595 33.8197 30.1956 33.8651 29.2087C33.9308 27.8166 33.9383 27.3282 33.9383 24.125C33.9383 21.0026 33.9295 20.4927 33.8651 19.0401C33.8184 18.0531 33.6846 17.3867 33.4461 16.7708C33.2559 16.2559 32.9527 15.7902 32.5589 15.4078C32.1774 15.0125 31.7114 14.7088 31.1958 14.5193C30.5774 14.2795 29.9135 14.147 28.9266 14.1015C27.5345 14.0359 27.0473 14.0283 23.8417 14.0283M23.8417 11.5042C27.2707 11.5042 27.6986 11.5168 29.0452 11.5799C30.3881 11.643 31.3044 11.8537 32.1083 12.1667C32.9413 12.4873 33.643 12.9215 34.3447 13.6219C34.9865 14.2528 35.4831 15.016 35.7999 15.8583C36.1116 16.6623 36.3237 17.5786 36.3868 18.9227C36.4461 20.2681 36.4625 20.6959 36.4625 24.125C36.4625 27.5541 36.4499 27.9819 36.3868 29.3273C36.3237 30.6714 36.1116 31.5864 35.7999 32.3916C35.4839 33.2344 34.9872 33.9978 34.3447 34.628C33.7136 35.2696 32.9505 35.7661 32.1083 36.0832C31.3044 36.395 30.3881 36.607 29.0452 36.6701C27.6986 36.7294 27.2707 36.7458 23.8417 36.7458C20.4126 36.7458 19.9847 36.7332 18.6381 36.6701C17.2952 36.607 16.3802 36.395 15.575 36.0832C14.7324 35.767 13.969 35.2704 13.3386 34.628C12.6967 33.9972 12.2002 33.234 11.8834 32.3916C11.5704 31.5877 11.3597 30.6714 11.2966 29.3273C11.236 27.9819 11.2208 27.5541 11.2208 24.125C11.2208 20.6959 11.2334 20.2681 11.2966 18.9227C11.3597 17.5786 11.5704 16.6635 11.8834 15.8583C12.1992 15.0155 12.696 14.2521 13.3386 13.6219C13.9692 12.9798 14.7325 12.4832 15.575 12.1667C16.379 11.8537 17.294 11.643 18.6381 11.5799C19.986 11.5206 20.4138 11.5042 23.8429 11.5042" fill="#FFAA13"/>
</svg>
