<svg width="1086" height="832" viewBox="0 0 1086 832" fill="none" xmlns="http://www.w3.org/2000/svg">
<path d="M1085.7 831.25H29.2498L0.0498047 831L0.0498047 802.01V30.13C0.0497974 22.382 3.12494 14.9508 8.59986 9.46835C14.0748 3.98593 21.5018 0.900614 29.2498 0.890015H492.25C637.25 133.09 384.09 572.61 543.25 647C682.38 712 969.25 693 1085.7 831.25Z" fill="url(#paint0_linear_114_628)"/>
<path opacity="0.42" d="M679.25 830.78H24L0 830.5V802.01V611.45C5.86 655.19 10.49 686.06 32.22 677.61C95.81 652.88 129.13 649.93 173.54 692.92C201.92 720.39 210.83 680.75 243.02 721.18C263.2 746.53 293.75 649.18 385.02 663.9C487.91 680.5 507.95 786 507.95 786C507.95 786 560.95 752.24 617.48 770.69C650.19 781.32 669.72 802.32 679.25 830.78Z" fill="#D9FFF9"/>
<defs>
<linearGradient id="paint0_linear_114_628" x1="-0.0401951" y1="416.07" x2="1085.7" y2="416.07" gradientUnits="userSpaceOnUse">
<stop stop-color="#200E3A"/>
<stop offset="0.55" stop-color="#3887BE"/>
<stop offset="1" stop-color="#52D3D8"/>
</linearGradient>
</defs>
</svg>
