<svg width="30" height="28" viewBox="0 0 30 28" fill="none" xmlns="http://www.w3.org/2000/svg">
<path d="M15.1099 27.4195C12.208 27.4195 9.37133 26.6176 6.95864 25.1154C4.54596 23.6133 2.66573 21.4782 1.55569 18.9803C0.445644 16.4824 0.155701 13.734 0.722557 11.0825C1.28941 8.43112 2.6875 5.99585 4.74014 4.08483C6.79277 2.17382 9.40769 0.872856 12.2541 0.346558C15.1004 -0.17974 18.0504 0.092273 20.7309 1.12814C23.4113 2.164 25.7016 3.91723 27.3124 6.16601C28.9232 8.41479 29.7819 11.0581 29.7799 13.7616C29.7746 17.384 28.227 20.8565 25.4767 23.417C22.7264 25.9775 18.9981 27.417 15.1099 27.4195ZM15.1099 1.38942C12.4829 1.38758 9.91435 2.11162 7.72915 3.46998C5.54395 4.82833 3.84031 6.75997 2.83364 9.02053C1.82698 11.2811 1.56259 13.769 2.07388 16.1695C2.58516 18.5701 3.84911 20.7755 5.70596 22.5067C7.5628 24.238 9.92905 25.4172 12.5054 25.8954C15.0817 26.3735 17.7524 26.129 20.1796 25.1929C22.6068 24.2567 24.6815 22.671 26.1411 20.6362C27.6008 18.6014 28.3799 16.209 28.3799 13.7616C28.3746 10.4834 26.9751 7.34078 24.4879 5.02188C22.0008 2.70298 18.6286 1.39681 15.1099 1.38942ZM20.0499 8.20904C19.8344 8.20904 19.6236 8.26856 19.4444 8.38014C19.2651 8.49172 19.1254 8.65034 19.0429 8.83589C18.9604 9.02145 18.9388 9.22562 18.9809 9.4226C19.0229 9.61959 19.1268 9.80054 19.2792 9.94256C19.4316 10.0846 19.6259 10.1813 19.8373 10.2205C20.0487 10.2597 20.2679 10.2395 20.4671 10.1627C20.6662 10.0858 20.8364 9.95568 20.9562 9.78869C21.076 9.62169 21.1399 9.42534 21.1399 9.22449C21.1413 9.09079 21.1139 8.95818 21.0596 8.83442C21.0053 8.71065 20.9251 8.59819 20.8236 8.50364C20.7221 8.4091 20.6015 8.33435 20.4687 8.28376C20.3358 8.23316 20.1935 8.20779 20.0499 8.20904ZM15.2299 9.5133C14.328 9.5133 13.4464 9.76245 12.6966 10.2293C11.9467 10.6961 11.3621 11.3596 11.017 12.1359C10.6719 12.9121 10.5815 13.7663 10.7575 14.5904C10.9334 15.4145 11.3678 16.1715 12.0055 16.7656C12.6432 17.3597 13.4557 17.7643 14.3402 17.9283C15.2248 18.0922 16.1416 18.008 16.9749 17.6865C17.8081 17.3649 18.5203 16.8204 19.0214 16.1218C19.5224 15.4232 19.7899 14.6018 19.7899 13.7616C19.7899 12.6349 19.3095 11.5543 18.4544 10.7576C17.5992 9.96092 16.4393 9.5133 15.2299 9.5133ZM15.2299 16.482C14.6524 16.482 14.0879 16.3224 13.6077 16.0235C13.1275 15.7246 12.7531 15.2997 12.5321 14.8026C12.3111 14.3055 12.2533 13.7586 12.366 13.2309C12.4787 12.7032 12.7568 12.2184 13.1652 11.838C13.5736 11.4575 14.0938 11.1984 14.6602 11.0935C15.2266 10.9885 15.8138 11.0424 16.3473 11.2483C16.8809 11.4542 17.3369 11.8029 17.6577 12.2502C17.9786 12.6976 18.1499 13.2235 18.1499 13.7616C18.1499 14.4831 17.8423 15.175 17.2947 15.6852C16.7471 16.1954 16.0043 16.482 15.2299 16.482ZM24.43 10.2307C24.43 8.85688 23.8441 7.53934 22.8014 6.56792C21.7587 5.5965 20.3445 5.05076 18.8699 5.05076H11.5299C10.0553 5.05076 8.64111 5.5965 7.59841 6.56792C6.55571 7.53934 5.96987 8.85688 5.96987 10.2307V17.0689C5.96987 18.4427 6.55571 19.7602 7.59841 20.7317C8.64111 21.7031 10.0553 22.2488 11.5299 22.2488H18.8699C20.3445 22.2488 21.7587 21.7031 22.8014 20.7317C23.8441 19.7602 24.43 18.4427 24.43 17.0689V10.2307ZM22.6898 17.0689C22.6898 18.0128 22.2875 18.918 21.5711 19.5854C20.8547 20.2528 19.883 20.6278 18.8699 20.6278H11.5299C10.5168 20.6278 9.54515 20.2528 8.82876 19.5854C8.11237 18.918 7.70986 18.0128 7.70986 17.0689V10.2307C7.70986 9.28681 8.11237 8.38158 8.82876 7.71416C9.54515 7.04674 10.5168 6.67181 11.5299 6.67181H18.8699C19.883 6.67181 20.8547 7.04674 21.5711 7.71416C22.2875 8.38158 22.6898 9.28681 22.6898 10.2307V17.0689Z" fill="url(#paint0_linear_93_783)"/>
<defs>
<linearGradient id="paint0_linear_93_783" x1="-5.72005" y1="16.0069" x2="216.473" y2="-11.6091" gradientUnits="userSpaceOnUse">
<stop stop-color="#003350"/>
<stop offset="0.55" stop-color="#00866F"/>
<stop offset="1" stop-color="#4BDF23"/>
</linearGradient>
</defs>
</svg>
