<svg width="49" height="49" viewBox="0 0 49 49" fill="none" xmlns="http://www.w3.org/2000/svg">
<path d="M48.1533 24.5133C48.1533 37.8105 37.3738 48.59 24.0767 48.59C10.7795 48.59 0 37.8105 0 24.5133C0 11.2161 10.7795 0.436646 24.0767 0.436646C37.3738 0.436646 48.1533 11.2161 48.1533 24.5133ZM3.51987 24.5133C3.51987 35.8665 12.7235 45.0701 24.0767 45.0701C35.4299 45.0701 44.6335 35.8665 44.6335 24.5133C44.6335 13.1601 35.4299 3.95651 24.0767 3.95651C12.7235 3.95651 3.51987 13.1601 3.51987 24.5133Z" fill="#FFAA13"/>
<g clip-path="url(#clip0_58_44)">
<path d="M37.0581 25.29C37.0581 28.7328 35.6904 32.0347 33.2559 34.4692C30.8214 36.9037 27.5196 38.2714 24.0767 38.2714C20.6338 38.2714 17.3319 36.9037 14.8974 34.4692C12.4629 32.0347 11.0952 28.7328 11.0952 25.29M37.0581 25.29C37.0581 21.8471 35.6904 18.5452 33.2559 16.1107C30.8214 13.6762 27.5196 12.3085 24.0767 12.3085C20.6338 12.3085 17.3319 13.6762 14.8974 16.1107C12.4629 18.5452 11.0952 21.8471 11.0952 25.29M37.0581 25.29H11.0952" stroke="#FFAA13" stroke-width="3" stroke-linecap="round" stroke-linejoin="round"/>
<path d="M29.0695 25.29C28.8243 30.0371 27.0757 34.5834 24.0767 38.2714C21.0776 34.5834 19.329 30.0371 19.0838 25.29C19.329 20.5428 21.0776 15.9966 24.0767 12.3085C27.0757 15.9966 28.8243 20.5428 29.0695 25.29Z" stroke="#FFAA13" stroke-width="3" stroke-linecap="round" stroke-linejoin="round"/>
</g>
<defs>
<clipPath id="clip0_58_44">
<rect width="27.96" height="27.96" fill="white" transform="translate(10.0967 11.31)"/>
</clipPath>
</defs>
</svg>
