<svg width="49" height="49" viewBox="0 0 49 49" fill="none" xmlns="http://www.w3.org/2000/svg">
<path d="M26.2768 22.1927L35.2023 11.5042H33.087L25.3353 20.7842L19.1461 11.5042H12.0052L21.3673 25.5385L12.0052 36.7458H14.1204L22.3063 26.9457L28.8439 36.7458H35.9848L26.2768 22.1927ZM23.3791 25.6609L22.43 24.2638L14.8827 13.1449H18.1326L24.2234 22.1183L25.1712 23.5154L33.0883 35.1796H29.8397L23.3791 25.6609Z" fill="#FFAA13"/>
<path d="M48.46 24.5133C48.46 37.8105 37.6805 48.59 24.3833 48.59C11.0861 48.59 0.306641 37.8105 0.306641 24.5133C0.306641 11.2161 11.0861 0.436646 24.3833 0.436646C37.6805 0.436646 48.46 11.2161 48.46 24.5133ZM3.82651 24.5133C3.82651 35.8665 13.0301 45.0701 24.3833 45.0701C35.7365 45.0701 44.9401 35.8665 44.9401 24.5133C44.9401 13.1601 35.7365 3.95651 24.3833 3.95651C13.0301 3.95651 3.82651 13.1601 3.82651 24.5133Z" fill="#FFAA13"/>
</svg>
