<svg width="902" height="935" viewBox="0 0 902 935" fill="none" xmlns="http://www.w3.org/2000/svg">
<path d="M902 934.185C902 934.185 145.655 934.185 0 934.185L0.0413685 909.367V132.403V0C0.0413685 0 171.759 99.3021 248.255 185.873C324.751 272.444 319.014 718.834 451.207 780.62C566.765 834.607 805.28 819.358 902 934.185Z" fill="url(#paint0_linear_239_1537)"/>
<path opacity="0.42" d="M564.165 934.46H19.9337L0 934.227V910.564V752.291C4.86715 788.62 8.71269 814.259 26.761 807.241C79.577 786.701 107.252 784.251 144.137 819.957C167.709 842.773 175.109 809.849 201.845 843.429C218.606 864.484 243.98 783.628 319.786 795.854C405.244 809.641 421.888 897.267 421.888 897.267C421.888 897.267 465.909 869.227 512.861 884.551C540.029 893.38 556.25 910.822 564.165 934.46Z" fill="#D9FFF9"/>
<defs>
<linearGradient id="paint0_linear_239_1537" x1="-0.0324034" y1="588.817" x2="901.751" y2="588.817" gradientUnits="userSpaceOnUse">
<stop stop-color="#200E3A"/>
<stop offset="0.55" stop-color="#3887BE"/>
<stop offset="1" stop-color="#52D3D8"/>
</linearGradient>
</defs>
</svg>
