<svg width="1086" height="832" viewBox="0 0 1086 832" fill="none" xmlns="http://www.w3.org/2000/svg">
<path d="M1086 831H0L0.0498047 801.12V29.24V0H14.6498H29.2498H492.25C637.25 132.2 384.09 571.72 543.25 646.11C682.38 711.11 969.55 692.75 1086 831Z" fill="url(#paint0_linear_114_628)"/>
<path opacity="0.42" d="M679.25 831.33H24L0 831.05V802.56V612C5.86 655.74 10.49 686.61 32.22 678.16C95.81 653.43 129.13 650.48 173.54 693.47C201.92 720.94 210.83 681.3 243.02 721.73C263.2 747.08 293.75 649.73 385.02 664.45C487.91 681.05 507.95 786.55 507.95 786.55C507.95 786.55 560.95 752.79 617.48 771.24C650.19 781.87 669.72 802.87 679.25 831.33Z" fill="#D9FFF9"/>
<defs>
<linearGradient id="paint0_linear_114_628" x1="-0.0401951" y1="415.18" x2="1085.7" y2="415.18" gradientUnits="userSpaceOnUse">
<stop stop-color="#200E3A"/>
<stop offset="0.55" stop-color="#3887BE"/>
<stop offset="1" stop-color="#52D3D8"/>
</linearGradient>
</defs>
</svg>
