<?xml version="1.0" encoding="utf-8"?>
<!-- Generator: Adobe Illustrator 27.5.0, SVG Export Plug-In . SVG Version: 6.00 Build 0)  -->
<svg version="1.1" xmlns="http://www.w3.org/2000/svg" xmlns:xlink="http://www.w3.org/1999/xlink" x="0px" y="0px"
	 viewBox="0 0 500 500" style="enable-background:new 0 0 500 500;" xml:space="preserve">
<g id="BACKGROUND">
	<rect id="XMLID_76_" style="fill:#FFFFFF;" width="500" height="500"/>
</g>
<g id="OBJECTS">
	<g id="XMLID_2_">
		<path id="XMLID_96_" style="fill:#7974AF;" d="M185.548,234.752c0,0-19.041,28.206-37.389,88.94
			c-17.303,57.274-14.667,125.333-14.667,125.333l230,2c0,0-21.333-199-29.333-209S185.548,234.752,185.548,234.752z"/>
		<path id="XMLID_95_" style="fill:#B2C65D;" d="M201.659,94.525c0,0,7.238-30.75,34.119-40.5s48.146-7,48.146-7
			s4.735-6.25,12.735-3.5s8.5,6,8.5,6s3.706-1.5,10.728,4.5c7.022,6,6.272,13.25,6.272,13.25s16.938,14.25,19.719,35.75
			c2.781,21.5,1.424,26.448,1.424,26.448S278.409,71.525,201.659,94.525z"/>
		<path id="XMLID_89_" style="fill:#8B4E4D;" d="M199.054,110.359c0,0-10.396,7-13.062,21.333
			c-2.667,14.333,7.543,21.977,7.543,21.977l10.435-45.048C203.97,108.621,201.045,108.755,199.054,110.359z"/>
		<path id="XMLID_98_" style="fill:#525289;" d="M166.159,242.025c0,0-44.333,57.667-47.333,103s23,67.333,50,68.333
			s101.333-42,112.333-62.333c11-20.333,19-31,5-38.667c-14-7.667-58.368,8.667-87.667,24.667
			c-24.414,13.332-47.333-13.667-47.333-13.667l22.732-67.237L166.159,242.025z"/>
		<path id="XMLID_1_" style="fill:#F9B5AC;" d="M201.53,112.098c0,0-8.214,6.889-7.684,31.265
			c0.53,24.376-8.214,39.479-5.034,57.761c3.179,18.282,47.162,24.906,77.367,21.461c30.205-3.444,36.829-11.393,40.803-18.547
			c3.974-7.154,3.444-19.872,3.444-19.872s11.923-0.184,17.487-16.387c5.564-16.203-1.59-25.476-9.008-24.417
			c-7.419,1.06-11.658,4.504-11.658,4.504s2.914-29.94-13.248-43.188C277.837,91.431,214.513,88.517,201.53,112.098z"/>
		<path id="XMLID_118_" style="fill:#6F6DA5;" d="M134.147,411.042c0,0,7.077,6.68,24.784,8.346c17.707,1.667,23.374,0,23.374,0
			s40,28.333,85.333,27.333c45.333-1,59.675-16.333,71.004-27.333c11.329-11,18.168-27.667,18.168-27.667l-2.284-19.296
			c0,0-30.888,64.629-77.555,60.629c-46.667-4-97.521-20.909-97.521-20.909s-21.415,3.124-44.447-13.65L134.147,411.042z"/>
		<g id="XMLID_77_">
			<path id="XMLID_78_" style="fill:#D17F7D;" d="M229.258,181.556c-1.893-0.959-5.115-3.009-6.162-6.243
				c-0.477-1.473-0.668-3.804,1.127-6.545c4.303-6.575,7.961-18.966,7.997-19.09c0.282-0.962,1.29-1.514,2.252-1.232
				c0.965,0.278,1.513,1.291,1.232,2.252c-0.155,0.529-3.848,13.037-8.444,20.058c-0.819,1.252-1.052,2.375-0.712,3.433
				c0.756,2.352,4.14,4.114,5.381,4.596c0.929,0.35,1.4,1.41,1.04,2.345c-0.36,0.934-1.406,1.402-2.341,1.044
				C230.462,182.11,229.948,181.906,229.258,181.556z"/>
		</g>
		<path id="XMLID_94_" style="fill:#F9B5AC;" d="M152.659,325.192c0,0-0.667-12.5-7-17.667c-6.333-5.167-10.333-4.833-12-2
			c-1.667,2.833,1,6.167,1,6.167s-14-7.667-18.333-5.833c-4.333,1.833-1.333,8.484-1.333,8.484s-6.667,1.016-6.833,7.183
			c-0.167,6.167,2,7.667,2,7.667s-3.5,1.333-3.5,6.667c0,5.333,3.333,7.634,3.333,7.634s-2,3.532,1,7.532s18.667,5.833,18.667,5.833
			L152.659,325.192z"/>
		<path id="XMLID_82_" style="fill:#8B4E4D;" d="M206.321,136.349c-3.24-0.971-3.083-5.649,0.181-6.536
			c2.379-0.647,5.025-1.456,7.309-2.371c5.863-2.348,7.266-7.334,11.438-4.533c4.173,2.801-4.973,12.734-13.379,13.834
			C209.721,137.023,207.877,136.815,206.321,136.349z"/>
		<g id="XMLID_81_">
			<path id="XMLID_80_" style="fill:#553C2E;" d="M213.384,149.87c-6.994,0-9.838-3.065-9.975-3.218
				c-0.554-0.617-0.502-1.565,0.114-2.118c0.611-0.55,1.549-0.504,2.104,0.099c0.083,0.085,3.207,3.158,11.37,1.957
				c7.391-1.091,7.781-6.337,7.794-6.56c0.048-0.822,0.747-1.474,1.572-1.417c0.822,0.041,1.458,0.729,1.425,1.552
				c-0.111,2.737-2.418,8.222-10.352,9.393C215.955,149.776,214.605,149.87,213.384,149.87z"/>
		</g>
		<path id="XMLID_84_" style="fill:#8B4E4D;" d="M272.933,137.245c3.24-0.971,3.083-5.649-0.181-6.536
			c-2.379-0.647-5.025-1.456-7.308-2.371c-5.864-2.348-7.266-7.334-11.439-4.533c-4.173,2.801,4.973,12.734,13.379,13.834
			C269.532,137.919,271.377,137.711,272.933,137.245z"/>
		<path id="XMLID_119_" style="fill:#6F6DA5;" d="M171.556,263.027c0,0,28.835,36.107,131.458,6.067
			c0,0-59.21,12.627-129.124-12.973L171.556,263.027z"/>
		<g id="XMLID_79_">
			<path id="XMLID_83_" style="fill:#553C2E;" d="M265.87,150.766c6.994,0,9.838-3.065,9.975-3.218
				c0.554-0.617,0.502-1.565-0.114-2.118c-0.611-0.55-1.549-0.504-2.105,0.099c-0.083,0.084-3.207,3.158-11.37,1.957
				c-7.391-1.091-7.781-6.337-7.794-6.56c-0.048-0.822-0.747-1.474-1.572-1.417c-0.822,0.04-1.458,0.73-1.425,1.552
				c0.111,2.737,2.418,8.222,10.352,9.393C263.299,150.672,264.648,150.766,265.87,150.766z"/>
		</g>
		<path id="XMLID_85_" style="fill:#FFFFFF;" d="M236.338,177.025c0,0-6.015,8.431-1.8,12.195
			C238.754,192.984,244.461,186.209,236.338,177.025z"/>
		<path id="XMLID_87_" style="fill:#C97E79;" d="M221.289,192.775c0,0,2.625-2.25,11.375-1s15.5,10.25,15.5,10.25
			s-11.881-7.936-19.756-7.061s-10.494,4.311-10.494,4.311S217.914,195.15,221.289,192.775z"/>
		<path id="XMLID_86_" style="fill:#D88E8D;" d="M253.772,159.072c2.908-3.31,21.888-1.063,29.082,2.48
			C290.048,165.094,246.435,167.421,253.772,159.072z"/>
		<path id="XMLID_88_" style="fill:#D88E8D;" d="M225.55,157.072c-2.578-3.114-19.405-1-25.782,2.333
			C193.39,162.739,232.055,164.929,225.55,157.072z"/>
		<path id="XMLID_97_" style="fill:#63629B;" d="M304.159,257.025c0,0-4.722,79.5-35.861,101
			c-31.139,21.5-101.139-44.167-120.139-34.333c-19,9.833-25.363,23.628-15.932,48.23c9.432,24.603,109.432,86.103,166.432,66.103
			s69.634-111.083,67.5-137c-3.5-42.5-29-56-29-56L304.159,257.025z"/>
		<path id="XMLID_90_" style="fill:#8B4E4D;" d="M288.159,116.025c0,0-7,20.833-3,30.5c4,9.667,9.167,10.93,9.167,10.93
			s-1,8.07,4.333,9.903c5.333,1.833,8.589-19.492,8.589-19.492s12.938-7.33,19.591-1.086c6.653,6.244,1.523,32.026-16.412,37.385
			l-0.23,7.231c0,0,16.795-3.59,25.795-26.064c9-22.474,5-31.974,5-31.974L288.159,116.025z"/>
		<path id="XMLID_91_" style="fill:#C97E79;" d="M323.659,150.766c0,0-14.833,6.26-15.5,16.926c-0.667,10.667,6.5,4.833,7.5,2.5
			c1-2.333-1.167-7.757-1.167-7.757L323.659,150.766z"/>
		<path id="XMLID_93_" style="fill:#C97E79;" d="M188.19,195.625c0,0-8.032-2.35-11.532,9.4s-2.25,16-2.25,16s-12.25,4-15.25,15.25
			s23.594,35.236,87.5,37.5c63.5,2.25,89.469-16.25,95.219-27c5.75-10.75-7.481-25.805-11.981-26.805c0,0,3.088-22.701-19.7-28.573
			c0,0-3.288,19.628-53.288,23.628S188.19,195.625,188.19,195.625z"/>
		<path id="XMLID_92_" style="fill:#98B168;" d="M189.754,121.188c0,0,14.155-9.162,53.155-5.162s98.156,32.347,98.156,32.347
			s3.594,2.883,6.094-10.607c2.5-13.49-47.25-45.74-91.5-50.24s-57.25,3.75-59.75,7S183.599,112.6,189.754,121.188z"/>
		<path id="XMLID_99_" style="fill:#F9B5AC;" d="M281.492,309.827c0,0,10.924-15.165,24.627-22.094
			c13.702-6.929,11.487,1.268,9.05,4.37c-2.437,3.102-2.437,3.102-2.437,3.102s7.533-2.216,19.94,4.431
			c12.407,6.647,0.665,9.97-2.88,9.084c0,0,11.112,3.545,8.436,9.084s-13.975,1.772-13.975,1.772s7.976,4.21,4.653,7.976
			c-3.323,3.766-10.413,1.551-10.413,1.551s4.653,3.988,0.886,7.09c-3.766,3.102-17.983-3.545-17.983-3.545
			s-4.033,10.154-19.501,14.493C266.426,351.479,265.93,325.991,281.492,309.827z"/>
		<g id="XMLID_100_">
			<path id="XMLID_104_" style="fill:#3B3762;" d="M364.887,266.349c-0.354,0.162-0.771,0.183-1.16,0.027
				c-0.754-0.304-1.119-1.161-0.815-1.914c0.161-0.404,3.883-10.023-3.433-15.557c-5.673-4.29-4.8-10.003-4.03-15.044
				c0.576-3.769,1.12-7.329-0.699-10.411c-1.58-2.678-3.958-4.196-6.476-5.803c-4.453-2.843-9.501-6.065-9.709-16.208
				c-0.095-4.632-1.228-7.974-3.367-9.932c-2.094-1.917-4.489-1.812-4.513-1.81c-0.81,0.055-1.512-0.557-1.567-1.367
				c-0.054-0.811,0.556-1.513,1.368-1.567c0.148-0.01,3.652-0.214,6.699,2.574c2.755,2.523,4.209,6.574,4.322,12.042
				c0.176,8.57,3.964,10.988,8.351,13.788c2.699,1.723,5.49,3.505,7.428,6.788c2.35,3.985,1.701,8.237,1.072,12.35
				c-0.739,4.84-1.378,9.021,2.897,12.253c9.125,6.902,4.436,18.882,4.388,19.002C365.493,265.924,365.218,266.197,364.887,266.349z
				"/>
		</g>
		<g id="XMLID_101_">
			<path id="XMLID_103_" style="fill:#3B3762;" d="M374.445,259.266c-0.354,0.162-0.771,0.183-1.16,0.026
				c-0.754-0.303-1.119-1.161-0.815-1.914c0.146-0.366,3.517-9.087-3.102-14.095c-5.252-3.971-4.447-9.24-3.736-13.888
				c0.523-3.428,1.017-6.665-0.624-9.448c-1.431-2.425-3.596-3.807-5.888-5.27c-4.103-2.619-8.753-5.586-8.945-14.938
				c-0.086-4.205-1.109-7.233-3.041-9.001c-1.879-1.719-4.017-1.626-4.039-1.624c-0.81,0.055-1.512-0.558-1.568-1.368
				c-0.054-0.811,0.558-1.511,1.368-1.568c0.137-0.009,3.397-0.199,6.224,2.39c2.548,2.332,3.893,6.07,3.996,11.111
				c0.16,7.778,3.601,9.975,7.587,12.519c2.483,1.585,5.05,3.224,6.839,6.255c2.174,3.685,1.549,7.776,0.998,11.386
				c-0.671,4.392-1.251,8.184,2.603,11.098c6.743,5.101,5.602,13.704,4.057,17.54C375.052,258.841,374.776,259.114,374.445,259.266z
				"/>
		</g>
		<g id="XMLID_106_">
			<path id="XMLID_107_" style="fill:#3B3762;" d="M130.012,275.024c0.37,0.199,0.818,0.251,1.248,0.11
				c0.833-0.275,1.286-1.172,1.012-2.005c-0.145-0.447-3.483-11.071,4.787-16.521c6.412-4.225,5.871-10.442,5.394-15.927
				c-0.357-4.101-0.694-7.975,1.481-11.168c1.889-2.775,4.558-4.244,7.383-5.799c4.997-2.751,10.66-5.87,11.594-16.783
				c0.427-4.984,1.881-8.506,4.322-10.465c2.39-1.919,4.963-1.638,4.989-1.635c0.869,0.116,1.668-0.495,1.784-1.364
				c0.115-0.87-0.493-1.669-1.365-1.784c-0.158-0.022-3.92-0.486-7.397,2.305c-3.145,2.525-4.995,6.788-5.498,12.672
				c-0.789,9.221-5.039,11.561-9.961,14.271c-3.029,1.668-6.161,3.392-8.478,6.795c-2.811,4.129-2.408,8.756-2.019,13.231
				c0.458,5.267,0.854,9.815-3.978,12.999c-10.314,6.798-6.1,20.034-6.057,20.166C129.388,274.524,129.666,274.838,130.012,275.024z
				"/>
		</g>
		<g id="XMLID_102_">
			<path id="XMLID_105_" style="fill:#3B3762;" d="M120.21,266.724c0.37,0.199,0.818,0.251,1.248,0.11
				c0.833-0.274,1.286-1.172,1.012-2.005c-0.131-0.404-3.154-10.037,4.328-14.969c5.936-3.911,5.437-9.644,4.997-14.702
				c-0.324-3.73-0.63-7.253,1.333-10.136c1.711-2.513,4.14-3.85,6.712-5.266c4.603-2.535,9.821-5.407,10.682-15.469
				c0.387-4.524,1.701-7.715,3.906-9.485c2.145-1.721,4.442-1.471,4.465-1.467c0.869,0.116,1.668-0.495,1.785-1.364
				c0.115-0.87-0.495-1.667-1.364-1.785c-0.147-0.019-3.646-0.452-6.873,2.139c-2.909,2.334-4.618,6.268-5.082,11.691
				c-0.716,8.369-4.578,10.495-9.05,12.957c-2.786,1.534-5.667,3.12-7.806,6.261c-2.6,3.818-2.213,8.27-1.871,12.198
				c0.416,4.779,0.775,8.905-3.581,11.775c-7.622,5.024-6.994,14.373-5.598,18.614C119.586,266.224,119.863,266.538,120.21,266.724z
				"/>
		</g>
		<path id="XMLID_108_" style="fill:#AA6968;" d="M179.139,221.305l53.901,16.75C233.039,238.055,180.779,239.944,179.139,221.305z"
			/>
		<path id="XMLID_109_" style="fill:#AA6968;" d="M259.005,238.109l64.653-15.323C323.659,222.785,288.122,250.412,259.005,238.109z
			"/>
		<path id="XMLID_110_" style="fill:#525289;" d="M262.639,369.388l16,22.333C278.639,391.722,284.305,372.722,262.639,369.388z"/>
		<path id="XMLID_111_" style="fill:#525289;" d="M270.055,361.805l23.576,21.25C293.631,383.055,289.549,361.302,270.055,361.805z"
			/>
		<path id="XMLID_112_" style="fill:#41416D;" d="M265.472,314.888c0,0-7.333,10.833-4,21.833c3.333,11,8.582,12.667,8.582,12.667
			s-5.749,1.21-12.416-5.895C250.972,336.388,254.472,322.555,265.472,314.888z"/>
		<path id="XMLID_113_" style="fill:#DD9997;" d="M317.928,329.076l-16.351-7.245C301.577,321.831,314.833,318.863,317.928,329.076z
			"/>
		<path id="XMLID_114_" style="fill:#DD9997;" d="M306.639,312.325l16.611,6.178C323.25,318.503,320.867,309.595,306.639,312.325z"
			/>
		<path id="XMLID_116_" style="fill:#DD9997;" d="M328.073,307.652c0,0-6.163-4.019-13.799-4.019c-7.636,0-9.11,2.01-9.11,2.01
			S314.676,293.451,328.073,307.652z"/>
		<path id="XMLID_115_" style="fill:#DD9997;" d="M311.594,295.326l-20.23,5.447C291.365,300.773,303.422,291.709,311.594,295.326z"
			/>
		<path id="XMLID_120_" style="fill:#8A9E5F;" d="M193.218,116.025c0,0-3.079-11.804,7.087-22.304
			C200.305,93.722,199.481,104.273,193.218,116.025z"/>
		<path id="XMLID_121_" style="fill:#8A9E5F;" d="M211.472,111.055c0,0-2.833-10,6.333-22
			C217.805,89.055,217.139,103.388,211.472,111.055z"/>
		<path id="XMLID_122_" style="fill:#8A9E5F;" d="M234.305,111.722c0,0-3.167-7.333,5-22.167
			C239.305,89.555,240.805,99.555,234.305,111.722z"/>
		<path id="XMLID_117_" style="fill:#8A9E5F;" d="M259.005,114.055l4.84-23.167C263.846,90.888,269.872,105.888,259.005,114.055z"/>
		<path id="XMLID_124_" style="fill:#8A9E5F;" d="M279.972,119.222c0,0-0.596-12.5,3.952-21.333
			C283.924,97.888,286.305,109.388,279.972,119.222z"/>
		<path id="XMLID_123_" style="fill:#8A9E5F;" d="M297.972,126.222l4.5-23.75C302.472,102.472,307.972,113.388,297.972,126.222z"/>
		<path id="XMLID_125_" style="fill:#8A9E5F;" d="M311.838,132.995l7.667-18.648C319.505,114.347,322.671,127.642,311.838,132.995z"
			/>
		<path id="XMLID_126_" style="fill:#8A9E5F;" d="M325.639,136.87l6.333-13.896C331.972,122.974,333.805,132.684,325.639,136.87z"/>
		<path id="XMLID_127_" style="fill:#8A9E5F;" d="M336.305,140.388l4.333-9.243C340.639,131.145,341.472,138.388,336.305,140.388z"
			/>
		<path id="XMLID_128_" style="fill:#8A9E5F;" d="M303.981,52.305l4.134,14.75C308.115,67.055,313.823,55.555,303.981,52.305z"/>
		<path id="XMLID_130_" style="fill:#8A9E5F;" d="M299.139,48.555c0,0-7.75-4-12.5,1.5s-3.25,5.5-3.25,5.5L299.139,48.555z"/>
		<path id="XMLID_129_" style="fill:#8A9E5F;" d="M297.972,55.555l-5.833,11.5C292.139,67.055,301.546,63.896,297.972,55.555z"/>
	</g>
</g>
</svg>
