<svg width="27" height="28" viewBox="0 0 27 28" fill="none" xmlns="http://www.w3.org/2000/svg">
<path opacity="0.2" d="M24.09 17.89C24.1014 18.0724 24.0753 18.2552 24.0134 18.4272C23.9515 18.5992 23.8551 18.7567 23.73 18.89C23.5981 19.017 23.4408 19.1148 23.2685 19.1768C23.0962 19.2389 22.9127 19.2638 22.73 19.25H6.70001C6.51802 19.2423 6.33667 19.2765 6.16998 19.35C6.00995 19.4181 5.86917 19.5246 5.76001 19.66L2.67999 22.74V4.51999C2.66747 4.33662 2.69397 4.15269 2.75775 3.98032C2.82153 3.80794 2.92113 3.65105 3.04999 3.51999C3.17504 3.39783 3.32396 3.30282 3.48743 3.24088C3.6509 3.17893 3.8254 3.1514 4 3.16H22.77C22.9527 3.14618 23.1361 3.17108 23.3085 3.23312C23.4808 3.29516 23.6381 3.39292 23.77 3.51999C23.8951 3.65331 23.9915 3.81078 24.0534 3.98276C24.1153 4.15473 24.1414 4.33757 24.13 4.51999L24.09 17.89ZM22.77 0.5H4C2.93914 0.5 1.92172 0.921424 1.17157 1.67157C0.421425 2.42172 1.095e-06 3.43913 1.095e-06 4.5V25.91C-0.000325095 26.1809 0.0722307 26.4468 0.210023 26.68C0.271741 26.7957 0.35851 26.8962 0.464051 26.974C0.569593 27.0519 0.691224 27.1052 0.820008 27.13C0.893987 27.1977 0.989781 27.2367 1.09003 27.24H1.35004C1.52887 27.2487 1.70715 27.2144 1.87 27.14C2.03176 27.065 2.17771 26.9598 2.29999 26.83L7.29999 21.83H22.83C23.3572 21.8367 23.8803 21.7378 24.3687 21.5392C24.857 21.3405 25.3006 21.0462 25.6734 20.6734C26.0462 20.3006 26.3405 19.857 26.5392 19.3686C26.7378 18.8803 26.8367 18.3571 26.83 17.83V4.51999C26.8367 3.99284 26.7378 3.46969 26.5392 2.98135C26.3405 2.49302 26.0462 2.04939 25.6734 1.67661C25.3006 1.30382 24.857 1.00943 24.3687 0.810791C23.8803 0.61215 23.3572 0.513273 22.83 0.519989L22.77 0.5Z" fill="black"/>
</svg>
