<svg width="32" height="33" viewBox="0 0 32 33" fill="none" xmlns="http://www.w3.org/2000/svg">
<path opacity="0.2" d="M18.72 5.48042C18.1366 4.89044 17.3897 4.48891 16.5757 4.32765C15.7618 4.16639 14.9182 4.25281 14.1539 4.57576C13.3896 4.8987 12.7397 5.44336 12.288 6.13938C11.8363 6.83541 11.6036 7.65084 11.62 8.48042C11.605 9.02247 11.704 9.56163 11.9108 10.0629C12.1175 10.5642 12.4273 11.0165 12.82 11.3904C13.6246 12.1297 14.6774 12.54 15.77 12.54C16.8627 12.54 17.9155 12.1297 18.72 11.3904C19.1128 11.0165 19.4225 10.5642 19.6292 10.0629C19.8359 9.56163 19.9351 9.02247 19.92 8.48042C19.9397 7.92441 19.843 7.37042 19.6364 6.85386C19.4298 6.3373 19.1177 5.86952 18.72 5.48042ZM23.79 23.5604C21.2475 22.5331 18.5323 22.0002 15.79 21.9904C13.0526 22.0013 10.3407 22.5166 7.79004 23.5104C5.12337 24.5171 3.79004 25.3938 3.79004 26.1404V28.2604H27.79V26.1404C27.7634 25.4004 26.43 24.5404 23.79 23.5604ZM10.24 2.90043C10.9413 2.13421 11.7963 1.52445 12.7491 1.11091C13.702 0.697376 14.7314 0.489369 15.77 0.500438C16.805 0.489236 17.831 0.693236 18.783 1.0995C19.7349 1.50576 20.592 2.1054 21.3 2.86042C22.0364 3.58681 22.6182 4.45483 23.01 5.41212C23.4019 6.36941 23.5957 7.39616 23.58 8.43043C23.5845 9.72169 23.27 10.9941 22.6644 12.1345C22.0589 13.275 21.181 14.2482 20.1088 14.9678C19.0366 15.6873 17.8032 16.1309 16.5183 16.259C15.2334 16.3872 13.9368 16.1961 12.7435 15.7025C11.5503 15.209 10.4975 14.4284 9.67853 13.43C8.85959 12.4317 8.29987 11.2465 8.04919 9.97978C7.79851 8.71307 7.86462 7.40407 8.24158 6.16905C8.61854 4.93403 9.29471 3.81125 10.21 2.90043H10.24ZM9.31 19.0404C13.5422 17.9339 17.9878 17.9339 22.22 19.0404C24.5051 19.5681 26.6764 20.503 28.63 21.8004C30.57 23.0871 31.54 24.5338 31.54 26.1404V32.0404H0V26.1404C0 24.5404 0.970034 23.0938 2.91003 21.8004C4.8601 20.5032 7.02809 19.5682 9.31 19.0404Z" fill="black"/>
</svg>
