<svg width="500" height="500" viewBox="0 0 500 500" fill="none" xmlns="http://www.w3.org/2000/svg">
<rect width="500" height="500" fill="#008C51"/>
<path d="M62.1523 266.411C62.2413 266.39 62.1933 267.135 62.8703 268.204C63.2213 268.716 63.7823 269.288 64.6163 269.632C65.4373 269.985 66.5313 270.037 67.6253 269.622C68.7043 269.225 69.7823 268.342 70.3113 267.043C70.8643 265.772 70.7733 264.114 70.0143 262.661C69.2663 261.223 67.8053 259.984 65.9893 259.654C64.2073 259.31 62.0973 259.828 60.4963 261.097C58.8923 262.363 57.7463 264.418 57.7383 266.659C57.7203 268.901 58.5983 271.274 60.3033 273.008C61.9833 274.755 64.4633 275.842 67.0433 275.765C69.6373 275.681 72.3173 274.711 74.3503 272.843C76.3973 271.011 77.8053 268.365 78.0903 265.506C78.3563 262.66 77.6623 259.576 76.1193 257.022C74.5403 254.464 72.0043 252.485 69.0503 251.509C66.0903 250.557 62.7643 250.591 59.6643 251.439C58.1103 251.864 56.6693 252.571 55.3433 253.422C54.0393 254.314 52.9173 255.427 51.9613 256.655C51.0323 257.91 50.3323 259.306 49.7833 260.748C49.3203 262.22 48.9383 263.72 48.8453 265.252C48.5613 268.31 48.9843 271.373 50.1353 274.044C51.3133 276.716 53.2213 278.978 55.4783 280.632C60.0633 283.919 65.8273 284.755 70.7463 283.848C72.0013 283.712 73.1453 283.227 74.3003 282.868C74.8553 282.63 75.3813 282.338 75.9163 282.081C76.1813 281.946 76.4503 281.823 76.7083 281.681L77.4323 281.182C79.4393 279.964 80.9453 278.242 82.2883 276.582C84.7923 273.073 85.9233 269.182 86.1163 265.767C86.1433 265.338 86.1693 264.916 86.1953 264.502C86.1823 264.088 86.1423 263.682 86.1183 263.283C86.0463 262.487 86.0643 261.709 85.8713 260.991C85.7263 260.266 85.5863 259.572 85.4543 258.91C85.2383 258.27 85.0333 257.661 84.8393 257.084C84.5093 255.903 83.9353 254.97 83.5483 254.111C83.1753 253.24 82.7133 252.587 82.3663 252.041C81.6743 250.949 81.3273 250.354 81.3703 250.321C81.4123 250.288 81.8423 250.817 82.6283 251.865C83.0213 252.389 83.5313 253.025 83.9563 253.889C84.3953 254.74 85.0223 255.672 85.4083 256.868C85.6293 257.455 85.8623 258.074 86.1063 258.724C86.2653 259.403 86.4313 260.114 86.6053 260.857C86.8243 261.595 86.8323 262.4 86.9273 263.224C86.9633 263.638 87.0143 264.06 87.0383 264.49C87.0223 264.922 87.0063 265.361 86.9893 265.808C86.8723 269.371 85.7743 273.478 83.1863 277.226C81.8003 279.006 80.2233 280.851 78.1033 282.183L77.3363 282.723C77.0633 282.878 76.7783 283.015 76.4973 283.163C75.9293 283.446 75.3683 283.763 74.7773 284.025C73.5483 284.431 72.3223 284.955 70.9813 285.122C68.3473 285.656 65.5543 285.659 62.7383 285.164C59.9313 284.654 57.1203 283.553 54.6363 281.798C52.1773 280.024 50.0753 277.567 48.7713 274.646C47.4883 271.701 47.0283 268.39 47.3213 265.123C47.4193 263.475 47.8213 261.84 48.3283 260.234C48.9213 258.653 49.6903 257.115 50.7173 255.724C51.7723 254.36 53.0203 253.122 54.4693 252.13C55.9383 251.18 57.5373 250.402 59.2423 249.935C62.6273 249.01 66.2333 248.968 69.5373 250.032C72.8213 251.117 75.6723 253.351 77.4263 256.221C79.1463 259.118 79.8853 262.43 79.5773 265.664C79.2383 268.899 77.6273 271.875 75.3113 273.919C73.0063 276.002 69.9933 277.073 67.0743 277.139C64.1033 277.201 61.2643 275.919 59.3723 273.905C57.4473 271.897 56.4813 269.203 56.5373 266.633C56.5833 264.016 57.9523 261.649 59.8243 260.225C61.7163 258.795 64.0743 258.242 66.1923 258.682C68.3173 259.115 69.9773 260.593 70.7973 262.269C71.6273 263.947 71.6863 265.863 70.9973 267.343C70.3363 268.832 69.0663 269.797 67.8283 270.199C66.5873 270.619 65.3343 270.505 64.4303 270.059C63.5143 269.624 62.9383 268.953 62.6043 268.372C62.2793 267.776 62.1673 267.267 62.1383 266.928C62.1063 266.585 62.1293 266.412 62.1523 266.411Z" fill="#E0E0E0"/>
<path d="M313.701 226.013L315.293 228.924C315.972 230.166 316.993 231.186 318.234 231.865L321.145 233.457L318.234 235.049C316.992 235.728 315.972 236.749 315.293 237.991L313.701 240.902L312.109 237.991C311.43 236.749 310.409 235.729 309.168 235.049L306.257 233.457L309.168 231.865C310.41 231.186 311.43 230.165 312.109 228.924L313.701 226.013Z" fill="#EBEBEB"/>
<path d="M49.9374 159.237L51.5574 162.2C52.2484 163.464 53.2873 164.503 54.5513 165.194L57.5144 166.814L54.5513 168.434C53.2873 169.125 52.2484 170.164 51.5574 171.428L49.9374 174.391L48.3174 171.428C47.6264 170.164 46.5874 169.125 45.3234 168.434L42.3604 166.814L45.3234 165.194C46.5874 164.503 47.6264 163.464 48.3174 162.2L49.9374 159.237Z" fill="#EBEBEB"/>
<path d="M370.357 80.5273L371.34 82.3253C371.759 83.0923 372.39 83.7233 373.157 84.1423L374.955 85.1253L373.157 86.1083C372.39 86.5273 371.759 87.1583 371.34 87.9253L370.357 89.7233L369.374 87.9253C368.954 87.1583 368.324 86.5273 367.557 86.1083L365.759 85.1253L367.557 84.1423C368.324 83.7223 368.955 83.0923 369.374 82.3253L370.357 80.5273Z" fill="#EBEBEB"/>
<path d="M117.205 34.1543L118.015 35.6353C118.361 36.2673 118.88 36.7863 119.512 37.1323L120.993 37.9423L119.512 38.7523C118.88 39.0983 118.361 39.6173 118.015 40.2493L117.205 41.7303L116.395 40.2493C116.049 39.6173 115.53 39.0983 114.898 38.7523L113.417 37.9423L114.898 37.1323C115.53 36.7863 116.049 36.2673 116.395 35.6353L117.205 34.1543Z" fill="#EBEBEB"/>
<path d="M466.359 154.899C472.594 129.06 456.703 103.058 430.863 96.8217C405.024 90.5858 379.022 106.478 372.786 132.317C366.55 158.156 382.442 184.158 408.281 190.394C434.121 196.63 460.123 180.738 466.359 154.899Z" fill="white"/>
<path d="M467.691 143.606C467.691 143.606 467.66 143.342 467.625 142.827C467.592 142.297 467.545 141.535 467.484 140.542C467.455 140.039 467.422 139.477 467.386 138.859C467.322 138.243 467.191 137.575 467.084 136.848C466.969 136.122 466.846 135.34 466.714 134.505C466.615 133.663 466.303 132.808 466.087 131.88C465.243 128.16 463.505 123.764 460.762 119.103C457.997 114.462 454.006 109.613 448.569 105.496C447.886 104.987 447.195 104.472 446.497 103.951C445.769 103.473 445.002 103.036 444.243 102.569C443.469 102.129 442.736 101.593 441.905 101.217C441.084 100.823 440.255 100.425 439.417 100.023C438.997 99.8243 438.575 99.6243 438.152 99.4233C437.711 99.2623 437.268 99.1013 436.823 98.9393C435.933 98.6143 435.034 98.2873 434.126 97.9563C433.21 97.6533 432.251 97.4583 431.303 97.2003C430.345 96.9833 429.403 96.6453 428.403 96.5433C426.422 96.2623 424.42 95.8533 422.346 95.8413C421.313 95.8053 420.272 95.7043 419.223 95.7203C418.174 95.7743 417.118 95.8283 416.053 95.8833C415.522 95.9203 414.984 95.9163 414.453 95.9873C413.922 96.0693 413.39 96.1503 412.856 96.2323C411.79 96.4083 410.706 96.5333 409.634 96.7553C407.52 97.3303 405.33 97.7593 403.248 98.6283L401.659 99.2113C401.395 99.3113 401.125 99.4003 400.863 99.5093L400.095 99.8803C399.07 100.375 398.039 100.872 397.001 101.373C395.99 101.921 395.02 102.56 394.019 103.154C393.529 103.468 393.006 103.735 392.539 104.089L391.129 105.145C389.182 106.481 387.48 108.152 385.697 109.761C384.89 110.65 384.078 111.544 383.263 112.441L382.651 113.115L382.101 113.843L381.005 115.31L379.904 116.783L378.94 118.358L377.977 119.943L377.494 120.738C377.349 121.012 377.222 121.296 377.085 121.575C376.545 122.696 376.003 123.821 375.459 124.951C375.028 126.128 374.594 127.31 374.16 128.497C372.599 133.302 371.758 138.406 371.689 143.6C371.757 148.796 372.596 153.901 374.157 158.709C374.591 159.896 375.024 161.078 375.456 162.256C376 163.386 376.542 164.512 377.082 165.633L377.491 166.471L377.974 167.266L378.937 168.852L379.901 170.428L381.002 171.902L382.098 173.369L382.648 174.097L383.26 174.771C384.075 175.669 384.887 176.563 385.694 177.452C387.477 179.062 389.179 180.733 391.126 182.069L392.536 183.125C393.003 183.479 393.526 183.746 394.016 184.06C395.017 184.654 395.987 185.293 396.998 185.841C398.035 186.342 399.067 186.839 400.092 187.334L400.86 187.705C401.122 187.814 401.391 187.903 401.656 188.003L403.245 188.586C405.327 189.456 407.518 189.885 409.632 190.459C410.704 190.681 411.788 190.805 412.855 190.982C413.389 191.064 413.922 191.146 414.452 191.227C414.984 191.297 415.521 191.294 416.052 191.33C417.117 191.385 418.173 191.439 419.222 191.493C420.271 191.509 421.312 191.408 422.345 191.372C424.42 191.36 426.422 190.951 428.403 190.67C429.402 190.568 430.345 190.23 431.303 190.013C432.251 189.755 433.21 189.56 434.126 189.256C435.033 188.925 435.932 188.597 436.823 188.273C437.268 188.111 437.711 187.949 438.152 187.789C438.576 187.588 438.998 187.388 439.417 187.189C440.255 186.787 441.084 186.389 441.905 185.995C442.735 185.618 443.469 185.083 444.242 184.643C445 184.175 445.768 183.738 446.495 183.26C447.194 182.739 447.885 182.224 448.567 181.715C454.004 177.598 457.994 172.748 460.758 168.108C463.5 163.447 465.237 159.052 466.081 155.332C466.297 154.404 466.609 153.549 466.708 152.707C466.84 151.872 466.963 151.09 467.078 150.364C467.185 149.637 467.316 148.97 467.38 148.353C467.416 147.735 467.448 147.174 467.478 146.67C467.539 145.677 467.586 144.916 467.619 144.385C467.66 143.87 467.691 143.606 467.691 143.606C467.691 143.606 467.696 143.87 467.678 144.386C467.657 144.918 467.627 145.681 467.588 146.676C467.566 147.181 467.542 147.744 467.515 148.365C467.459 148.984 467.336 149.655 467.237 150.385C467.129 151.115 467.013 151.901 466.89 152.74C466.798 153.587 466.493 154.447 466.284 155.381C465.466 159.123 463.749 163.553 461.014 168.256C458.257 172.939 454.26 177.84 448.796 182.007C448.11 182.522 447.415 183.043 446.712 183.57C445.98 184.054 445.209 184.497 444.445 184.971C443.666 185.418 442.928 185.959 442.092 186.342C441.265 186.742 440.43 187.145 439.587 187.553C439.164 187.755 438.739 187.958 438.312 188.162C437.868 188.325 437.421 188.489 436.973 188.654C436.076 188.984 435.17 189.317 434.255 189.653C433.332 189.962 432.365 190.161 431.409 190.424C430.443 190.646 429.492 190.988 428.485 191.094C426.487 191.383 424.467 191.799 422.373 191.816C421.331 191.855 420.28 191.958 419.221 191.944C418.162 191.892 417.095 191.839 416.021 191.786C415.485 191.75 414.942 191.754 414.405 191.684C413.869 191.603 413.331 191.521 412.792 191.44C411.715 191.264 410.62 191.139 409.537 190.917C407.401 190.341 405.188 189.91 403.083 189.035L401.477 188.448C401.21 188.347 400.937 188.257 400.673 188.147L399.897 187.774C398.861 187.275 397.818 186.774 396.769 186.27C395.747 185.717 394.766 185.074 393.754 184.474C393.258 184.158 392.73 183.888 392.258 183.531L390.832 182.466C388.864 181.117 387.141 179.432 385.339 177.806C384.522 176.908 383.701 176.006 382.877 175.099L382.258 174.418L381.702 173.683L380.593 172.201L379.479 170.712L378.503 169.12L377.529 167.518L377.041 166.714L376.627 165.868C376.081 164.735 375.532 163.597 374.982 162.455C374.546 161.265 374.107 160.07 373.667 158.87C372.087 154.011 371.239 148.849 371.17 143.598C371.239 138.349 372.09 133.188 373.67 128.332C374.11 127.133 374.548 125.939 374.985 124.749C375.535 123.607 376.084 122.47 376.63 121.337C376.769 121.055 376.898 120.768 377.044 120.491L377.532 119.687L378.506 118.085L379.482 116.494L380.596 115.006L381.705 113.525L382.262 112.79L382.881 112.109C383.705 111.203 384.526 110.301 385.343 109.403C387.145 107.778 388.868 106.092 390.835 104.744L392.261 103.68C392.733 103.323 393.262 103.053 393.757 102.737C394.769 102.138 395.75 101.494 396.772 100.942C397.82 100.438 398.863 99.9363 399.899 99.4383L400.675 99.0653C400.939 98.9553 401.212 98.8653 401.479 98.7653L403.084 98.1783C405.189 97.3043 407.401 96.8723 409.537 96.2973C410.62 96.0753 411.715 95.9503 412.791 95.7743C413.331 95.6923 413.868 95.6113 414.404 95.5303C414.941 95.4603 415.483 95.4643 416.02 95.4283C417.095 95.3753 418.161 95.3223 419.22 95.2703C420.279 95.2563 421.329 95.3593 422.371 95.3983C424.464 95.4153 426.484 95.8313 428.482 96.1203C429.49 96.2263 430.44 96.5683 431.406 96.7903C432.362 97.0533 433.328 97.2533 434.252 97.5603C435.166 97.8963 436.072 98.2293 436.97 98.5593C437.419 98.7243 437.865 98.8883 438.309 99.0513C438.736 99.2553 439.161 99.4583 439.584 99.6603C440.428 100.068 441.263 100.472 442.089 100.871C442.925 101.253 443.663 101.795 444.442 102.241C445.205 102.715 445.976 103.158 446.709 103.642C447.412 104.169 448.106 104.69 448.793 105.205C454.257 109.372 458.255 114.273 461.013 118.956C463.749 123.659 465.466 128.089 466.284 131.832C466.493 132.766 466.798 133.626 466.89 134.473C467.014 135.313 467.13 136.098 467.237 136.829C467.337 137.559 467.46 138.23 467.516 138.849C467.543 139.469 467.567 140.033 467.589 140.538C467.628 141.534 467.658 142.297 467.679 142.829C467.696 143.342 467.691 143.606 467.691 143.606Z" fill="#E0E0E0"/>
<path d="M381.635 189.804C381.635 193.493 378.645 196.483 374.956 196.483C371.267 196.483 368.276 193.493 368.276 189.804C368.276 186.115 371.266 183.124 374.956 183.124C378.644 183.124 381.635 186.115 381.635 189.804Z" fill="white"/>
<path d="M381.636 189.804C381.579 189.807 381.603 189.209 381.329 188.198C381.058 187.206 380.381 185.756 378.886 184.641C377.441 183.523 375.063 182.899 372.763 183.756C371.63 184.166 370.55 184.939 369.783 186.007C368.994 187.06 368.551 188.411 368.537 189.803C368.55 191.196 368.993 192.547 369.782 193.601C370.549 194.669 371.629 195.442 372.762 195.852C375.063 196.71 377.441 196.084 378.886 194.967C380.381 193.852 381.058 192.402 381.328 191.41C381.602 190.399 381.579 189.801 381.636 189.804C381.654 189.804 381.664 189.951 381.667 190.233C381.675 190.515 381.642 190.934 381.526 191.459C381.308 192.495 380.66 194.042 379.11 195.259C378.343 195.854 377.365 196.364 376.229 196.577C375.101 196.783 373.823 196.758 372.599 196.303C371.376 195.874 370.205 195.05 369.371 193.903C368.514 192.771 368.028 191.308 368.016 189.803C368.029 188.299 368.515 186.837 369.371 185.705C370.205 184.558 371.375 183.734 372.598 183.305C375.082 182.409 377.612 183.129 379.108 184.348C380.657 185.565 381.306 187.112 381.524 188.148C381.64 188.673 381.674 189.093 381.666 189.375C381.664 189.657 381.654 189.804 381.636 189.804Z" fill="#E0E0E0"/>
<path d="M424.883 144.606C424.793 144.629 424.832 143.857 424.115 142.762C423.744 142.238 423.153 141.654 422.284 141.311C421.428 140.959 420.293 140.923 419.166 141.37C418.054 141.799 416.952 142.732 416.425 144.088C415.873 145.415 415.996 147.132 416.806 148.625C417.606 150.103 419.141 151.362 421.029 151.674C422.883 152.001 425.06 151.427 426.698 150.085C428.339 148.745 429.493 146.596 429.461 144.273C429.442 141.949 428.491 139.506 426.694 137.738C424.923 135.956 422.334 134.873 419.661 134.997C416.976 135.13 414.216 136.181 412.142 138.151C410.053 140.085 408.641 142.85 408.396 145.818C408.172 148.772 408.942 151.952 410.586 154.571C412.265 157.194 414.929 159.198 418.006 160.157C421.088 161.092 424.532 160.998 427.726 160.064C429.329 159.599 430.807 158.839 432.165 157.934C433.501 156.988 434.641 155.814 435.61 154.525C436.552 153.21 437.248 151.75 437.793 150.248C438.247 148.716 438.612 147.156 438.684 145.569C438.925 142.399 438.43 139.236 437.192 136.49C435.921 133.747 433.909 131.435 431.54 129.766C429.148 128.116 426.436 127.077 423.709 126.606C420.983 126.126 418.222 126.221 415.671 126.662C410.534 127.648 406.411 130.817 403.869 134.432C401.31 138.088 400.197 142.142 400.06 145.684C399.929 149.245 400.641 152.308 401.543 154.653C402.448 157.01 403.468 158.71 404.188 159.834C404.928 160.947 405.336 161.527 405.288 161.565C405.253 161.594 404.762 161.081 403.93 160.014C403.119 158.935 401.995 157.26 400.979 154.878C399.967 152.509 399.136 149.366 399.188 145.656C399.247 141.968 400.324 137.698 402.963 133.801C404.292 131.875 405.999 130.046 408.106 128.57C409.147 127.813 410.311 127.194 411.525 126.633C412.754 126.1 414.059 125.687 415.416 125.39C418.143 124.889 421.017 124.766 423.938 125.249C426.846 125.726 429.768 126.814 432.364 128.582C434.937 130.367 437.146 132.87 438.548 135.861C439.923 138.878 440.459 142.289 440.213 145.668C440.139 147.372 439.755 149.066 439.26 150.734C438.672 152.376 437.911 153.979 436.872 155.431C435.807 156.857 434.543 158.159 433.064 159.207C431.565 160.213 429.929 161.048 428.177 161.557C424.698 162.573 420.976 162.679 417.548 161.639C414.14 160.577 411.157 158.324 409.297 155.392C407.47 152.433 406.65 149.025 406.911 145.683C407.203 142.339 408.813 139.239 411.167 137.09C413.509 134.9 416.601 133.742 419.611 133.622C422.675 133.505 425.626 134.778 427.614 136.823C429.635 138.861 430.679 141.624 430.667 144.276C430.666 146.976 429.296 149.441 427.39 150.944C425.464 152.453 423.04 153.064 420.848 152.647C418.649 152.237 416.91 150.743 416.034 149.028C415.148 147.312 415.054 145.335 415.738 143.798C416.394 142.25 417.687 141.232 418.957 140.796C420.231 140.341 421.525 140.436 422.466 140.88C423.419 141.312 424.025 141.995 424.381 142.589C424.727 143.198 424.852 143.722 424.89 144.071C424.925 144.425 424.905 144.605 424.883 144.606Z" fill="#E0E0E0"/>
<path d="M308.826 44.5761C308.746 44.5601 308.982 44.0442 308.803 43.1082C308.699 42.6522 308.466 42.0961 307.981 41.6251C307.509 41.1521 306.766 40.8111 305.889 40.7921C305.029 40.7651 304.036 41.0761 303.309 41.8251C302.573 42.5451 302.172 43.7161 302.288 44.9341C302.402 46.1371 303.062 47.4011 304.219 48.1362C305.345 48.8712 306.956 49.1101 308.416 48.6841C309.88 48.2611 311.248 47.1671 311.882 45.6271C312.527 44.0831 312.591 42.1921 311.903 40.5131C311.235 38.8301 309.831 37.3812 308.029 36.7052C306.208 36.0282 304.075 35.9391 302.137 36.6551C300.199 37.3431 298.473 38.7751 297.465 40.6731C296.473 42.5651 296.073 44.9161 296.416 47.1231C296.783 49.3451 297.976 51.4371 299.747 52.9571C301.528 54.4611 303.855 55.3911 306.256 55.6881C307.458 55.8371 308.66 55.7571 309.823 55.5451C310.983 55.2981 312.078 54.8461 313.093 54.2682C314.096 53.6621 314.982 52.8932 315.777 52.0462C316.521 51.1542 317.217 50.2201 317.722 49.1782C318.8 47.1241 319.384 44.8671 319.349 42.6831C319.295 40.4871 318.618 38.3662 317.521 36.5662C315.274 32.9592 311.488 30.7091 307.788 29.9221C306.873 29.6551 305.936 29.6641 305.026 29.5801C304.57 29.5861 304.119 29.6381 303.671 29.6631L303.003 29.7131L302.353 29.8521C300.6 30.1221 299.05 30.8901 297.629 31.6611C294.862 33.3891 292.94 35.7831 291.811 38.1181C291.667 38.4111 291.526 38.6981 291.387 38.9811C291.275 39.2751 291.185 39.5711 291.086 39.8571C290.905 40.4351 290.664 40.9761 290.59 41.5351C290.48 42.0851 290.375 42.6131 290.274 43.1161C290.238 43.6281 290.203 44.1151 290.17 44.5771C290.054 45.5031 290.183 46.3261 290.201 47.0431C290.205 47.7651 290.336 48.3601 290.416 48.8461C290.576 49.8191 290.636 50.3431 290.584 50.3571C290.532 50.3721 290.37 49.8761 290.108 48.9091C289.977 48.4251 289.795 47.8281 289.74 47.0931C289.671 46.3631 289.493 45.5201 289.563 44.5602C289.575 44.0792 289.588 43.5721 289.601 43.0401C289.684 42.5111 289.771 41.9581 289.862 41.3801C289.919 40.7921 290.146 40.2181 290.317 39.6031C290.411 39.2981 290.497 38.9841 290.605 38.6701C290.741 38.3681 290.88 38.0601 291.021 37.7461C292.136 35.2451 294.11 32.6391 297.046 30.7221C298.551 29.8561 300.214 29.0011 302.114 28.6691L302.819 28.5081C303.059 28.4771 303.303 28.4621 303.546 28.4391C304.034 28.4021 304.527 28.3401 305.025 28.3271C306.021 28.3961 307.049 28.3811 308.056 28.6531C312.066 29.4531 316.197 31.8141 318.745 35.8061C319.983 37.7951 320.766 40.1691 320.841 42.6441C320.894 45.1321 320.25 47.6321 319.084 49.8761C318.531 51.0241 317.764 52.0751 316.929 53.0742C316.04 54.0312 315.037 54.9061 313.891 55.6001C312.733 56.2671 311.473 56.7871 310.142 57.0711C308.809 57.3201 307.433 57.4061 306.076 57.2381C303.382 56.9041 300.794 55.8752 298.737 54.1371C296.702 52.3902 295.315 49.9441 294.905 47.3661C294.528 44.7761 294.973 42.1961 296.152 39.9611C297.353 37.7371 299.392 36.0761 301.66 35.2951C303.932 34.4821 306.411 34.6051 308.526 35.4221C310.684 36.2601 312.346 38.0261 313.109 40.0381C313.896 42.0551 313.792 44.2761 312.987 46.1091C312.173 47.9832 310.482 49.2812 308.71 49.7481C306.92 50.2132 305.066 49.9111 303.666 48.9601C302.262 48.0121 301.508 46.4511 301.418 45.0011C301.321 43.5481 301.852 42.1502 302.792 41.2892C303.715 40.4152 304.916 40.1021 305.924 40.1841C306.939 40.2541 307.805 40.7122 308.318 41.3032C308.843 41.8902 309.052 42.5421 309.115 43.0571C309.166 43.5791 309.09 43.9741 309.007 44.2221C308.921 44.4701 308.849 44.5841 308.826 44.5761Z" fill="#E0E0E0"/>
<path d="M70.6018 73.8123C70.5268 73.8433 70.4378 73.3063 69.7958 72.6573C69.4698 72.3503 68.9878 72.0333 68.3528 71.9173C67.7258 71.7933 66.9558 71.9183 66.2488 72.3693C65.5518 72.8053 64.9288 73.5803 64.7498 74.5603C64.5488 75.5223 64.8518 76.6643 65.5918 77.5703C66.3208 78.4643 67.5168 79.1173 68.8248 79.0863C70.1078 79.0723 71.5148 78.4053 72.4468 77.2923C73.3848 76.1793 73.8888 74.5843 73.5748 73.0253C73.2678 71.4573 72.3138 69.9203 70.8748 68.9523C69.4508 67.9703 67.5658 67.5653 65.7758 67.9853C63.9688 68.4153 62.2268 69.4773 61.0678 71.0763C59.8928 72.6533 59.2828 74.7073 59.4898 76.7503C59.7068 78.7803 60.6378 80.8643 62.0838 82.4353C63.5568 84.0073 65.6148 85.0353 67.8308 85.3033C70.0458 85.5533 72.3918 85.0553 74.4588 84.0153C75.4948 83.4953 76.4078 82.7923 77.2198 82.0063C78.0108 81.1933 78.6418 80.2523 79.1408 79.2533C79.6168 78.2383 79.9128 77.1553 80.0958 76.0603C80.2138 74.9553 80.2708 73.8413 80.1188 72.7443C79.8848 70.5353 79.1488 68.4293 77.9608 66.7113C76.7518 64.9933 75.0848 63.6653 73.2548 62.8153C69.5498 61.1393 65.3378 61.3603 61.9728 62.7013C61.1018 62.9743 60.3608 63.4803 59.5918 63.8973C59.2318 64.1443 58.9008 64.4263 58.5568 64.6843L58.0508 65.0793L57.6078 65.5353C56.3548 66.6823 55.5288 68.1183 54.8078 69.4883C53.5228 72.3363 53.2638 75.2663 53.6058 77.7283C53.6468 78.0383 53.6868 78.3423 53.7268 78.6413C53.7938 78.9343 53.8798 79.2183 53.9528 79.5003C54.1158 80.0573 54.2118 80.6173 54.4498 81.1013C54.6548 81.5983 54.8508 82.0753 55.0388 82.5303C55.2818 82.9573 55.5138 83.3643 55.7328 83.7503C56.1328 84.5503 56.6728 85.1383 57.0688 85.7013C57.4558 86.2753 57.8768 86.6803 58.1988 87.0263C58.8428 87.7183 59.1688 88.1063 59.1338 88.1473C59.0988 88.1883 58.7048 87.8813 57.9778 87.2503C57.6148 86.9353 57.1498 86.5563 56.7138 85.9993C56.2688 85.4543 55.6768 84.8773 55.2188 84.0743C54.9718 83.6843 54.7108 83.2723 54.4378 82.8413C54.2218 82.3753 53.9958 81.8873 53.7588 81.3773C53.4908 80.8773 53.3648 80.2983 53.1728 79.7163C53.0858 79.4233 52.9858 79.1263 52.9048 78.8183C52.8518 78.5043 52.7988 78.1843 52.7438 77.8593C52.2988 75.2673 52.4828 72.1323 53.8028 69.0333C54.5428 67.5383 55.4138 65.9673 56.7538 64.6863L57.2308 64.1813L57.7748 63.7373C58.1448 63.4473 58.5058 63.1343 58.8968 62.8573C59.7288 62.3803 60.5428 61.8183 61.4918 61.4983C65.1218 59.9963 69.6818 59.6743 73.8508 61.5043C75.9028 62.4323 77.7978 63.9123 79.1798 65.8503C80.5518 67.8113 81.3718 70.1533 81.6388 72.5683C81.8098 73.7813 81.7578 75.0303 81.6248 76.2763C81.4248 77.5163 81.0908 78.7523 80.5458 79.9203C79.9768 81.0723 79.2468 82.1613 78.3338 83.1003C77.4008 84.0113 76.3468 84.8153 75.1718 85.4063C72.8398 86.5783 70.2218 87.1383 67.6478 86.8473C65.0868 86.5373 62.6688 85.3223 60.9638 83.4793C59.2778 81.6083 58.2558 79.3083 58.0048 76.8903C57.7768 74.4683 58.5208 72.0493 59.9178 70.2133C61.3008 68.3493 63.3508 67.1213 65.4798 66.6453C67.6558 66.1623 69.9308 66.6873 71.6168 67.8893C73.3248 69.0823 74.4288 70.9163 74.7638 72.8133C75.1138 74.7493 74.4538 76.6933 73.2848 78.0143C72.0998 79.3433 70.4548 80.0923 68.8238 80.0793C67.1918 80.0703 65.7548 79.2233 64.9068 78.1103C64.0528 76.9983 63.7308 75.5963 64.0238 74.4033C64.2958 73.2103 65.0908 72.3173 65.9418 71.8453C66.7918 71.3593 67.7298 71.2643 68.4568 71.4633C69.1908 71.6523 69.7058 72.0633 70.0288 72.4423C70.3478 72.8323 70.4968 73.1893 70.5618 73.4323C70.6228 73.6763 70.6248 73.8063 70.6018 73.8123Z" fill="#E0E0E0"/>
<path d="M192.012 435.557H162.549V470.583H192.012V435.557Z" fill="#F5F5F5"/>
<path d="M163.564 433.273H30.416V472.785H163.564V433.273Z" fill="#E0E0E0"/>
<path d="M192.905 436.596H159.995V433.273H192.905C193.823 433.273 194.566 434.017 194.566 434.934C194.566 435.852 193.822 436.596 192.905 436.596Z" fill="#E0E0E0"/>
<path d="M192.905 472.786H159.995V469.463H192.905C193.823 469.463 194.566 470.207 194.566 471.124C194.566 472.042 193.822 472.786 192.905 472.786Z" fill="#E0E0E0"/>
<path d="M153.096 433.273H137.365V472.785H153.096V433.273Z" fill="#EBEBEB"/>
<path d="M58.8101 433.711H43.0791V473.223H58.8101V433.711Z" fill="#EBEBEB"/>
<path d="M192.012 441.35C192.012 441.447 185.635 441.525 177.771 441.525C169.904 441.525 163.529 441.447 163.529 441.35C163.529 441.254 169.904 441.175 177.771 441.175C185.635 441.175 192.012 441.254 192.012 441.35Z" fill="#E0E0E0"/>
<path d="M192.012 446.603C192.012 446.7 185.635 446.778 177.771 446.778C169.904 446.778 163.529 446.7 163.529 446.603C163.529 446.506 169.904 446.428 177.771 446.428C185.635 446.428 192.012 446.506 192.012 446.603Z" fill="#E0E0E0"/>
<path d="M192.012 453.07C192.012 453.167 185.635 453.245 177.771 453.245C169.904 453.245 163.529 453.167 163.529 453.07C163.529 452.973 169.904 452.895 177.771 452.895C185.635 452.895 192.012 452.973 192.012 453.07Z" fill="#E0E0E0"/>
<path d="M192.012 459.537C192.012 459.634 185.635 459.712 177.771 459.712C169.904 459.712 163.529 459.634 163.529 459.537C163.529 459.44 169.904 459.362 177.771 459.362C185.635 459.362 192.012 459.441 192.012 459.537Z" fill="#E0E0E0"/>
<path d="M192.012 466.004C192.012 466.101 185.635 466.179 177.771 466.179C169.904 466.179 163.529 466.101 163.529 466.004C163.529 465.907 169.904 465.829 177.771 465.829C185.635 465.829 192.012 465.908 192.012 466.004Z" fill="#E0E0E0"/>
<path d="M128.908 449.513H69.0059V456.628H128.908V449.513Z" fill="#EBEBEB"/>
<path d="M174.224 411.789H144.309V433.131H174.224V411.789Z" fill="#FAFAFA"/>
<path d="M144.644 411.014H17.3359V433.905H144.644V411.014Z" fill="#F5F5F5"/>
<path d="M143.718 412.563H175.871C176.299 412.563 176.645 412.216 176.645 411.789C176.645 411.361 176.298 411.015 175.871 411.015H143.718V412.563Z" fill="#F5F5F5"/>
<path d="M143.718 433.904H176.226C176.458 433.904 176.645 433.716 176.645 433.485V432.775C176.645 432.543 176.457 432.356 176.226 432.356H143.718V433.904Z" fill="#F5F5F5"/>
<path d="M174.223 415.842C174.223 415.939 167.601 416.017 159.434 416.017C151.264 416.017 144.643 415.939 144.643 415.842C144.643 415.746 151.264 415.667 159.434 415.667C167.601 415.667 174.223 415.745 174.223 415.842Z" fill="#E0E0E0"/>
<path d="M174.223 419.88C174.223 419.977 167.601 420.055 159.434 420.055C151.264 420.055 144.643 419.977 144.643 419.88C144.643 419.783 151.264 419.705 159.434 419.705C167.601 419.706 174.223 419.784 174.223 419.88Z" fill="#E0E0E0"/>
<path d="M174.223 423.918C174.223 424.015 167.601 424.093 159.434 424.093C151.264 424.093 144.643 424.015 144.643 423.918C144.643 423.821 151.264 423.743 159.434 423.743C167.601 423.743 174.223 423.822 174.223 423.918Z" fill="#E0E0E0"/>
<path d="M174.223 427.956C174.223 428.053 167.601 428.131 159.434 428.131C151.264 428.131 144.643 428.053 144.643 427.956C144.643 427.86 151.264 427.781 159.434 427.781C167.601 427.781 174.223 427.859 174.223 427.956Z" fill="#E0E0E0"/>
<path d="M197.947 354.374H169.248V408.754H197.947V354.374Z" fill="#EBEBEB"/>
<path d="M169.248 352.462H34.5322V411.424H169.248V352.462Z" fill="#E0E0E0"/>
<path d="M200.193 411.424H165.564V407.6H200.193C201.249 407.6 202.105 408.456 202.105 409.512C202.105 410.568 201.249 411.424 200.193 411.424Z" fill="#E0E0E0"/>
<path d="M201.004 356.286H165.564V352.462H201.004C201.612 352.462 202.105 352.955 202.105 353.563V355.185C202.105 355.793 201.612 356.286 201.004 356.286Z" fill="#E0E0E0"/>
<path d="M197.947 361.664C197.947 361.755 191.522 361.828 183.598 361.828C175.671 361.828 169.247 361.755 169.247 361.664C169.247 361.573 175.671 361.5 183.598 361.5C191.522 361.5 197.947 361.573 197.947 361.664Z" fill="#E0E0E0"/>
<path d="M197.947 368.639C197.947 368.73 191.522 368.803 183.598 368.803C175.671 368.803 169.247 368.729 169.247 368.639C169.247 368.548 175.671 368.474 183.598 368.474C191.522 368.474 197.947 368.548 197.947 368.639Z" fill="#E0E0E0"/>
<path d="M197.947 375.613C197.947 375.704 191.522 375.777 183.598 375.777C175.671 375.777 169.247 375.703 169.247 375.613C169.247 375.522 175.671 375.449 183.598 375.449C191.522 375.449 197.947 375.522 197.947 375.613Z" fill="#E0E0E0"/>
<path d="M197.947 382.588C197.947 382.679 191.522 382.753 183.598 382.753C175.671 382.753 169.247 382.679 169.247 382.588C169.247 382.497 175.671 382.424 183.598 382.424C191.522 382.423 197.947 382.497 197.947 382.588Z" fill="#E0E0E0"/>
<path d="M197.947 389.562C197.947 389.653 191.522 389.727 183.598 389.727C175.671 389.727 169.247 389.653 169.247 389.562C169.247 389.471 175.671 389.398 183.598 389.398C191.522 389.398 197.947 389.471 197.947 389.562Z" fill="#E0E0E0"/>
<path d="M197.947 396.537C197.947 396.628 191.522 396.701 183.598 396.701C175.671 396.701 169.247 396.627 169.247 396.537C169.247 396.446 175.671 396.373 183.598 396.373C191.522 396.372 197.947 396.446 197.947 396.537Z" fill="#E0E0E0"/>
<path d="M197.947 403.511C197.947 403.602 191.522 403.675 183.598 403.675C175.671 403.675 169.247 403.601 169.247 403.511C169.247 403.42 175.671 403.347 183.598 403.347C191.522 403.347 197.947 403.42 197.947 403.511Z" fill="#E0E0E0"/>
<path d="M426.272 325.322C434.084 321.291 443.283 320.767 451.956 322.201C456.616 322.971 461.473 324.365 464.644 327.865C467.815 331.365 468.415 337.524 464.775 340.532C462.608 342.322 459.585 342.594 456.775 342.562C449.986 342.483 442.452 341.287 437.028 345.373C433.933 347.704 431.873 351.578 428.173 352.724C424.553 353.846 420.468 351.709 418.549 348.442C416.63 345.175 416.566 341.091 417.46 337.409C417.46 337.409 418.402 329.382 426.272 325.322Z" fill="#EBEBEB"/>
<path d="M408.373 290.77C413.15 297.593 422.435 295.334 426.74 291.169C431.045 287.004 432.864 280.968 434.521 275.213C438.305 262.062 442.121 248.265 439.307 234.873C438.466 230.869 436.969 226.876 434.155 223.906C431.341 220.936 427.015 219.168 423.059 220.214C418.378 221.451 415.468 226.036 413.365 230.398C407.184 243.219 403.911 257.432 403.863 271.665C403.84 278.311 404.623 285.282 408.373 290.77Z" fill="#EBEBEB"/>
<path d="M395.255 300.56C400.442 294.404 401.426 285.426 399.118 277.714C396.81 270.002 391.595 263.442 385.587 258.086C378.541 251.806 370.26 246.92 361.357 243.789C357.853 242.557 354.157 241.585 350.46 241.938C346.763 242.291 343.039 244.181 341.315 247.471C338.765 252.335 341.21 258.234 343.854 263.046C348.513 271.525 353.84 279.636 359.769 287.281C364.539 293.431 370.003 299.497 377.273 302.277C384.543 305.056 392.095 304.729 395.948 299.687" fill="#EBEBEB"/>
<path d="M408.05 393.691C408.14 393.696 408.285 392.591 408.482 390.591C408.702 388.334 408.977 385.501 409.305 382.13C409.699 378.57 410.219 374.333 411.208 369.72C412.194 365.118 413.737 360.13 415.719 355.073C417.771 350.045 420.274 345.475 423.199 341.819C426.103 338.148 429.48 335.491 432.655 333.958C435.819 332.395 438.657 331.76 440.619 331.478C442.597 331.275 443.705 331.119 443.706 331.031C443.707 330.943 442.597 330.928 440.565 330.983C438.552 331.117 435.596 331.627 432.262 333.144C428.916 334.628 425.333 337.326 422.287 341.074C419.216 344.805 416.622 349.476 414.534 354.594C412.518 359.741 410.998 364.78 410.055 369.481C409.116 374.175 408.686 378.458 408.405 382.048C408.136 385.641 408.035 388.55 407.986 390.561C407.94 392.572 407.963 393.686 408.05 393.691Z" fill="#E0E0E0"/>
<path d="M408.634 387.181C408.678 387.179 408.706 386.683 408.717 385.742C408.714 384.661 408.71 383.299 408.706 381.628C408.696 378.058 408.698 372.891 408.889 366.512C409.205 353.753 410.303 340.021 412.425 320.661C414.434 302.457 417.132 281.271 419.978 267.496C420.588 264.363 421.203 261.544 421.782 259.076C422.334 256.602 422.805 254.469 423.26 252.743C423.651 251.118 423.968 249.795 424.221 248.744C424.427 247.826 424.515 247.337 424.473 247.325C424.431 247.313 424.259 247.777 423.973 248.674C423.659 249.709 423.264 251.014 422.779 252.616C422.249 254.326 421.706 256.445 421.087 258.909C420.441 261.367 419.763 264.18 419.095 267.308C416.279 279.789 413.297 297.233 411.155 316.639C409.029 336.039 408.071 353.703 407.986 366.495C407.91 372.891 408.046 378.068 408.209 381.641C408.311 383.312 408.394 384.672 408.46 385.752C408.531 386.691 408.59 387.183 408.634 387.181Z" fill="#E0E0E0"/>
<path d="M408.718 353.111C408.807 353.108 408.791 351.581 408.688 348.814C408.53 346.052 408.15 342.061 407.372 337.172C406.547 332.294 405.395 326.503 403.586 320.209C402.802 317.332 400.958 310.438 396.493 300.137C390.609 286.18 382.616 274.769 375.662 267.701C374.031 265.825 372.214 264.472 370.761 263.146C370.009 262.51 369.345 261.876 368.668 261.374C367.987 260.905 367.354 260.469 366.767 260.063C364.478 258.498 363.197 257.672 363.149 257.747C362.943 258.026 368.275 261.164 375.007 268.326C381.712 275.473 389.482 286.805 395.318 300.645C398.572 308.151 400.842 314.847 402.452 320.532C404.312 326.764 405.548 332.497 406.481 337.326C407.368 342.166 407.882 346.118 408.192 348.854C408.447 351.595 408.63 353.115 408.718 353.111Z" fill="#E0E0E0"/>
<path d="M375.788 413.21L379.202 459.981H439.287L442.701 413.21H375.788Z" fill="#E0E0E0"/>
<path d="M449.87 394.775H369.984V413.21H449.87V394.775Z" fill="#E0E0E0"/>
<path d="M369.984 458.191V463.301H373.738H448.55V458.191H369.984Z" fill="#EBEBEB"/>
<path d="M377.417 472.295L373.738 463.301H445.688L441.396 472.295H377.417Z" fill="#E0E0E0"/>
<path d="M441.586 428.496C441.6 428.507 441.504 428.653 441.306 428.926C441.068 429.242 440.772 429.634 440.408 430.117C439.555 431.209 438.382 432.709 436.908 434.596L436.752 434.795L436.601 434.587C434.401 431.544 431.462 427.479 428.002 422.694H428.497C425.939 426.316 423.09 430.35 420.031 434.682L419.765 435.058L419.468 434.705C416.344 430.988 412.95 426.95 409.427 422.759L410.006 422.752C409.832 422.971 409.643 423.208 409.454 423.446C406.34 427.35 403.326 431.128 400.476 434.701L400.177 435.076L399.901 434.685C396.853 430.372 394.005 426.343 391.431 422.7L391.924 422.723C387.75 427.479 384.209 431.513 381.492 434.608L381.307 434.819L381.166 434.581C379.791 432.271 378.694 430.429 377.9 429.093C377.558 428.497 377.282 428.016 377.062 427.632C376.878 427.298 376.79 427.121 376.806 427.111C376.822 427.101 376.941 427.259 377.156 427.574C377.4 427.944 377.706 428.407 378.083 428.98C378.917 430.291 380.068 432.1 381.512 434.368L381.186 434.342C383.86 431.209 387.343 427.126 391.451 422.312L391.71 422.008L391.944 422.335C394.542 425.962 397.415 429.973 400.49 434.266L399.915 434.25C402.758 430.671 405.765 426.887 408.872 422.978C409.061 422.74 409.25 422.503 409.424 422.284L409.709 421.926L410.002 422.277C413.515 426.477 416.899 430.522 420.015 434.247L419.453 434.269C422.543 429.959 425.42 425.945 428.004 422.341L428.255 421.991L428.499 422.341C431.886 427.179 434.763 431.288 436.917 434.363L436.611 434.354C438.145 432.515 439.365 431.053 440.252 429.989C440.647 429.531 440.968 429.16 441.227 428.86C441.45 428.609 441.573 428.485 441.586 428.496Z" fill="#F5F5F5"/>
<path d="M443.537 412.902C443.537 413.109 428.482 413.276 409.915 413.276C391.341 413.276 376.289 413.109 376.289 412.902C376.289 412.695 391.341 412.528 409.915 412.528C428.481 412.528 443.537 412.695 443.537 412.902Z" fill="#F5F5F5"/>
<path d="M446.572 463.805C446.572 464.012 430.21 464.179 410.031 464.179C389.845 464.179 373.486 464.011 373.486 463.805C373.486 463.599 389.845 463.431 410.031 463.431C430.21 463.431 446.572 463.599 446.572 463.805Z" fill="#F5F5F5"/>
<path d="M457.521 472.295C457.521 472.439 364.603 472.555 250.01 472.555C135.377 472.555 42.4785 472.439 42.4785 472.295C42.4785 472.151 135.377 472.035 250.01 472.035C364.603 472.035 457.521 472.151 457.521 472.295Z" fill="#263238"/>
<path d="M336.591 144.99C336.557 144.985 336.714 144.547 336.74 143.663C336.777 142.785 336.627 141.448 335.937 139.865C334.603 136.663 331.101 132.769 325.863 128.847C315.365 120.945 298.157 112.49 276.109 104.506C254.038 96.5537 227.042 88.9597 196.504 83.4457C181.236 80.7357 165.066 78.5237 148.206 77.7327C139.783 77.3757 131.171 77.3297 122.515 78.2567C118.199 78.7447 113.847 79.4377 109.668 80.8057C107.588 81.4937 105.536 82.3487 103.722 83.5777C101.923 84.7867 100.337 86.4767 99.8265 88.5967C99.3175 90.7177 99.9685 92.9447 101.025 94.8367C102.087 96.7537 103.534 98.4437 105.08 99.9967C108.193 103.105 111.767 105.686 115.4 108.069C122.71 112.8 130.421 116.642 138.103 120.121C153.513 127.016 168.948 132.33 183.801 136.794C213.551 145.636 241.074 151.025 264.36 153.874C287.64 156.684 306.81 156.892 319.741 154.569C326.184 153.428 331.064 151.531 333.698 149.274C335.027 148.172 335.763 147.046 336.126 146.245C336.5 145.44 336.558 144.979 336.591 144.99C336.591 144.99 336.568 145.101 336.508 145.317C336.459 145.538 336.351 145.855 336.174 146.263C335.825 147.077 335.096 148.225 333.766 149.35C331.13 151.653 326.233 153.59 319.778 154.764C306.821 157.154 287.624 157.001 264.316 154.235C241.002 151.43 213.45 146.075 183.664 137.25C168.792 132.795 153.337 127.485 137.894 120.583C130.195 117.1 122.466 113.253 115.118 108.5C111.465 106.105 107.869 103.511 104.712 100.362C103.145 98.7867 101.669 97.0697 100.57 95.0867C99.4795 93.1357 98.7705 90.7737 99.3205 88.4737C99.8755 86.1767 101.574 84.3927 103.43 83.1457C105.306 81.8747 107.397 81.0087 109.506 80.3097C113.743 78.9237 118.121 78.2297 122.46 77.7397C131.159 76.8107 139.79 76.8607 148.23 77.2217C165.122 78.0207 181.308 80.2467 196.59 82.9717C227.153 88.5177 254.159 96.1547 276.236 104.159C298.288 112.195 315.495 120.71 325.986 128.684C331.219 132.642 334.719 136.578 336.034 139.823C336.714 141.427 336.848 142.78 336.793 143.665C336.767 144.11 336.721 144.442 336.665 144.66C336.62 144.88 336.591 144.99 336.591 144.99Z" fill="#FF725E"/>
<path d="M322.393 75.8208C322.393 75.8208 322.18 75.4168 321.79 74.6228C321.621 74.2098 321.224 73.8098 320.856 73.2708C320.681 72.9908 320.402 72.7658 320.133 72.4988C319.852 72.2448 319.585 71.9338 319.24 71.6748C317.89 70.5948 315.989 69.5738 313.612 68.7248C311.236 67.8588 308.358 67.2848 305.106 66.8588C292.035 65.2098 272.848 67.0318 249.926 72.1588C238.455 74.7338 226.019 78.1388 212.889 82.4688C199.756 86.7858 185.909 91.9838 171.688 98.2628C157.48 104.549 142.847 111.875 128.562 120.928C121.46 125.497 114.392 130.462 107.976 136.371C104.792 139.334 101.728 142.52 99.2739 146.175C98.0669 148.01 97.0329 149.973 96.3749 152.066C95.7159 154.148 95.5869 156.442 96.3389 158.499C97.0799 160.564 98.6649 162.23 100.508 163.4C102.36 164.578 104.416 165.414 106.523 166.037C110.757 167.251 115.155 167.707 119.5 167.918C128.217 168.294 136.822 167.526 145.198 166.434C161.957 164.133 177.866 160.286 192.779 155.92C207.696 151.54 221.631 146.575 234.45 141.399C247.276 136.234 258.974 130.811 269.399 125.376C290.219 114.501 306.051 103.513 314.971 93.8198C317.179 91.3958 319.008 89.1008 320.264 86.9068C321.531 84.7238 322.324 82.7178 322.659 81.0228C322.755 80.6028 322.759 80.1938 322.809 79.8178C322.842 79.4398 322.91 79.0888 322.863 78.7618C322.796 78.1128 322.842 77.5498 322.704 77.1258C322.491 76.2668 322.393 75.8208 322.393 75.8208C322.393 75.8208 322.525 76.2548 322.758 77.1148C322.905 77.5398 322.868 78.1048 322.944 78.7598C322.996 79.0898 322.932 79.4438 322.903 79.8248C322.856 80.2038 322.856 80.6178 322.764 81.0418C322.443 82.7548 321.66 84.7818 320.4 86.9848C319.151 89.1998 317.327 91.5138 315.123 93.9568C306.218 103.725 290.393 114.774 269.572 125.703C259.147 131.165 247.446 136.613 234.615 141.8C221.79 146.999 207.848 151.983 192.917 156.381C177.99 160.765 162.064 164.626 145.269 166.94C136.873 168.038 128.246 168.812 119.479 168.436C115.107 168.224 110.678 167.769 106.379 166.537C104.238 165.905 102.138 165.053 100.224 163.836C98.3209 162.629 96.6409 160.876 95.8519 158.678C95.0509 156.488 95.1979 154.067 95.8779 151.918C96.5579 149.754 97.6169 147.752 98.8429 145.887C101.336 142.176 104.423 138.97 107.627 135.99C114.081 130.049 121.17 125.075 128.29 120.498C142.611 111.431 157.267 104.106 171.497 97.8238C185.739 91.5498 199.605 86.3618 212.757 82.0588C225.906 77.7428 238.36 74.3538 249.849 71.7998C272.807 66.7138 292.028 64.9418 305.135 66.6578C308.396 67.1008 311.282 67.6928 313.666 68.5788C316.051 69.4488 317.958 70.4918 319.308 71.5938C319.653 71.8578 319.92 72.1738 320.2 72.4338C320.468 72.7068 320.746 72.9358 320.919 73.2218C321.284 73.7708 321.676 74.1788 321.838 74.5978C322.214 75.4048 322.393 75.8208 322.393 75.8208Z" fill="#FF725E"/>
<path d="M339.01 108.381C338.981 108.385 338.98 108.106 338.787 107.639C338.595 107.19 338.123 106.516 337.208 106.239C336.328 105.965 334.998 106.247 334.172 107.307C333.294 108.326 333.3 110.152 334.354 111.466C334.875 112.115 335.645 112.619 336.532 112.803C337.415 112.992 338.407 112.828 339.289 112.41C341.084 111.594 342.329 109.397 341.865 107.195C341.504 105.004 339.709 102.962 337.324 102.453C334.968 101.943 332.254 102.884 330.551 104.808C329.699 105.773 329.1 106.942 328.832 108.167C328.561 109.393 328.637 110.659 328.911 111.853C329.444 114.248 330.985 116.274 332.945 117.378C334.904 118.503 337.149 118.765 339.136 118.48C341.147 118.252 342.906 117.419 344.234 116.347C345.577 115.272 346.424 113.91 346.966 112.663C347.509 111.405 347.737 110.226 347.825 109.264C348.002 107.331 347.794 106.251 347.864 106.246C347.864 106.246 348.143 107.312 348.027 109.281C347.968 110.261 347.767 111.47 347.235 112.774C346.705 114.066 345.852 115.492 344.47 116.629C343.105 117.763 341.276 118.651 339.195 118.906C337.141 119.22 334.782 118.969 332.707 117.793C330.63 116.641 328.982 114.492 328.415 111.968C328.123 110.719 328.038 109.372 328.327 108.055C328.612 106.744 329.252 105.492 330.163 104.461C331.998 102.403 334.861 101.397 337.437 101.954C340.027 102.515 341.961 104.738 342.338 107.11C342.832 109.513 341.443 111.933 339.476 112.798C338.507 113.245 337.433 113.414 336.448 113.195C335.466 112.979 334.626 112.412 334.064 111.693C333.507 110.966 333.218 110.104 333.202 109.283C333.179 108.453 333.481 107.68 333.943 107.124C334.877 105.982 336.314 105.716 337.267 106.044C338.249 106.377 338.715 107.119 338.883 107.599C339.054 108.1 339.01 108.381 339.01 108.381Z" fill="#263238"/>
<path d="M211.007 54.1906C211.036 54.1906 211 54.4676 211.129 54.9556C211.259 55.4266 211.637 56.1576 212.507 56.5546C213.342 56.9436 214.698 56.8416 215.659 55.9016C216.665 55.0096 216.904 53.1986 216.035 51.7556C215.605 51.0426 214.91 50.4406 214.055 50.1386C213.205 49.8326 212.2 49.8626 211.27 50.1596C209.382 50.7276 207.854 52.7386 208.019 54.9826C208.083 57.2016 209.589 59.4656 211.884 60.2886C214.151 61.1096 216.966 60.5406 218.911 58.8606C219.884 58.0186 220.635 56.9396 221.064 55.7626C221.496 54.5836 221.591 53.3186 221.479 52.0996C221.271 49.6546 220.015 47.4406 218.221 46.0846C216.43 44.7076 214.24 44.1476 212.233 44.1646C210.21 44.1216 208.355 44.7116 206.896 45.5956C205.421 46.4806 204.399 47.7176 203.696 48.8806C202.99 50.0546 202.606 51.1926 202.39 52.1336C201.956 54.0256 202.018 55.1246 201.947 55.1186C201.947 55.1186 201.813 54.0246 202.192 52.0886C202.381 51.1256 202.743 49.9546 203.444 48.7336C204.142 47.5246 205.179 46.2246 206.7 45.2826C208.204 44.3416 210.135 43.7066 212.232 43.7316C214.31 43.6956 216.614 44.2586 218.513 45.7026C220.418 47.1216 221.763 49.4726 221.987 52.0496C222.109 53.3256 222.013 54.6726 221.551 55.9396C221.093 57.2006 220.291 58.3556 219.25 59.2556C217.156 61.0496 214.184 61.6636 211.706 60.7666C209.214 59.8646 207.595 57.4026 207.539 55.0016C207.371 52.5546 209.071 50.3416 211.137 49.7476C212.157 49.4336 213.244 49.4096 214.191 49.7596C215.135 50.1046 215.892 50.7796 216.352 51.5676C216.806 52.3626 216.978 53.2556 216.883 54.0716C216.795 54.8976 216.393 55.6226 215.86 56.1116C214.782 57.1186 213.322 57.1886 212.421 56.7376C211.492 56.2766 211.13 55.4786 211.027 54.9806C210.926 54.4636 211.007 54.1906 211.007 54.1906Z" fill="#263238"/>
<path d="M80.3504 121.075L81.3644 122.929C81.7964 123.72 82.4474 124.37 83.2384 124.802L85.0924 125.816L83.2384 126.83C82.4474 127.263 81.7974 127.913 81.3644 128.704L80.3504 130.558L79.3364 128.704C78.9034 127.913 78.2534 127.263 77.4624 126.83L75.6084 125.816L77.4624 124.802C78.2534 124.369 78.9034 123.719 79.3364 122.929L80.3504 121.075Z" fill="#FF725E"/>
<path d="M328.396 168.089L329.582 170.258C330.088 171.183 330.849 171.944 331.774 172.45L333.943 173.636L331.774 174.822C330.849 175.328 330.088 176.089 329.582 177.014L328.396 179.183L327.21 177.014C326.704 176.089 325.943 175.328 325.018 174.822L322.849 173.636L325.018 172.45C325.943 171.944 326.704 171.183 327.21 170.258L328.396 168.089Z" fill="#FF725E"/>
<path d="M117.204 189.866L118.39 192.035C118.896 192.96 119.657 193.721 120.582 194.227L122.751 195.413L120.582 196.599C119.657 197.105 118.896 197.866 118.39 198.791L117.204 200.96L116.018 198.791C115.512 197.866 114.751 197.105 113.826 196.599L111.657 195.413L113.826 194.227C114.751 193.721 115.512 192.96 116.018 192.035L117.204 189.866Z" fill="#FF725E"/>
<path d="M339.379 78.1699L340.123 79.5299C340.44 80.1099 340.917 80.5869 341.497 80.9039L342.857 81.6479L341.497 82.3919C340.917 82.7089 340.44 83.1859 340.123 83.7659L339.379 85.1259L338.635 83.7659C338.318 83.1859 337.841 82.7089 337.261 82.3919L335.901 81.6479L337.261 80.9039C337.841 80.5869 338.318 80.1099 338.635 79.5299L339.379 78.1699Z" fill="#FF725E"/>
<path d="M243.247 35.0308L243.991 36.3908C244.308 36.9708 244.785 37.4478 245.365 37.7648L246.725 38.5088L245.365 39.2528C244.785 39.5698 244.308 40.0468 243.991 40.6268L243.247 41.9868L242.503 40.6268C242.186 40.0468 241.709 39.5698 241.129 39.2528L239.769 38.5088L241.129 37.7648C241.709 37.4478 242.186 36.9708 242.503 36.3908L243.247 35.0308Z" fill="#FF725E"/>
<path d="M168.305 51.8027L169.551 54.0807C170.082 55.0527 170.882 55.8507 171.854 56.3827L174.132 57.6287L171.854 58.8747C170.882 59.4057 170.083 60.2047 169.551 61.1767L168.305 63.4547L167.059 61.1767C166.528 60.2047 165.729 59.4067 164.757 58.8747L162.479 57.6287L164.757 56.3827C165.728 55.8517 166.527 55.0527 167.059 54.0807L168.305 51.8027Z" fill="#FF725E"/>
<path d="M88.5869 188.973C88.5579 188.977 88.5569 188.698 88.3639 188.231C88.1719 187.782 87.6999 187.108 86.7849 186.831C85.9049 186.557 84.5749 186.839 83.7489 187.899C82.8709 188.918 82.8769 190.744 83.9309 192.058C84.4519 192.707 85.2219 193.21 86.1099 193.395C86.9929 193.584 87.9849 193.42 88.8669 193.002C90.6619 192.186 91.9069 189.989 91.4429 187.787C91.0819 185.596 89.2869 183.554 86.9019 183.045C84.5459 182.535 81.8319 183.476 80.1289 185.4C79.2769 186.365 78.6779 187.534 78.4099 188.759C78.1389 189.985 78.2149 191.251 78.4889 192.445C79.0219 194.84 80.5629 196.866 82.5229 197.97C84.4819 199.095 86.7269 199.357 88.7139 199.072C90.7249 198.844 92.4839 198.011 93.8119 196.939C95.1549 195.864 96.0019 194.502 96.5439 193.255C97.0869 191.997 97.3149 190.818 97.4029 189.856C97.5799 187.923 97.3719 186.843 97.4419 186.838C97.4419 186.838 97.7209 187.904 97.6049 189.874C97.5459 190.854 97.3449 192.062 96.8129 193.367C96.2829 194.659 95.4299 196.085 94.0479 197.222C92.6829 198.356 90.8539 199.244 88.7729 199.499C86.7189 199.812 84.3599 199.562 82.2849 198.386C80.2079 197.234 78.5599 195.085 77.9929 192.561C77.7019 191.312 77.6159 189.965 77.9049 188.648C78.1899 187.337 78.8299 186.085 79.7409 185.054C81.5759 182.996 84.4389 181.99 87.0149 182.547C89.6049 183.108 91.5389 185.331 91.9159 187.703C92.4099 190.106 91.0209 192.526 89.0539 193.391C88.0849 193.839 87.0109 194.008 86.0259 193.788C85.0439 193.572 84.2039 193.005 83.6419 192.286C83.0849 191.559 82.7959 190.697 82.7809 189.876C82.7579 189.046 83.0599 188.274 83.5219 187.717C84.4559 186.575 85.8929 186.309 86.8459 186.637C87.8279 186.97 88.2939 187.712 88.4629 188.192C88.6299 188.693 88.5869 188.973 88.5869 188.973Z" fill="#263238"/>
<path d="M284.607 204.784C285.736 191.276 286.793 177.684 285.581 164.182C284.369 150.681 280.771 137.155 273.266 125.865C272.129 124.154 263.23 112.97 261.285 113.635C259.896 114.11 266.315 124.985 265.885 126.389C261.79 139.795 263.257 154.415 267.55 167.759C271.844 181.104 277.549 192.673 284.607 204.784Z" fill="#263238"/>
<path d="M209.258 104.538L206.237 105.421C175.837 114.308 157.344 145.043 163.76 176.059C169.728 204.916 176.692 236.724 181.301 251.794C190.841 282.992 221.799 278.85 221.799 278.85C221.87 278.833 222.148 290.484 222.148 290.484L251.68 323.941L302.691 288.651L274.074 154.132C267.373 120.8 242.391 96.9179 209.258 104.538Z" fill="#FFBF9D"/>
<path d="M221.798 278.849C221.798 278.849 243.656 274.095 260.826 254.735C260.826 254.735 259.76 281.516 222.069 287.348L221.798 278.849Z" fill="#FF9A6C"/>
<path d="M174.46 187.94C175.185 188.361 177.839 184.864 182.655 183.47C187.445 182.008 191.7 183.452 192.049 182.71C192.229 182.375 191.357 181.486 189.492 180.816C187.653 180.145 184.754 179.814 181.76 180.704C178.767 181.597 176.569 183.437 175.45 184.99C174.303 186.557 174.11 187.758 174.46 187.94Z" fill="#263238"/>
<path d="M221.952 175.266C222.678 175.687 225.338 172.189 230.15 170.796C234.939 169.336 239.195 170.778 239.545 170.036C239.724 169.7 238.858 168.812 236.987 168.143C235.148 167.47 232.25 167.142 229.256 168.029C226.263 168.923 224.065 170.763 222.945 172.315C221.8 173.883 221.605 175.085 221.952 175.266Z" fill="#263238"/>
<path d="M215.501 217.286C215.443 217.006 212.301 217.363 207.274 218.16C206.008 218.393 204.773 218.489 204.322 217.71C203.773 216.907 203.9 215.432 204.077 213.828C204.363 210.516 204.661 207.047 204.975 203.41C206.127 188.614 206.578 176.593 205.982 176.551C205.385 176.511 203.968 188.47 202.816 203.265C202.562 206.906 202.315 210.376 202.087 213.695C202.031 215.227 201.694 217.045 202.859 218.704C203.458 219.526 204.556 219.928 205.405 219.91C206.263 219.92 206.958 219.732 207.577 219.59C212.53 218.427 215.561 217.565 215.501 217.286Z" fill="#263238"/>
<path d="M242.004 156.859C241.61 155.464 236.571 155.746 230.757 154.612C224.919 153.596 220.313 151.535 219.447 152.697C219.058 153.256 219.789 154.595 221.606 156.05C223.406 157.502 226.34 158.97 229.833 159.619C233.326 160.259 236.591 159.935 238.791 159.221C241.008 158.509 242.17 157.52 242.004 156.859Z" fill="#263238"/>
<path d="M170.103 173.857C171.411 174.677 175.031 172.451 179.747 171.09C184.421 169.591 188.688 169.414 189.293 168.011C189.543 167.343 188.609 166.417 186.572 165.862C184.562 165.303 181.442 165.254 178.214 166.235C174.987 167.22 172.445 168.993 171.11 170.571C169.749 172.162 169.512 173.443 170.103 173.857Z" fill="#263238"/>
<path d="M278.294 178.064C278.76 177.677 297.949 165.412 303.522 187.017C309.096 208.623 284.373 211.022 284.176 210.413C283.978 209.802 278.294 178.064 278.294 178.064Z" fill="#FFBF9D"/>
<path d="M290.545 199.265C290.621 199.171 290.989 199.431 291.701 199.559C292.394 199.683 293.512 199.604 294.529 198.891C296.595 197.465 297.582 193.345 296.683 189.423C296.231 187.443 295.336 185.676 294.24 184.306C293.172 182.896 291.865 182.055 290.663 182.147C289.451 182.178 288.815 183.075 288.708 183.752C288.575 184.43 288.823 184.826 288.717 184.893C288.671 184.963 288.16 184.65 288.104 183.713C288.083 183.26 288.204 182.685 288.605 182.14C289.014 181.585 289.721 181.173 290.544 181.053C292.24 180.738 294.136 181.884 295.341 183.388C296.639 184.876 297.692 186.85 298.199 189.073C299.184 193.463 298.006 198.112 295.116 199.82C293.698 200.609 292.313 200.478 291.526 200.136C290.719 199.776 290.48 199.324 290.545 199.265Z" fill="#FF9A6C"/>
<path d="M168.852 136.703C164.867 135.64 172.562 121.676 180.204 115.627C191.752 106.486 210.725 97.9078 223.572 98.3278C239.04 98.8328 252.832 103.038 263.356 114.386C273.88 125.733 280.416 140.379 283.728 155.497C284.738 160.11 285.45 165.003 283.966 169.485C282.132 175.025 277.078 179.483 278.974 186.024C279.668 188.414 279.584 191.023 278.368 193.194C275.454 198.395 269.622 195.639 266.407 192.223C259.538 184.925 256.491 174.931 253.657 165.318C251.643 158.485 249.609 151.5 249.907 144.383C250.069 140.51 250.923 136.677 250.87 132.801C250.818 128.925 249.674 124.796 246.648 122.372C246.156 121.978 245.392 121.516 244.447 121.03C236.979 117.179 227.994 117.705 220.982 122.335C209.86 129.681 190.637 141.3 184.17 138.515C174.866 134.506 172.029 131.089 172.029 131.089L168.852 136.703Z" fill="#263238"/>
<path d="M225.819 233.45C226.556 233.67 227.746 228.687 232.851 226.158C237.953 223.616 243.135 225.435 243.339 224.746C243.483 224.45 242.385 223.498 240.155 222.905C237.973 222.308 234.591 222.254 231.467 223.8C228.349 225.355 226.545 227.986 225.89 229.991C225.207 232.032 225.471 233.399 225.819 233.45Z" fill="#263238"/>
<path d="M191.999 196.559C191.929 196.571 191.915 196.208 191.564 195.725C191.236 195.257 190.36 194.72 189.33 195.167C188.842 195.369 188.366 195.792 188.149 196.387C187.92 196.964 187.986 197.715 188.352 198.367C188.713 199.009 189.391 199.548 190.209 199.671C191.004 199.803 191.976 199.54 192.682 198.945C193.395 198.35 193.888 197.408 193.865 196.4C193.848 195.379 193.42 194.298 192.623 193.526C191.836 192.746 190.698 192.279 189.527 192.339C188.333 192.405 187.104 192.877 186.186 193.757C185.26 194.621 184.638 195.851 184.532 197.166C184.433 198.472 184.787 199.927 185.522 201.087C186.275 202.256 187.459 203.147 188.838 203.578C190.216 203.997 191.783 203.956 193.231 203.534C193.955 203.324 194.619 202.983 195.23 202.578C195.829 202.154 196.341 201.629 196.778 201.052C197.201 200.461 197.518 199.805 197.766 199.125C197.972 198.431 198.143 197.723 198.176 196.997C198.29 195.542 198.067 194.099 197.514 192.862C196.945 191.618 196.037 190.568 194.964 189.801C192.788 188.278 190.033 187.904 187.691 188.362C185.324 188.754 183.444 190.244 182.229 191.872C181.044 193.56 180.509 195.431 180.422 197.077C180.352 198.726 180.601 200.181 181.043 201.279C181.201 201.855 181.477 202.31 181.662 202.732C181.84 203.16 182.06 203.483 182.224 203.755C182.551 204.299 182.705 204.606 182.663 204.64C182.621 204.674 182.384 204.434 181.965 203.935C181.756 203.686 181.487 203.381 181.258 202.961C181.022 202.547 180.692 202.094 180.478 201.504C179.926 200.382 179.558 198.846 179.549 197.049C179.558 195.256 180.057 193.169 181.322 191.241C182.001 190.322 182.78 189.369 183.841 188.667C184.089 188.469 184.355 188.292 184.647 188.15C184.933 187.999 185.215 187.832 185.513 187.692C186.133 187.47 186.754 187.192 187.435 187.091C190.067 186.523 193.182 186.861 195.787 188.619C197.064 189.503 198.169 190.744 198.868 192.236C199.559 193.745 199.822 195.435 199.703 197.1C199.667 197.942 199.478 198.785 199.23 199.614C198.94 200.433 198.557 201.233 198.038 201.961C197.505 202.676 196.869 203.328 196.127 203.854C195.375 204.36 194.554 204.775 193.68 205.029C191.948 205.533 190.101 205.586 188.378 205.061C186.668 204.526 185.164 203.386 184.232 201.908C183.315 200.409 182.912 198.726 183.047 197.031C183.2 195.339 184.019 193.776 185.211 192.696C186.398 191.596 187.958 191.017 189.477 190.964C191.039 190.911 192.54 191.568 193.543 192.612C194.564 193.654 195.085 195.055 195.07 196.404C195.06 197.789 194.35 199.046 193.372 199.804C192.379 200.566 191.159 200.867 190.026 200.644C188.897 200.423 188.016 199.649 187.579 198.769C187.137 197.893 187.101 196.883 187.461 196.096C187.808 195.308 188.474 194.801 189.12 194.592C189.765 194.373 190.424 194.434 190.894 194.67C191.37 194.899 191.663 195.251 191.828 195.552C192.144 196.186 192.032 196.566 191.999 196.559Z" fill="#263238"/>
<path d="M235.658 185.608C235.588 185.62 235.574 185.257 235.223 184.774C234.894 184.305 234.019 183.769 232.989 184.216C232.5 184.418 232.025 184.841 231.808 185.436C231.579 186.013 231.645 186.763 232.011 187.416C232.372 188.058 233.05 188.597 233.868 188.72C234.663 188.852 235.635 188.589 236.341 187.994C237.054 187.399 237.547 186.457 237.524 185.449C237.507 184.428 237.079 183.347 236.282 182.575C235.495 181.795 234.357 181.328 233.186 181.388C231.992 181.454 230.763 181.926 229.845 182.806C228.919 183.67 228.297 184.9 228.191 186.215C228.092 187.521 228.446 188.976 229.181 190.136C229.934 191.305 231.118 192.196 232.497 192.627C233.875 193.046 235.442 193.005 236.89 192.583C237.614 192.373 238.278 192.032 238.889 191.627C239.488 191.203 240 190.678 240.437 190.1C240.86 189.509 241.177 188.853 241.425 188.173C241.631 187.479 241.802 186.771 241.835 186.045C241.949 184.59 241.726 183.147 241.173 181.91C240.604 180.666 239.696 179.616 238.623 178.849C236.447 177.326 233.693 176.952 231.35 177.41C228.983 177.802 227.103 179.292 225.888 180.92C224.703 182.608 224.168 184.479 224.081 186.125C224.011 187.774 224.26 189.229 224.702 190.327C224.86 190.903 225.137 191.358 225.321 191.78C225.498 192.208 225.719 192.531 225.883 192.803C226.209 193.347 226.364 193.654 226.322 193.688C226.28 193.722 226.043 193.481 225.625 192.983C225.416 192.734 225.147 192.429 224.917 192.009C224.681 191.595 224.351 191.141 224.137 190.552C223.585 189.43 223.217 187.894 223.208 186.097C223.217 184.304 223.716 182.217 224.981 180.289C225.66 179.37 226.439 178.417 227.5 177.715C227.749 177.517 228.014 177.34 228.306 177.198C228.592 177.047 228.874 176.88 229.172 176.741C229.793 176.519 230.413 176.24 231.094 176.139C233.726 175.571 236.841 175.909 239.446 177.667C240.723 178.551 241.828 179.792 242.527 181.284C243.218 182.793 243.481 184.483 243.362 186.148C243.327 186.99 243.137 187.833 242.89 188.662C242.6 189.481 242.217 190.281 241.698 191.009C241.165 191.724 240.529 192.376 239.787 192.902C239.036 193.408 238.214 193.823 237.34 194.077C235.608 194.581 233.762 194.634 232.038 194.109C230.328 193.574 228.824 192.434 227.892 190.956C226.975 189.457 226.572 187.774 226.707 186.08C226.86 184.388 227.68 182.825 228.871 181.745C230.058 180.645 231.618 180.066 233.137 180.013C234.699 179.96 236.2 180.617 237.203 181.661C238.224 182.703 238.745 184.104 238.73 185.453C238.72 186.838 238.01 188.095 237.032 188.853C236.038 189.615 234.819 189.916 233.686 189.693C232.557 189.472 231.676 188.698 231.239 187.819C230.797 186.943 230.76 185.933 231.121 185.146C231.468 184.358 232.134 183.851 232.78 183.641C233.425 183.422 234.084 183.483 234.554 183.719C235.03 183.949 235.323 184.3 235.488 184.601C235.803 185.234 235.69 185.615 235.658 185.608Z" fill="#263238"/>
<path d="M223.346 135.605C223.356 135.51 224.109 135.674 225.239 135.371C226.342 135.093 227.861 134.211 228.581 132.604C229.279 130.986 228.901 129.271 228.36 128.27C227.819 127.233 227.19 126.789 227.253 126.718C227.27 126.673 228.008 127.02 228.68 128.088C229.344 129.112 229.842 130.987 229.058 132.813C228.243 134.624 226.525 135.526 225.321 135.729C224.079 135.958 223.324 135.648 223.346 135.605Z" fill="#263238"/>
<path d="M242.268 129.193C242.31 129.211 241.852 130.004 240.606 130.685C239.394 131.366 237.327 131.792 235.258 131.07C233.2 130.337 231.828 128.804 231.128 127.627C230.409 126.43 230.241 125.573 230.293 125.559C230.376 125.526 230.667 126.327 231.435 127.425C232.188 128.51 233.524 129.901 235.43 130.579C237.335 131.244 239.26 130.914 240.442 130.356C241.653 129.801 242.2 129.123 242.268 129.193Z" fill="#263238"/>
<path d="M235.748 143.317C235.666 143.35 235.4 142.625 234.67 141.662C233.955 140.704 232.69 139.53 230.967 138.918C229.242 138.31 227.52 138.428 226.362 138.724C225.189 139.014 224.526 139.411 224.483 139.333C224.45 139.29 225.056 138.769 226.261 138.369C227.446 137.967 229.286 137.773 231.141 138.426C232.994 139.084 234.303 140.391 234.971 141.449C235.657 142.519 235.801 143.305 235.748 143.317Z" fill="#263238"/>
<path d="M238.268 141.877C238.235 141.916 237.666 141.44 237.25 140.354C236.833 139.301 236.673 137.559 237.533 135.957C238.41 134.363 239.96 133.55 241.07 133.327C242.207 133.085 242.916 133.304 242.901 133.353C242.897 133.444 242.197 133.368 241.163 133.683C240.147 133.98 238.774 134.778 237.991 136.205C237.22 137.638 237.297 139.224 237.6 140.238C237.897 141.278 238.342 141.824 238.268 141.877Z" fill="#263238"/>
<path d="M118.504 233.841C118.504 233.841 143.898 182.339 145.636 180.268C147.374 178.197 156.621 156.662 156.621 156.662L169.557 141.201C169.557 141.201 175.625 142.111 171.772 149.964L166.28 160.424L186.449 140.179C186.449 140.179 192.422 140.87 190.097 147.214C188.369 151.928 182.209 159.229 182.209 159.229L200.311 143.516C200.311 143.516 207.842 144.677 204.229 152.577C201.88 157.714 180.78 181.034 180.78 181.034C180.78 181.034 191.305 174.531 194.632 172.373C197.958 170.215 201.392 165.521 203.848 165.965C206.303 166.409 210.59 170.209 204.195 177.468C197.8 184.728 179.809 196.297 177.188 197.734C174.568 199.172 174.568 199.172 174.568 199.172C174.568 199.172 171.451 207.243 167.058 211.143C167.058 211.143 159.838 234.023 156.198 240.322C152.272 247.117 145.753 250.806 145.753 250.806L134.645 280.809L102.919 258.897L118.504 233.841Z" fill="#FFBF9D"/>
<path d="M118.503 233.841C118.503 233.841 118.173 234.413 117.503 235.511C116.824 236.616 115.825 238.243 114.517 240.371C111.877 244.641 107.999 250.913 103.022 258.961L102.987 258.795C111.521 264.671 122.246 272.055 134.745 280.661L134.476 280.746C137.799 271.744 141.54 261.611 145.556 250.732C145.573 250.686 145.604 250.65 145.642 250.627L145.649 250.623C148.591 248.818 151.344 246.439 153.655 243.611C154.8 242.188 155.847 240.648 156.662 238.966C157.477 237.277 158.228 235.527 158.932 233.736C161.754 226.572 164.299 218.946 166.829 211.07C166.842 211.028 166.868 210.991 166.898 210.964C168.516 209.494 169.89 207.612 171.114 205.584C172.326 203.547 173.422 201.352 174.338 199.083C174.36 199.028 174.401 198.984 174.448 198.957C175.777 198.214 177.139 197.517 178.434 196.705C179.739 195.897 181.042 195.064 182.339 194.208C184.937 192.5 187.531 190.723 190.112 188.875C192.691 187.024 195.261 185.105 197.767 183.063C200.255 181.011 202.749 178.871 204.791 176.33C205.779 175.048 206.665 173.641 207.07 172.082C207.5 170.551 207.278 168.798 206.177 167.621C205.65 167.034 204.965 166.569 204.216 166.325C203.469 166.059 202.722 166.273 202.007 166.678C200.6 167.507 199.385 168.712 198.126 169.844C196.881 170.986 195.566 172.152 194.081 173.022C192.631 173.929 191.177 174.838 189.718 175.751C186.8 177.575 183.866 179.411 180.915 181.256C180.793 181.332 180.633 181.295 180.557 181.173C180.494 181.073 180.511 180.944 180.586 180.859C182.125 179.134 183.787 177.271 185.455 175.402C190.117 170.107 194.708 164.835 199.025 159.456C200.099 158.108 201.152 156.75 202.155 155.367C203.145 153.97 204.088 152.576 204.565 150.963C205.072 149.395 205.126 147.626 204.271 146.254C203.419 144.889 201.823 144.086 200.269 143.77L200.476 143.71C194.326 149.046 188.284 154.288 182.371 159.419C182.266 159.51 182.108 159.499 182.017 159.394C181.936 159.3 181.939 159.16 182.015 159.068C184.573 155.938 187.008 152.714 188.885 149.256C189.335 148.386 189.776 147.505 190.03 146.579C190.332 145.668 190.459 144.701 190.31 143.789C190.167 142.877 189.68 142.046 188.951 141.481C188.224 140.923 187.314 140.562 186.418 140.421L186.618 140.351C179.635 147.353 172.901 154.106 166.439 160.586C166.35 160.675 166.205 160.676 166.116 160.587C166.043 160.515 166.03 160.405 166.075 160.319C167.904 156.84 169.691 153.442 171.439 150.118C171.846 149.279 172.222 148.443 172.475 147.565C172.633 147.135 172.669 146.682 172.773 146.244C172.788 145.801 172.87 145.351 172.792 144.917C172.721 144.043 172.371 143.207 171.762 142.599C171.168 141.985 170.342 141.578 169.522 141.414L169.717 141.34C165.173 146.761 160.871 151.895 156.768 156.79L156.798 156.742C154.162 162.824 151.616 168.604 149.078 174.022C148.436 175.373 147.805 176.706 147.137 178C146.806 178.649 146.468 179.286 146.083 179.907C145.651 180.542 145.31 181.07 144.963 181.704C143.594 184.159 142.354 186.594 141.136 188.934C136.311 198.323 132.237 206.469 128.895 213.128C125.564 219.786 122.973 224.964 121.21 228.489C120.331 230.24 119.659 231.577 119.202 232.488C118.75 233.386 118.503 233.841 118.503 233.841C118.503 233.841 118.714 233.369 119.152 232.46C119.598 231.544 120.253 230.198 121.11 228.436C122.852 224.9 125.411 219.706 128.701 213.028C132.013 206.354 136.059 198.194 140.86 188.788C142.072 186.442 143.304 184.007 144.674 181.536C144.996 180.93 145.433 180.267 145.801 179.718C146.168 179.123 146.507 178.485 146.833 177.84C147.494 176.552 148.122 175.219 148.759 173.869C151.281 168.453 153.816 162.667 156.439 156.584C156.447 156.566 156.457 156.549 156.469 156.535C160.563 151.633 164.857 146.492 169.392 141.063L169.398 141.056C169.446 140.999 169.519 140.976 169.588 140.989C170.527 141.176 171.393 141.606 172.072 142.294C172.756 142.972 173.15 143.921 173.227 144.871C173.309 145.348 173.226 145.823 173.208 146.299C173.102 146.759 173.061 147.241 172.899 147.685C172.639 148.595 172.247 149.467 171.836 150.317C170.091 153.644 168.308 157.046 166.482 160.53L166.118 160.262C172.573 153.776 179.301 147.017 186.277 140.007L186.284 140C186.336 139.947 186.409 139.927 186.477 139.937C187.487 140.096 188.434 140.473 189.255 141.096C190.07 141.721 190.638 142.685 190.796 143.705C190.963 144.725 190.818 145.766 190.505 146.719C190.235 147.696 189.784 148.597 189.326 149.485C187.416 153.006 184.981 156.229 182.402 159.39L182.046 159.038C187.957 153.904 193.996 148.66 200.144 143.321L200.15 143.316C200.207 143.266 200.282 143.249 200.351 143.261C201.225 143.426 202.033 143.736 202.795 144.176C203.543 144.621 204.25 145.205 204.711 145.979C205.677 147.528 205.592 149.48 205.062 151.114C204.773 151.934 204.474 152.753 204.009 153.503C203.576 154.264 203.07 154.957 202.579 155.668C201.568 157.063 200.511 158.427 199.433 159.779C195.106 165.173 190.513 170.447 185.847 175.747C184.178 177.618 182.514 179.482 180.973 181.209L180.643 180.813C183.591 178.97 186.524 177.136 189.44 175.313C192.332 173.435 195.386 171.878 197.779 169.463C199.041 168.333 200.248 167.12 201.756 166.229C202.144 166.024 202.548 165.827 203.003 165.743C203.45 165.618 203.959 165.717 204.373 165.835C205.223 166.112 205.972 166.624 206.562 167.28C207.795 168.594 208.033 170.579 207.568 172.209C207.132 173.878 206.209 175.33 205.195 176.646C203.099 179.25 200.59 181.393 198.089 183.457C195.57 185.507 192.992 187.43 190.406 189.284C187.818 191.136 185.217 192.914 182.613 194.624C181.312 195.482 180.006 196.315 178.693 197.127C177.377 197.95 176.012 198.648 174.685 199.387L174.795 199.261C173.861 201.569 172.759 203.769 171.529 205.834C170.287 207.887 168.893 209.8 167.215 211.321L167.284 211.215C164.743 219.099 162.19 226.722 159.351 233.904C158.642 235.7 157.886 237.457 157.059 239.165C156.225 240.88 155.158 242.443 153.993 243.887C151.636 246.758 148.869 249.147 145.855 250.989L145.948 250.88C141.912 261.751 138.152 271.877 134.812 280.873C134.778 280.966 134.675 281.013 134.583 280.979C134.569 280.974 134.555 280.966 134.543 280.958C122.07 272.317 111.366 264.901 102.849 259C102.795 258.963 102.78 258.889 102.814 258.834C107.832 250.814 111.743 244.564 114.406 240.31C115.737 238.196 116.755 236.579 117.446 235.482C118.135 234.391 118.503 233.841 118.503 233.841Z" fill="#FF9A6C"/>
<path d="M185.128 155.928C185.155 155.952 184.758 156.451 184.018 157.335C183.276 158.217 182.182 159.476 180.805 161.01C178.043 164.068 174.141 168.225 169.549 172.531C165.908 175.949 162.365 178.926 159.393 181.162L159.36 181.187L159.323 181.197C156.582 181.972 154.522 183.167 153.177 184.087C151.83 185.017 151.153 185.658 151.116 185.616C151.102 185.601 151.257 185.427 151.573 185.121C151.892 184.819 152.375 184.389 153.037 183.891C154.355 182.902 156.419 181.63 159.206 180.791L159.137 180.826C162.059 178.55 165.563 175.558 169.194 172.15C173.773 167.857 177.708 163.749 180.536 160.759C181.899 159.303 183.024 158.102 183.868 157.199C184.653 156.359 185.101 155.904 185.128 155.928Z" fill="#FF9A6C"/>
<path d="M167.275 159.198C167.327 159.244 166.607 160.162 165.374 161.588C164.141 163.013 162.386 164.937 160.4 167.014C158.462 169.02 156.71 170.833 155.29 172.303C153.977 173.651 153.154 174.476 153.099 174.427C153.047 174.381 153.774 173.468 155.02 172.053C156.264 170.637 158.039 168.731 160.023 166.655C161.949 164.64 163.69 162.817 165.101 161.34C166.401 159.98 167.219 159.149 167.275 159.198Z" fill="#FF9A6C"/>
<path d="M159.545 191.302C167.213 188.775 174.538 185.211 181.259 180.737L159.545 191.302Z" fill="#FFBF9D"/>
<path d="M181.258 180.738C181.278 180.768 181.013 180.982 180.517 181.344C180.022 181.708 179.286 182.207 178.362 182.8C176.514 183.987 173.886 185.516 170.871 186.985C167.853 188.451 165.028 189.576 162.954 190.297C161.917 190.658 161.071 190.929 160.479 191.094C159.888 191.261 159.556 191.338 159.545 191.303C159.52 191.228 160.792 190.759 162.825 189.952C164.858 189.146 167.643 187.975 170.643 186.517C173.64 185.057 176.28 183.588 178.17 182.486C180.06 181.384 181.215 180.672 181.258 180.738Z" fill="#FF9A6C"/>
<path d="M115.161 237.739C114.052 239.218 81.1496 288.756 81.1496 288.756C81.1496 288.756 50.0756 337.167 45.5356 350.787C38.9076 370.675 37.4276 405.148 58.8686 414.391C80.3106 423.633 87.7006 423.932 113.579 413.95C139.457 403.968 158.319 388.375 158.319 388.375L153.238 298.279L132.37 308.989L150.328 260.772L115.161 237.739Z" fill="#FF725E"/>
<path d="M391.561 314.455C391.561 314.455 408.27 327.825 414.318 373.376C418.136 402.132 428.97 472.292 428.97 472.292L365.774 472.291C365.774 472.291 353.122 382.05 354.415 380.689C355.709 379.329 391.561 314.455 391.561 314.455Z" fill="#FF725E"/>
<path d="M153.239 298.277L221.611 284.02C221.611 284.02 226.937 312.34 262.696 306.175C299.483 299.832 299.927 274.546 299.927 274.546C299.927 274.546 361.281 295.612 373.156 300.925C385.031 306.239 391.562 314.456 391.562 314.456C391.562 314.456 369.763 399.049 369.085 400.112C368.406 401.175 367.728 472.731 366.031 472.377C364.334 472.023 162.492 471.299 162.492 471.299L156.356 386.529L135.312 313.678L153.239 298.277Z" fill="#FF725E"/>
<path d="M141.69 285.048C141.707 285.055 141.608 285.343 141.405 285.884C141.181 286.466 140.878 287.253 140.497 288.244C139.715 290.296 138.571 293.258 137.227 296.946C134.516 304.313 131.034 314.583 127.289 325.962C125.44 331.669 123.458 337.018 122.35 342.086C121.743 344.608 121.185 347.015 120.555 349.243C119.944 351.474 119.211 353.516 118.484 355.339C117.764 357.164 117.167 358.83 116.669 360.308C116.174 361.793 115.614 363.027 115.141 364.017C114.666 365.008 114.28 365.769 114.012 366.281C113.744 366.794 113.596 367.059 113.579 367.051C113.563 367.043 113.68 366.762 113.917 366.235C114.173 365.667 114.52 364.899 114.956 363.932C115.4 362.929 115.926 361.699 116.392 360.215C116.863 358.729 117.441 357.042 118.14 355.206C119.619 351.569 120.732 347.04 121.883 341.974C122.972 336.876 124.951 331.487 126.794 325.798C130.539 314.418 134.079 304.157 136.881 296.817C138.27 293.143 139.468 290.198 140.308 288.168C140.728 287.192 141.061 286.417 141.307 285.844C141.542 285.316 141.673 285.042 141.69 285.048Z" fill="#263238"/>
<path d="M158.877 421.378C158.863 421.379 158.836 421.178 158.797 420.791C158.758 420.365 158.707 419.799 158.642 419.083C158.52 417.546 158.348 415.374 158.133 412.652C157.73 407.1 157.164 399.314 156.501 390.187L156.506 390.222C155.253 384.55 153.786 378.338 152.051 371.88C148.49 358.502 144.278 346.65 140.265 338.519C138.327 334.417 136.316 331.339 134.928 329.223C134.2 328.188 133.574 327.427 133.185 326.884C133.003 326.635 132.855 326.433 132.736 326.27C132.637 326.13 132.589 326.055 132.596 326.049C132.603 326.043 132.664 326.106 132.776 326.235C132.906 326.389 133.067 326.58 133.266 326.817C133.683 327.339 134.337 328.083 135.094 329.105C136.539 331.193 138.608 334.259 140.596 338.355C144.709 346.476 148.988 358.345 152.555 371.745C154.293 378.213 155.749 384.437 156.979 390.119L156.983 390.137L156.984 390.154C157.571 399.286 158.071 407.077 158.428 412.632C158.585 415.358 158.711 417.533 158.8 419.072C158.833 419.79 158.859 420.359 158.879 420.786C158.89 421.175 158.89 421.377 158.877 421.378Z" fill="#263238"/>
<path d="M365.776 472.292C365.767 472.292 365.759 472.18 365.753 471.962C365.749 471.716 365.744 471.397 365.737 470.994C365.734 470.109 365.73 468.861 365.725 467.271C365.738 464.004 365.756 459.334 365.779 453.576C365.875 441.981 366.007 426.013 366.154 408.36V408.344L366.156 408.328C366.168 408.241 366.18 408.147 366.193 408.053C368.564 390.491 370.711 374.595 372.269 363.051C373.068 357.321 373.716 352.673 374.17 349.422C374.402 347.84 374.584 346.599 374.713 345.72C374.777 345.32 374.828 345.003 374.867 344.759C374.905 344.543 374.928 344.433 374.937 344.434C374.946 344.435 374.94 344.548 374.92 344.766C374.894 345.012 374.86 345.331 374.817 345.734C374.711 346.617 374.562 347.862 374.371 349.449C373.957 352.706 373.365 357.361 372.635 363.1C371.115 374.649 369.022 390.552 366.71 408.122C366.697 408.216 366.685 408.311 366.673 408.398L366.675 408.367C366.469 426.019 366.282 441.987 366.147 453.581C366.055 459.339 365.98 464.008 365.928 467.275C365.891 468.865 365.863 470.112 365.842 470.997C365.827 471.4 365.816 471.719 365.807 471.965C365.795 472.18 365.785 472.292 365.776 472.292Z" fill="#263238"/>
<path d="M220.109 305.581C219.985 305.557 220.755 302.956 222.857 300.429C224.937 297.884 227.339 296.627 227.386 296.743C227.48 296.877 225.271 298.294 223.258 300.76C221.222 303.205 220.259 305.647 220.109 305.581Z" fill="#263238"/>
<path d="M230.412 312.081C230.287 312.105 230.173 309.592 231.46 306.856C232.72 304.107 234.708 302.57 234.771 302.68C234.89 302.793 233.137 304.44 231.933 307.076C230.695 309.695 230.575 312.099 230.412 312.081Z" fill="#263238"/>
<path d="M243.939 317.79C243.795 317.79 243.679 315.234 243.679 312.081C243.679 308.927 243.796 306.372 243.939 306.372C244.082 306.372 244.199 308.928 244.199 312.081C244.199 315.234 244.083 317.79 243.939 317.79Z" fill="#263238"/>
<path d="M260.369 317.196C260.264 317.272 258.833 315.237 257.901 312.343C256.952 309.454 256.913 306.966 257.043 306.966C257.2 306.95 257.468 309.363 258.396 312.182C259.304 315.007 260.506 317.117 260.369 317.196Z" fill="#263238"/>
<path d="M276.838 315.083C276.707 315.142 275.458 312.642 274.048 309.5C272.638 306.357 271.602 303.763 271.733 303.704C271.864 303.645 273.113 306.144 274.523 309.287C275.932 312.429 276.969 315.025 276.838 315.083Z" fill="#263238"/>
<path d="M292.872 307.947C292.739 308.028 291.23 305.654 289.011 303.01C286.804 300.354 284.739 298.445 284.842 298.329C284.924 298.226 287.171 299.983 289.411 302.676C291.661 305.359 292.988 307.884 292.872 307.947Z" fill="#263238"/>
<path d="M304.965 298.122C304.848 298.233 302.738 295.961 299.629 293.792C296.534 291.601 293.684 290.382 293.749 290.234C293.774 290.173 294.52 290.4 295.668 290.917C296.815 291.432 298.354 292.261 299.929 293.366C301.502 294.474 302.802 295.641 303.674 296.547C304.549 297.452 305.014 298.078 304.965 298.122Z" fill="#263238"/>
<path d="M311.682 285.943C311.578 286.082 309.197 283.701 305.384 282.38C301.589 281.006 298.241 281.348 298.248 281.174C298.241 281.116 299.059 280.948 300.404 280.957C301.745 280.963 303.614 281.203 305.558 281.889C307.499 282.58 309.102 283.571 310.146 284.413C311.196 285.255 311.724 285.902 311.682 285.943Z" fill="#263238"/>
<path d="M212.157 295.372C212.07 295.277 214.174 293.429 217.282 291.991C220.382 290.534 223.149 290.107 223.166 290.235C223.203 290.39 220.538 291.035 217.502 292.463C214.458 293.87 212.252 295.5 212.157 295.372Z" fill="#263238"/>
<path d="M202.105 457.71C202.101 457.702 202.197 457.648 202.386 457.55C202.602 457.442 202.881 457.304 203.233 457.129C204.014 456.754 205.112 456.227 206.511 455.555C209.393 454.181 213.509 452.218 218.582 449.799C228.767 444.923 242.791 438.094 258.157 430.304C273.525 422.507 287.323 415.226 297.274 409.89C302.223 407.226 306.238 405.066 309.049 403.553C310.418 402.821 311.492 402.247 312.255 401.838C312.604 401.658 312.881 401.514 313.095 401.404C313.286 401.309 313.385 401.264 313.39 401.272C313.394 401.28 313.303 401.34 313.121 401.451C312.913 401.573 312.644 401.732 312.306 401.931C311.554 402.36 310.495 402.963 309.147 403.731C306.4 405.288 302.404 407.506 297.449 410.215C287.541 415.635 273.766 422.97 258.392 430.769C243.021 438.561 228.967 445.341 218.74 450.132C213.627 452.529 209.477 454.443 206.597 455.739C205.18 456.373 204.068 456.871 203.277 457.224C202.916 457.379 202.63 457.503 202.408 457.598C202.212 457.68 202.109 457.718 202.105 457.71Z" fill="#263238"/>
</svg>
