<?xml version="1.0" encoding="utf-8"?>
<!-- Generator: Adobe Illustrator 27.5.0, SVG Export Plug-In . SVG Version: 6.00 Build 0)  -->
<svg version="1.1" xmlns="http://www.w3.org/2000/svg" xmlns:xlink="http://www.w3.org/1999/xlink" x="0px" y="0px"
	 viewBox="0 0 500 500" style="enable-background:new 0 0 500 500;" xml:space="preserve">
<g id="BACKGROUND">
	<rect y="-0.002" style="fill:#DAEAEF;" width="500" height="500"/>
</g>
<g id="OBJECTS">
	<g id="BG_PANEL">
		<g style="opacity:0.2;">
			<path style="fill:#017568;" d="M426.082,269.215c-14.999-18.937-29.999-32.463-35.998-56.81c-3-20.29,1.5-40.579-1.5-60.868
				C369.085,48.739,144.096,31.155,141.096,147.48c0,28.405,1.5,48.694-16.499,73.041C105.098,247.573,75.1,273.597,61.6,303.355
				c-13.5,31.109-8.648,76.658,10.5,103.097c35.998,49.704,182.353,57.02,305.4,13.882
				C443.497,400.045,463.58,321.967,426.082,269.215z"/>
		</g>
		<path style="opacity:0.2;fill:#017568;" d="M418.555,199.82c0.033-29.325-18.881-31.564-19.94,0
			C397.555,231.384,418.515,235.27,418.555,199.82z"/>
		<path style="fill:#FFFFFF;" d="M387.38,256.836h-3.013v-3.013c0-0.588-0.477-1.064-1.064-1.064c-0.587,0-1.063,0.477-1.063,1.064
			v3.013h-3.013c-0.587,0-1.064,0.477-1.064,1.064c0,0.587,0.477,1.063,1.064,1.063h3.013v3.013c0,0.588,0.477,1.064,1.063,1.064
			c0.588,0,1.064-0.476,1.064-1.064v-3.013h3.013c0.587,0,1.064-0.477,1.064-1.063C388.443,257.313,387.967,256.836,387.38,256.836z
			"/>
		<path style="fill:#FFFFFF;" d="M364.072,148.379h-3.013v-3.013c0-0.588-0.477-1.064-1.065-1.064c-0.587,0-1.064,0.477-1.064,1.064
			v3.013h-3.013c-0.587,0-1.063,0.477-1.063,1.063s0.477,1.064,1.063,1.064h3.013v3.013c0,0.588,0.477,1.063,1.064,1.063
			c0.588,0,1.065-0.476,1.065-1.063v-3.013h3.013c0.587,0,1.063-0.477,1.063-1.064S364.659,148.379,364.072,148.379z"/>
		<path style="fill:#FFFFFF;" d="M151.522,244.71h-3.013v-3.013c0-0.588-0.477-1.064-1.064-1.064c-0.587,0-1.063,0.477-1.063,1.064
			v3.013h-3.013c-0.587,0-1.064,0.477-1.064,1.063s0.477,1.064,1.064,1.064h3.013v3.013c0,0.588,0.477,1.064,1.063,1.064
			c0.588,0,1.064-0.476,1.064-1.064v-3.013h3.013c0.587,0,1.063-0.477,1.063-1.064S152.109,244.71,151.522,244.71z"/>
		<path style="fill:#FFFFFF;" d="M212.617,99.54h-3.013v-3.013c0-0.588-0.477-1.064-1.064-1.064c-0.587,0-1.064,0.477-1.064,1.064
			v3.013h-3.013c-0.587,0-1.063,0.477-1.063,1.063s0.477,1.063,1.063,1.063h3.013v3.013c0,0.588,0.477,1.063,1.064,1.063
			c0.588,0,1.064-0.476,1.064-1.063v-3.013h3.013c0.587,0,1.063-0.477,1.063-1.063S213.204,99.54,212.617,99.54z"/>
		<path style="fill:#FFFFFF;" d="M102.379,310.619h-4.59v-4.592c0-0.895-0.726-1.62-1.621-1.62s-1.621,0.726-1.621,1.62v4.592h-4.59
			c-0.896,0-1.621,0.726-1.621,1.621c0,0.895,0.726,1.62,1.621,1.62h4.59v4.591c0,0.895,0.726,1.621,1.621,1.621
			s1.621-0.727,1.621-1.621v-4.591h4.59c0.896,0,1.621-0.726,1.621-1.62C104,311.345,103.274,310.619,102.379,310.619z"/>
		<path style="fill:#FFFFFF;" d="M87.339,364.098h-3.013v-3.013c0-0.588-0.477-1.064-1.064-1.064c-0.587,0-1.064,0.477-1.064,1.064
			v3.013h-3.013c-0.587,0-1.063,0.477-1.063,1.063c0,0.587,0.477,1.064,1.063,1.064h3.013v3.013c0,0.588,0.477,1.064,1.064,1.064
			c0.588,0,1.064-0.476,1.064-1.064v-3.013h3.013c0.587,0,1.064-0.477,1.064-1.064C88.403,364.574,87.926,364.098,87.339,364.098z"
			/>
		<path style="opacity:0.2;fill:#017568;" d="M118.685,139.581h-3.012v-3.013c0-0.588-0.477-1.064-1.064-1.064
			s-1.064,0.477-1.064,1.064v3.013h-3.012c-0.588,0-1.064,0.477-1.064,1.063c0,0.587,0.477,1.064,1.064,1.064h3.012v3.013
			c0,0.588,0.477,1.064,1.064,1.064s1.064-0.476,1.064-1.064v-3.013h3.012c0.588,0,1.064-0.477,1.064-1.064
			C119.749,140.057,119.272,139.581,118.685,139.581z"/>
		<path style="opacity:0.2;fill:#017568;" d="M434,236.252h-3.013v-3.013c0-0.588-0.477-1.064-1.064-1.064
			c-0.587,0-1.064,0.477-1.064,1.064v3.013h-3.013c-0.587,0-1.063,0.477-1.063,1.064s0.477,1.063,1.063,1.063h3.013v3.013
			c0,0.588,0.477,1.063,1.064,1.063c0.588,0,1.064-0.476,1.064-1.063v-3.013H434c0.587,0,1.063-0.477,1.063-1.063
			S434.587,236.252,434,236.252z"/>
		<path style="opacity:0.2;fill:#017568;" d="M358.932,71.215h-3.012v-3.013c0-0.588-0.477-1.064-1.064-1.064
			c-0.588,0-1.065,0.477-1.065,1.064v3.013h-3.012c-0.588,0-1.065,0.477-1.065,1.063s0.477,1.063,1.065,1.063h3.012v3.013
			c0,0.588,0.477,1.063,1.065,1.063c0.588,0,1.064-0.476,1.064-1.063v-3.013h3.012c0.588,0,1.065-0.477,1.065-1.063
			S359.52,71.215,358.932,71.215z"/>
		<path style="opacity:0.2;fill:#017568;" d="M82.198,232.773h-3.012v-3.013c0-0.588-0.477-1.064-1.064-1.064
			s-1.064,0.477-1.064,1.064v3.013h-3.012c-0.588,0-1.064,0.477-1.064,1.063s0.477,1.064,1.064,1.064h3.012v3.013
			c0,0.588,0.477,1.063,1.064,1.063s1.064-0.476,1.064-1.063V234.9h3.012c0.588,0,1.065-0.477,1.065-1.064
			S82.786,232.773,82.198,232.773z"/>
	</g>
	<g id="SICK_PERSON">
		<path style="fill:#D6301E;" d="M190,221.736c0,0,5.333,18.144,5,24.038c-5.755-2.114-14.825-9.773-14.825-9.773L183,221.601
			L190,221.736z"/>
		<path style="fill:#D6301E;" d="M289.5,233.773c0.834,0.893,18.603-7.893,19.552-14c0.948-6.107,1.847-13.023,1.847-13.023
			s-5.301-6.105-8.6-5.761c-3.299,0.344-12.218,22.395-12.218,22.395L289.5,233.773z"/>
		<g id="HEAD">
			<polygon style="fill:#017568;" points="241.25,269.44 222.147,270.773 226.704,291.817 237,298.773 247.973,270.006 			"/>
			<path style="opacity:0.3;fill:#021A2D;" d="M224.245,280.461c10.241,1.074,19.793-2.451,19.793-2.451v-8.335l-2.291-0.192
				c-0.665,0.016-1.366,0.035-1.958,0.06l-1.289,0.09c-0.002,0.001-0.003,0.001-0.004,0.001c-0.585,0.103-11.315,1.636-16.094,2.317
				L224.245,280.461z"/>
			<g>
				<path style="fill:#FCBE86;" d="M241.25,271.148c0,0,8.762,17.966,5.61,30.573c-4.728,12.081,4.953,23.841,19.661,15.962
					c14.709-7.88,19.211-23.842,20.787-32.246c0-12.082-7.711-43.033-11.475-65.664C269.88,227.303,241.25,271.148,241.25,271.148z"
					/>
				<path style="fill:#F48660;" d="M278.212,232.797c-0.738-4.956-2.773-13.092-3.212-15.624
					c-5.954,7.529-33.75,53.975-33.75,53.975s1.789,4.309,2.788,6.861C254.025,274.022,275.402,252.811,278.212,232.797z"/>
			</g>
			<g>
				<path style="fill:#FCBE86;" d="M287.495,194.833c-8.617-2.514-13.127,3.386-15.531,7.198c-1.213-3.969-2.631-8.004-4.272-11.774
					c-6.994-16.053-13.364-28.678-33.935-31.497c-21.506-2.948-33.784,3.364-39.846,7.685c-6.063,4.322-16.649,19.657-7.667,45.539
					c7.396,21.308,4.729,49.256,27.972,60.523c16.751,8.287,35.54-0.242,46.508-13.361c11.935-14.277,15.585-25.991,16.589-30.249
					C292.4,235.925,301,198.773,287.495,194.833z"/>
				<path style="fill:#EF916C;" d="M280.867,213.268c0.1-4.067,1.103-10.253,5.776-10.93c1.324-0.192,1.018-1.524-0.323-1.33
					c-6.54,0.947-7.574,8.032-7.568,13.57c0.001,0.669,0.727,1.177,1.357,0.967c3.306-1.106,3.668,5.524-0.451,5.606
					c-1.355,0.026-1.347,1.239,0.01,1.237C286.646,222.379,285.995,212.995,280.867,213.268z"/>
				<g>
					<path style="fill:#021A2D;" d="M196.587,224.197c-0.633-0.186-0.775-0.213-1.589-0.536c-0.866-0.344-1.002-0.497-1.225-0.251
						c-0.329,0.362-0.04,0.799,0.396,1.169c0.716,0.607,1.522,1.026,2.419,1.278c0.348,0.098,1.02,0.277,1.31-0.016
						c3.432-3.454,9.386-2.496,12.073,1.418c0.76,1.109,1.687,0.381,0.919-0.737C207.499,221.583,201.047,219.899,196.587,224.197z"
						/>
					<path style="fill:#021A2D;" d="M254.917,217.685c-0.9,0.837-1.244,1.206-2.133,2.177c-7.101-1.828-13.492-2.966-17.442,5.026
						c-0.601,1.217,0.171,2.029,0.872,0.871c3.904-6.447,10.577-5.384,17.047-3.599c0.757,0.208,2.118-3.007,2.725-3.885
						C256.759,217.157,255.902,216.768,254.917,217.685z"/>
				</g>
				<g>
					<path style="fill:#021A2D;" d="M238.852,250.372c-5.384-2.674-13.708-1.204-17.28,3.787c-0.751,1.049,1.014,1.996,1.754,0.963
						c2.899-4.051,7.661-6.423,14.565-2.996C239.044,252.697,240.006,250.945,238.852,250.372L238.852,250.372z"/>
				</g>
				<g>
					<path style="fill:#021A2D;" d="M208.617,210.86c-0.748,2.385-3.166,4.825-5.53,4.123c-1.731-0.514-2.049,0.826-0.327,1.337
						c3.895,1.155,7.396-1.046,8.579-4.815C211.88,209.782,209.154,209.149,208.617,210.86L208.617,210.86z"/>
				</g>
				<g>
					<path style="fill:#021A2D;" d="M227.439,209.367c2.706,2.768,6.209,3.128,9.867,2.51c1.902-0.322,1.631-1.768-0.254-1.45
						c-2.602,0.441-5.638-1.284-7.543-3.232C228.153,205.808,226.091,207.987,227.439,209.367L227.439,209.367z"/>
				</g>
				<path style="opacity:0.4;fill:#F48660;" d="M234.915,222.039c0.321,2.813-4.701,5.698-11.217,6.441
					c-6.516,0.744-12.058-0.935-12.379-3.749c-0.321-2.814,4.701-5.698,11.217-6.441
					C229.052,217.546,234.594,219.225,234.915,222.039z"/>
				<path style="fill:#FFFFFF;" d="M229.465,237.315l-0.333,0.607c0.333-0.607-1.001,7.243,1.499,7.818
					C233.132,246.315,231.223,239.274,229.465,237.315z"/>
				<path style="fill:#EF916C;" d="M230.235,234.901c0.041-1.289-1.12-1.116-1.063,0.167c0.152,3.423-3.623,4.614-3.835,0.985
					c-0.066-1.13-1.594-1.497-1.581-0.359c0.04,3.221-3.442,6.265-3.972,1.837c-0.217-1.814-0.17-3.697-0.205-5.523
					c-0.102-5.14-0.421-9.029-4.415-13.315c-0.88-0.944-1.534-0.244-0.766,0.77c6.12,8.078,0.42,14.819,4.153,21.387
					c1.837,3.232,4.522,0.978,5.506-1.67c0.523,0.99,1.388,1.638,2.817,1.585C229.904,240.652,230.171,236.904,230.235,234.901z"/>
			</g>
		</g>
		<g>
			<path style="fill:#FEB83E;" d="M186.333,219.773c0,0-12.79,4.106-15.229,26c-2.439,21.894-9.105,52.705-28.605,75.966
				C123,345,90.998,391.646,84.332,436.656c-6.666,45.011,20.001,63.342,20.001,63.342h128.471l-2.955-90.225L254,357l-15.619-50
				c0,0-4.473-26.199-29.26-51.433C198.333,243,176.913,235.441,190,225.212C189.666,221,186.333,219.773,186.333,219.773z"/>
			<path style="opacity:0.5;fill:#F66629;" d="M229.849,409.773L254,357l-15.619-50c0,0-0.034-6.1-6.549-18.94
				c-7.73,13.701-8.327,24.039-7.666,32.94c1.5,20.176,10.908,27.728-15.626,96.667c-15.837,41.148-4.861,68.237,2.638,82.331
				h21.626L229.849,409.773z"/>
			<path style="fill:#FEB83E;" d="M438,409.773c-14-10.227-11-18.773-12-56c-0.69-25.714-13.717-44.041-21.709-52.92
				c-2.064-2.113-4.104-4.122-6.101-6.02c-0.021-0.017-0.049-0.04-0.049-0.04c0.001-0.001,0.002-0.003,0.003-0.004
				c-7.706-7.321-14.767-13.001-20.2-16.779c-33.056-22.99-42.896-35.344-54.017-58.236c-10.011-20.607-19.199-21.651-19.199-21.651
				s-0.382,2.491-0.846,5.151c10.892,2.905,0.449,17.728-12.115,23.044c-41.231,17.317-61.435,60.683-59.936,80.859
				c1.499,20.176,13.167,29.157-13.367,98.097C191.931,474.213,227,500,227,500s130,0,209.333,0C466.666,450,452,420,438,409.773z"
				/>
			<g>
				<path style="opacity:0.3;fill:#F66629;" d="M285.948,362.773c2.097-3.838-54.6,44.228-60.774,57.561
					C231.666,419,272.229,387.88,285.948,362.773z"/>
				<path style="opacity:0.3;fill:#F66629;" d="M234.93,430.334c0,0,19.737-6.666,54.57-10C285,425,266.635,433.14,234.93,430.334z"
					/>
				<path style="opacity:0.3;fill:#F66629;" d="M229.068,443c0,0,40.626,11.333,84.946,0
					C310.333,450.334,256.469,468.333,229.068,443z"/>
				<path style="opacity:0.3;fill:#F66629;" d="M290.486,271.457c-7.189,7.024-24.186,14.5-33.4,50.06
					c-6.253,24.129-11.064,31.706-11.064,31.706s23.2-15.158,27.5-32.497C279.168,297.957,286.152,276.66,290.486,271.457z"/>
				<path style="opacity:0.3;fill:#F66629;" d="M294.222,298.773c-0.555,14.227,4.036,21.334,13.302,0
					c9.266-21.334,21.144-31.559,36.144-29.333c20.328,3.016,43.278,15.43,43.278,15.43l-0.002-0.003
					c-3.311-2.717-6.349-5.015-8.999-6.857c-33.056-22.99-42.896-35.344-54.017-58.236c0,0,5.072,17.542-9.914,38
					C301.043,275.479,294.776,284.547,294.222,298.773z"/>
				<path style="opacity:0.3;fill:#F66629;" d="M232.804,360.021C236.607,348.041,249.5,330,243,328.773
					c-6.5-1.227-11.168-21.597-11.168-21.597C232.913,321.722,239.276,330.452,232.804,360.021L232.804,360.021z"/>
				<path style="opacity:0.3;fill:#F66629;" d="M438,409.773c-14-10.227-11-18.773-12-56c-0.269-9.991-2.402-18.86-5.377-26.5l0,0
					c0,0-0.957,48.863-23.623,68.295c-22.666,19.432-36.667,38.766-37,44.099c-0.333,5.333,19-19.333,35.667-24
					c16.664-4.666,36.565-12.323,45.843-2.898C440.353,411.632,439.175,410.632,438,409.773z"/>
				<path style="opacity:0.3;fill:#F66629;" d="M395,425.621c0,0-14,7.118-26,23.915c-12,16.797-33.865,26.344-49.266,26.237
					c14.6,4.56,31.266,4.561,43.266-8.106C375,455,391,427.575,395,425.621z"/>
				<path style="opacity:0.3;fill:#F66629;" d="M453.245,436.177c-0.001,0-0.001-0.001-0.001-0.001s-6.911-7.698-24.911,19.896
					C410.333,483.667,395.667,500,363,500h73.333C452.814,472.832,456.009,451.572,453.245,436.177z"/>
			</g>
			<path style="opacity:0.3;fill:#F66629;" d="M226.619,355.333c-1.093-9.148-5.42-18.605-16.619-35.56
				c-13.018-19.709-25-36.754-28-41.764c1,15.657,12.902,32.136,19.618,42.229c6.716,10.094,19.876,42.048,20.785,63.606
				C228.638,372.739,227.532,362.973,226.619,355.333z"/>
			<path style="opacity:0.3;fill:#F66629;" d="M160,317.667c17.5-4.072,23,24.666,30.333,17.106
				c7.334-7.56-10.667-33.106-15.333-44.44c-4.667-11.334-5.1-32.56-5.1-32.56v-2.925c-3.213,20.803-10.467,46.692-27.4,66.891
				c-2.434,2.903-5.063,6.171-7.812,9.754c-0.352,1.31-0.562,2.105-0.562,2.105S142.5,321.739,160,317.667z"/>
			<path style="opacity:0.3;fill:#F66629;" d="M196.349,409.773c0,0-12.015-31.893-36.349-50
				C164.333,371,184.705,405.092,196.349,409.773z"/>
			<path style="opacity:0.3;fill:#F66629;" d="M186.914,421.773c0,0-7.361-10.893-34.028-12
				C156.22,416,178.942,422.214,186.914,421.773z"/>
			<path style="opacity:0.3;fill:#F66629;" d="M187.694,430.908c0,0-36.694,11.136-60.694,4.28
				C136.333,447,171.055,450.816,187.694,430.908z"/>
			<path style="opacity:0.3;fill:#F66629;" d="M84.332,436.656c0,0,10.669-7.251,21.335,10.88
				c10.666,18.131,39.205,35.104,72.507,31.017c7.492-0.886-4.765,12.396-33.303,4.088C140.333,485,167.802,500.002,192.068,500
				c-40.401,0-87.735,0-87.735,0S77.664,481.646,84.332,436.656z"/>
			<path style="opacity:0.3;fill:#F66629;" d="M395,359.773c0,0-5.999,19.696-28.666,37.795C375,397,396.333,381.214,395,359.773z"
				/>
		</g>
		<g id="HAIR">
			<g>
				<path style="fill:#013042;" d="M308.999,130.39c-0.39-0.765-0.798-1.495-1.223-2.179c-1.91-3.074-4.472-5.724-7.492-7.944
					c5.511-0.593,17.978-0.062,25.966,14.756c0.25-8.523-17.66-29.308-33.828-19.168c-8.646-3.642-19.101-4.768-28.913-3.171
					c-5.745-1.106-17.533-2.373-27.296,3.066c-5.963,3.25-10.104,11.904-1.283,18.202c4.07,1.298,3.677,0,3.677,0l1.06-1.285
					c0,0-12.772-17.002,17.173-18.437c-1.036,0.316-2.06,0.659-3.063,1.043c-19,7.273-8.5,18.765-8.5,18.765l49,30.285
					c20.913,14.224,22.843-12.151,16.707-29.287c0.419,1.031,11.642,22.214,3.851,32.464c-6.939,9.128-15.834,2.773-15.834,2.773
					s0,3.394,3,8c12,4.606,22.022-6.813,20.125-21.023C320.417,144.458,309.023,130.213,308.999,130.39z"/>
				<path style="opacity:0.3;fill:#021A2D;" d="M300.242,120.241c-0.855-0.627-1.745-1.221-2.671-1.778
					c1.597,4.872,4.228,15.125,0.728,21.65c-4.722,8.803-12.351,7.803-12.351,7.803l1.351,1.333
					C287.299,149.249,308.926,153.665,300.242,120.241z"/>
				<path style="opacity:0.3;fill:#021A2D;" d="M280.983,143.37c0,0,7.184-12.173,8.517-16.807
					c-4.667,2.7-12.354,14.147-12.354,14.147S277.8,144.144,280.983,143.37z"/>
				<path style="opacity:0.3;fill:#021A2D;" d="M302.281,121.851c1.815,4.71,4.479,14.274,0.908,23.559
					c-5,13-14.725,6.173-14.725,6.173l2.309,6.666c0,0,13.081,5.351,16.691-6.666c3.08-10.252,1.007-19.766-0.608-24.75
					C305.555,125.01,304.015,123.348,302.281,121.851z"/>
				<path style="opacity:0.3;fill:#021A2D;" d="M291,115.968c0.551-0.043,1.015-0.08,1.419-0.111
					c-2.406-1.015-4.95-1.835-7.585-2.454c-8.368,0.499-22.852,2.5-27.834,10.264c-7.167,11.167,5.167,14.864,5.167,14.864
					l4.333-0.967C266.5,137.564,251.833,118.269,291,115.968z"/>
				<path style="opacity:0.2;fill:#021A2D;" d="M313.175,143.273c-1.45,10.523-10.081,4.943-11.588,3.029
					c-0.002-0.003-0.793-0.781-0.792-0.778c-8.824-10.318-23.73-19.392-40.931-22.667c-9.686-1.844-14.604-0.734-17.026,1.27
					c-1.803,5.258,2.439,9.912,2.439,9.912l11.549,7.138c4.788,2.375,10.478,5.155,14.675,7.074
					c4.978,2.276,9.957,6.898,15.121,11.341l7.655,4.732c5.056,3.438,8.998,4.499,11.989,3.897
					C315.281,166.189,314.583,151.5,313.175,143.273z"/>
				<path style="opacity:0.2;fill:#021A2D;" d="M322.125,157.25c-0.144-1.075-0.36-2.16-0.628-3.246
					c-0.004,0.084-1.151,26.697-22.058,18.769c0.393,1.407,1.137,3.313,2.561,5.5C314,182.88,324.022,171.461,322.125,157.25z"/>
				<path style="opacity:0.3;fill:#021A2D;" d="M256.103,114.272c0.286-0.036,0.538-0.053,0.736-0.042c0,0-12.402-2.855-21.965,5.02
					c-2.671,2.2-4.257,10.238,2.908,15.274c0.98-0.034,0.824-0.572,0.824-0.572l1.06-1.285
					C239.667,132.667,227.116,115.952,256.103,114.272z"/>
				<path style="opacity:0.3;fill:#021A2D;" d="M297.571,118.463l2.671,1.778l0.049,0.026c5.514-0.592,17.974-0.055,25.959,14.757
					c0.069-2.359-1.258-5.659-3.551-8.982C312.263,114.678,297.571,118.463,297.571,118.463z"/>
			</g>
			<g>
				<path style="fill:#013042;" d="M245.5,203.273c0,0-1.5-5.773-4.25-9.773c4.026,4.065,9,5.5,12.25,5.273
					c-5.444-7.45-8.559-16.185-10.444-23.121C258.228,203.695,273,202.857,273,202.857c0.75-3.643,6.336-7.492,11.255-8.38
					c4.919-0.889,12.745,5.273,8.862,21.046c-3.883,15.773-15.806,13.374-15.806,13.374s0.367,1.768,0.925,4.461
					c4.228-2.645,8.732-5.025,13.531-7.041c0.819-0.347,1.629-0.736,2.425-1.157c0.083-0.129,0.168-0.258,0.25-0.387
					c4.948-6.944,7.986-14.388,9.509-21.894c0.308-1.782,0.57-3.43,0.696-4.236c3.081-24.143-8.938-48.096-24.147-57.435
					c-20.833-12.792-57.434-19.063-89.5,6.792c-10.739,8.659-16.983,20.396-18.812,32.77c-1.443,8.061-2.288,21.444,3.138,36.438
					c9.197,25.415,13.919,26.452,13.919,26.452s-3.129-7.804-5.417-19.2c2.681,3.923,5.337,7.007,7.614,9.314
					c-1.818-11.951-6.566-32.229-3.244-46.32c-0.469,9.449,0.962,19.541,4.793,25.787c0.977-5.795,3.342-12.251,3.342-12.251
					s1.489,8.063,3,8.454c5.667-6.585,10.333-21.419,12.077-31.939C218.465,198.333,245.5,203.273,245.5,203.273z"/>
				<path style="opacity:0.3;fill:#021A2D;" d="M277.146,197.578c0,0-8.543-6.958-14.095-18.268
					c6.698,7.19,15.415,13.772,19.432,15.606C280.478,195.672,277.146,197.578,277.146,197.578z"/>
				<path style="opacity:0.3;fill:#021A2D;" d="M188.198,187.453c0,0,1.802-15.203,11.302-24.453c-3,6.5-12.268,22.48-6.509,50.24
					C192.991,213.24,186.396,203.406,188.198,187.453z"/>
				<path style="opacity:0.3;fill:#021A2D;" d="M241.25,193.5c0,0-5.85-6.409-10.8-13.33c1.55,6.83,15.05,23.103,15.05,23.103
					S244.166,198.25,241.25,193.5z"/>
				<path style="fill:#021A2D;" d="M291.462,197.602c1.659,2.154,2.523,5.242,2.715,8.664c1.07-3.279,6.658-22.977-6.868-41.016
					C288.2,167.618,293.796,177.883,291.462,197.602z"/>
			</g>
		</g>
		<g>
			<path style="fill:#FFFFFF;" d="M189.019,187.357c-1.854,2.092,1.26,19.455,4.067,20.73c2.807,1.276,54.734-6.118,56.097-8.777
				c2.516-4.911-1.372-20.204-3.64-21.675C243.546,176.34,191.151,184.95,189.019,187.357z"/>
			<path style="fill:#DAEAEF;" d="M242.526,179.852c1.714,1.334,5,14.255,2.984,18.391c-0.975,0.78-8.938,2.645-24.311,4.942
				c-12.574,1.88-23.628,3.048-25.163,2.663c-0.49-0.223-1.652-2.354-2.684-7.121c-1.196-5.524-1.222-9.727-0.736-10.286
				C194.793,186.626,238.819,179.057,242.526,179.852 M242.755,179.112c-3.32-0.836-48.812,6.67-50.695,8.796
				c-1.667,1.881,1.133,17.496,3.657,18.643c0.034,0.016,0.077,0.03,0.128,0.043c3.664,0.923,49.11-5.578,50.32-7.936
				c2.263-4.417-1.235-18.169-3.274-19.492C242.86,179.145,242.813,179.127,242.755,179.112L242.755,179.112z"/>
		</g>
		<g>
			<g style="opacity:0.2;">
				<path style="opacity:0.6;fill:#021A2D;" d="M178.56,146.05c0,0,14.112,29.503,0,29.503
					C164.448,175.553,178.56,146.05,178.56,146.05z"/>
				<path style="opacity:0.6;fill:#021A2D;" d="M158.935,172.08c0,0,9.788,20.461,0,20.461
					C149.148,192.541,158.935,172.08,158.935,172.08z"/>
			</g>
			<g>
				<path style="fill:#FFFFFF;" d="M176.56,143.05c0,0,14.112,29.503,0,29.503C162.448,172.553,176.56,143.05,176.56,143.05z"/>
				<path style="fill:#FFFFFF;" d="M156.935,169.08c0,0,9.788,20.461,0,20.461C147.148,189.541,156.935,169.08,156.935,169.08z"/>
			</g>
		</g>
	</g>
	<g id="TEMPERATURE">
		<path style="opacity:0.2;fill:#017568;" d="M342.146,173.833c-5.859,0-10.609,4.75-10.609,10.608v51.739
			c-3.664,3.046-6,7.637-6,12.776c0,9.173,7.436,16.608,16.609,16.608c9.172,0,16.607-7.436,16.607-16.608
			c0-5.139-2.334-9.73-6-12.776v-51.739C352.754,178.583,348.006,173.833,342.146,173.833L342.146,173.833z"/>
		<path style="fill:#FFFFFF;" d="M349.584,233.01v-51.739c0-5.859-4.749-10.608-10.608-10.608s-10.608,4.749-10.608,10.608v51.739
			c-3.665,3.046-6,7.637-6,12.776c0,9.173,7.436,16.608,16.608,16.608c9.173,0,16.608-7.436,16.608-16.608
			C355.584,240.648,353.249,236.057,349.584,233.01z"/>
		<path style="fill:#FCBE86;" d="M328.367,201.737v31.273c-3.665,3.046-6,7.637-6,12.776c0,9.173,7.436,16.608,16.608,16.608
			c9.173,0,16.608-7.436,16.608-16.608c0-5.139-2.335-9.73-6-12.776v-31.273H328.367z"/>
		<path style="opacity:0.4;fill:#F48660;" d="M350.443,247.592c-12.557,7.342-22.936,0-22.936,0l-4.583,2.397
			c0.006,0.022,0.011,0.044,0.017,0.066c0.351,0.582,4.769,7.906,5.416,8.497c0.007,0.007,0.014,0.014,0.022,0.021
			c0.33,0.271,3.107,1.692,6.085,3.185c1.436,0.405,2.945,0.637,4.512,0.637c3.064,0,5.923-0.844,8.387-2.29
			C350.581,256.135,353.554,250.899,350.443,247.592z"/>
		<rect x="328.367" y="190.186" style="fill:#EC4C35;" width="21.217" height="11.552"/>
		<path style="fill:#FFFFFF;" d="M338.976,175.663c3.092,0,5.608,2.516,5.608,5.608v51.739v2.346l1.804,1.499
			c2.667,2.216,4.196,5.472,4.196,8.931c0,6.401-5.208,11.608-11.608,11.608c-6.4,0-11.608-5.207-11.608-11.608
			c0-3.459,1.529-6.715,4.196-8.931l1.804-1.499v-2.346v-51.739C333.367,178.179,335.884,175.663,338.976,175.663 M338.976,170.663
			c-5.859,0-10.608,4.749-10.608,10.608v51.739c-3.665,3.046-6,7.637-6,12.776c0,9.173,7.436,16.608,16.608,16.608
			c9.173,0,16.608-7.436,16.608-16.608c0-5.139-2.335-9.73-6-12.776v-51.739C349.584,175.413,344.835,170.663,338.976,170.663
			L338.976,170.663z"/>
	</g>
</g>
</svg>
