<?xml version="1.0" encoding="utf-8"?>
<!-- Generator: Adobe Illustrator 27.5.0, SVG Export Plug-In . SVG Version: 6.00 Build 0)  -->
<svg version="1.1" xmlns="http://www.w3.org/2000/svg" xmlns:xlink="http://www.w3.org/1999/xlink" x="0px" y="0px"
	 viewBox="0 0 500 500" style="enable-background:new 0 0 500 500;" xml:space="preserve">
<g id="Background_Complete">
	<g>
		<path style="fill:#E0E0E0;" d="M62.152,266.411c0.089-0.021,0.041,0.724,0.718,1.793c0.351,0.512,0.912,1.084,1.746,1.428
			c0.821,0.353,1.915,0.405,3.009-0.01c1.079-0.397,2.157-1.28,2.686-2.579c0.553-1.271,0.462-2.929-0.297-4.382
			c-0.748-1.438-2.209-2.677-4.025-3.007c-1.782-0.344-3.892,0.174-5.493,1.443c-1.604,1.266-2.75,3.321-2.758,5.562
			c-0.018,2.242,0.86,4.615,2.565,6.349c1.68,1.747,4.16,2.834,6.74,2.757c2.594-0.084,5.274-1.054,7.307-2.922
			c2.047-1.832,3.455-4.478,3.74-7.337c0.266-2.846-0.428-5.93-1.971-8.484c-1.579-2.558-4.115-4.537-7.069-5.513
			c-2.96-0.952-6.286-0.918-9.386-0.07c-1.554,0.425-2.995,1.132-4.321,1.983c-1.304,0.892-2.426,2.005-3.382,3.233
			c-0.929,1.255-1.629,2.651-2.178,4.093c-0.463,1.472-0.845,2.972-0.938,4.504c-0.284,3.058,0.139,6.121,1.29,8.792
			c1.178,2.672,3.086,4.934,5.343,6.588c4.585,3.287,10.349,4.123,15.268,3.216c1.255-0.136,2.399-0.621,3.554-0.98
			c0.555-0.238,1.081-0.53,1.616-0.787c0.265-0.135,0.534-0.258,0.792-0.4l0.724-0.499c2.007-1.218,3.513-2.94,4.856-4.6
			c2.504-3.509,3.635-7.4,3.828-10.815c0.027-0.429,0.053-0.851,0.079-1.265c-0.013-0.414-0.053-0.82-0.077-1.219
			c-0.072-0.796-0.054-1.574-0.247-2.292c-0.145-0.725-0.285-1.419-0.417-2.081c-0.216-0.64-0.421-1.249-0.615-1.826
			c-0.33-1.181-0.904-2.114-1.291-2.973c-0.373-0.871-0.835-1.524-1.182-2.07c-0.692-1.092-1.039-1.687-0.996-1.72
			c0.042-0.033,0.472,0.496,1.258,1.544c0.393,0.524,0.903,1.16,1.328,2.024c0.439,0.851,1.066,1.783,1.452,2.979
			c0.221,0.587,0.454,1.206,0.698,1.856c0.159,0.679,0.325,1.39,0.499,2.133c0.219,0.738,0.227,1.543,0.322,2.367
			c0.036,0.414,0.087,0.836,0.111,1.266c-0.016,0.432-0.032,0.871-0.049,1.318c-0.117,3.563-1.215,7.67-3.803,11.418
			c-1.386,1.78-2.963,3.625-5.083,4.957l-0.767,0.54c-0.273,0.155-0.558,0.292-0.839,0.44c-0.568,0.283-1.129,0.6-1.72,0.862
			c-1.229,0.406-2.455,0.93-3.796,1.097c-2.634,0.534-5.427,0.537-8.243,0.042c-2.807-0.51-5.618-1.611-8.102-3.366
			c-2.459-1.774-4.561-4.231-5.865-7.152c-1.283-2.945-1.743-6.256-1.45-9.523c0.098-1.648,0.5-3.283,1.007-4.889
			c0.593-1.581,1.362-3.119,2.389-4.51c1.055-1.364,2.303-2.602,3.752-3.594c1.469-0.95,3.068-1.728,4.773-2.195
			c3.385-0.925,6.991-0.967,10.295,0.097c3.284,1.085,6.135,3.319,7.889,6.189c1.72,2.897,2.459,6.209,2.151,9.443
			c-0.339,3.235-1.95,6.211-4.266,8.255c-2.305,2.083-5.318,3.154-8.237,3.22c-2.971,0.062-5.81-1.22-7.702-3.234
			c-1.925-2.008-2.891-4.702-2.835-7.272c0.046-2.617,1.415-4.984,3.287-6.408c1.892-1.43,4.25-1.983,6.368-1.543
			c2.125,0.433,3.785,1.911,4.605,3.587c0.83,1.678,0.889,3.594,0.2,5.074c-0.661,1.489-1.931,2.454-3.169,2.856
			c-1.241,0.42-2.494,0.306-3.398-0.14c-0.916-0.435-1.492-1.106-1.826-1.687c-0.325-0.596-0.437-1.105-0.466-1.444
			C62.106,266.585,62.129,266.412,62.152,266.411z"/>
	</g>
	<path style="fill:#EBEBEB;" d="M313.701,226.013l1.592,2.911c0.679,1.242,1.7,2.262,2.941,2.941l2.911,1.592l-2.911,1.592
		c-1.242,0.679-2.262,1.7-2.941,2.942l-1.592,2.911l-1.592-2.911c-0.679-1.242-1.7-2.262-2.941-2.942l-2.911-1.592l2.911-1.592
		c1.242-0.679,2.262-1.7,2.941-2.941L313.701,226.013z"/>
	<path style="fill:#EBEBEB;" d="M49.937,159.237l1.62,2.963c0.691,1.264,1.73,2.303,2.994,2.994l2.963,1.62l-2.963,1.62
		c-1.264,0.691-2.303,1.73-2.994,2.994l-1.62,2.963l-1.62-2.963c-0.691-1.264-1.73-2.303-2.994-2.994l-2.963-1.62l2.963-1.62
		c1.264-0.691,2.303-1.73,2.994-2.994L49.937,159.237z"/>
	<path style="fill:#EBEBEB;" d="M370.357,80.527l0.983,1.798c0.419,0.767,1.05,1.398,1.817,1.817l1.798,0.983l-1.798,0.983
		c-0.767,0.419-1.398,1.05-1.817,1.817l-0.983,1.798l-0.983-1.798c-0.42-0.767-1.05-1.398-1.817-1.817l-1.798-0.983l1.798-0.983
		c0.767-0.42,1.398-1.05,1.817-1.817L370.357,80.527z"/>
	<path style="fill:#EBEBEB;" d="M117.205,34.154l0.81,1.481c0.346,0.632,0.865,1.151,1.497,1.497l1.481,0.81l-1.481,0.81
		c-0.632,0.346-1.151,0.865-1.497,1.497l-0.81,1.481l-0.81-1.481c-0.346-0.632-0.865-1.151-1.497-1.497l-1.481-0.81l1.481-0.81
		c0.632-0.346,1.151-0.865,1.497-1.497L117.205,34.154z"/>
	<g>
		<g>
			
				<ellipse transform="matrix(0.2346 -0.9721 0.9721 0.2346 181.5434 517.7741)" style="fill:#FFFFFF;" cx="419.562" cy="143.606" rx="48.129" ry="48.129"/>
			<g>
				<path style="fill:#E0E0E0;" d="M467.691,143.606c0,0-0.031-0.264-0.066-0.779c-0.033-0.53-0.08-1.292-0.141-2.285
					c-0.029-0.503-0.062-1.065-0.098-1.683c-0.064-0.616-0.195-1.284-0.302-2.011c-0.115-0.726-0.238-1.508-0.37-2.343
					c-0.099-0.842-0.411-1.697-0.627-2.625c-0.844-3.72-2.582-8.116-5.325-12.777c-2.765-4.641-6.756-9.49-12.193-13.607
					c-0.683-0.509-1.374-1.024-2.072-1.545c-0.728-0.478-1.495-0.915-2.254-1.382c-0.774-0.44-1.507-0.976-2.338-1.352
					c-0.821-0.394-1.65-0.792-2.488-1.194c-0.42-0.199-0.842-0.399-1.265-0.6c-0.441-0.161-0.884-0.322-1.329-0.484
					c-0.89-0.325-1.789-0.652-2.697-0.983c-0.916-0.303-1.875-0.498-2.823-0.756c-0.958-0.217-1.9-0.555-2.9-0.657
					c-1.981-0.281-3.983-0.69-6.057-0.702c-1.033-0.036-2.074-0.137-3.123-0.121c-1.049,0.054-2.105,0.108-3.17,0.163
					c-0.531,0.037-1.069,0.033-1.6,0.104c-0.531,0.082-1.063,0.163-1.597,0.245c-1.066,0.176-2.15,0.301-3.222,0.523
					c-2.114,0.575-4.304,1.004-6.386,1.873l-1.589,0.583c-0.264,0.1-0.534,0.189-0.796,0.298l-0.768,0.371
					c-1.025,0.495-2.056,0.992-3.094,1.493c-1.011,0.548-1.981,1.187-2.982,1.781c-0.49,0.314-1.013,0.581-1.48,0.935l-1.41,1.056
					c-1.947,1.336-3.649,3.007-5.432,4.616c-0.807,0.889-1.619,1.783-2.434,2.68l-0.612,0.674l-0.55,0.728l-1.096,1.467
					l-1.101,1.473l-0.964,1.575l-0.963,1.585l-0.483,0.795c-0.145,0.274-0.272,0.558-0.409,0.837
					c-0.54,1.121-1.082,2.246-1.626,3.376c-0.431,1.177-0.865,2.359-1.299,3.546c-1.561,4.805-2.402,9.909-2.471,15.103
					c0.068,5.196,0.907,10.301,2.468,15.109c0.434,1.187,0.867,2.369,1.299,3.547c0.544,1.13,1.086,2.256,1.626,3.377l0.409,0.838
					l0.483,0.795l0.963,1.586l0.964,1.576l1.101,1.474l1.096,1.467l0.55,0.728l0.612,0.674c0.815,0.898,1.627,1.792,2.434,2.681
					c1.783,1.61,3.485,3.281,5.432,4.617l1.41,1.056c0.467,0.354,0.99,0.621,1.48,0.935c1.001,0.594,1.971,1.233,2.982,1.781
					c1.037,0.501,2.069,0.998,3.094,1.493l0.768,0.371c0.262,0.109,0.531,0.198,0.796,0.298l1.589,0.583
					c2.082,0.87,4.273,1.299,6.387,1.873c1.072,0.222,2.156,0.346,3.223,0.523c0.534,0.082,1.067,0.164,1.597,0.245
					c0.532,0.07,1.069,0.067,1.6,0.103c1.065,0.055,2.121,0.109,3.17,0.163c1.049,0.016,2.09-0.085,3.123-0.121
					c2.075-0.012,4.077-0.421,6.058-0.702c0.999-0.102,1.942-0.44,2.9-0.657c0.948-0.258,1.907-0.453,2.823-0.757
					c0.907-0.331,1.806-0.659,2.697-0.983c0.445-0.162,0.888-0.324,1.329-0.484c0.424-0.201,0.846-0.401,1.265-0.6
					c0.838-0.402,1.667-0.8,2.488-1.194c0.83-0.377,1.564-0.912,2.337-1.352c0.758-0.468,1.526-0.905,2.253-1.383
					c0.699-0.521,1.39-1.036,2.072-1.545c5.437-4.117,9.427-8.967,12.191-13.607c2.742-4.661,4.479-9.056,5.323-12.776
					c0.216-0.928,0.528-1.783,0.627-2.625c0.132-0.835,0.255-1.617,0.37-2.343c0.107-0.727,0.238-1.394,0.302-2.011
					c0.036-0.618,0.068-1.179,0.098-1.683c0.061-0.993,0.108-1.754,0.141-2.285C467.66,143.87,467.691,143.606,467.691,143.606
					s0.005,0.264-0.013,0.78c-0.021,0.532-0.051,1.295-0.09,2.29c-0.022,0.505-0.046,1.068-0.073,1.689
					c-0.056,0.619-0.179,1.29-0.278,2.02c-0.108,0.73-0.224,1.516-0.347,2.355c-0.092,0.847-0.397,1.707-0.606,2.641
					c-0.818,3.742-2.535,8.172-5.27,12.875c-2.757,4.683-6.754,9.584-12.218,13.751c-0.686,0.515-1.381,1.036-2.084,1.563
					c-0.732,0.484-1.503,0.927-2.267,1.401c-0.779,0.447-1.517,0.988-2.353,1.371c-0.827,0.4-1.662,0.803-2.505,1.211
					c-0.423,0.202-0.848,0.405-1.275,0.609c-0.444,0.163-0.891,0.327-1.339,0.492c-0.897,0.33-1.803,0.663-2.718,0.999
					c-0.923,0.309-1.89,0.508-2.846,0.771c-0.966,0.222-1.917,0.564-2.924,0.67c-1.998,0.289-4.018,0.705-6.112,0.722
					c-1.042,0.039-2.093,0.142-3.152,0.128c-1.059-0.052-2.126-0.105-3.2-0.158c-0.536-0.036-1.079-0.032-1.616-0.102
					c-0.536-0.081-1.074-0.163-1.613-0.244c-1.077-0.176-2.172-0.301-3.255-0.523c-2.136-0.576-4.349-1.007-6.454-1.882
					l-1.606-0.587c-0.267-0.101-0.54-0.191-0.804-0.301l-0.776-0.373c-1.036-0.499-2.079-1-3.128-1.504
					c-1.022-0.553-2.003-1.196-3.015-1.796c-0.496-0.316-1.024-0.586-1.496-0.943l-1.426-1.065c-1.968-1.349-3.691-3.034-5.493-4.66
					c-0.817-0.898-1.638-1.8-2.462-2.707l-0.619-0.681l-0.556-0.735l-1.109-1.482l-1.114-1.489l-0.976-1.592l-0.974-1.602
					l-0.488-0.804l-0.414-0.846c-0.546-1.133-1.095-2.271-1.645-3.413c-0.436-1.19-0.875-2.385-1.315-3.585
					c-1.58-4.859-2.428-10.021-2.497-15.272c0.069-5.249,0.92-10.41,2.5-15.266c0.44-1.199,0.878-2.393,1.315-3.583
					c0.55-1.142,1.099-2.279,1.645-3.412c0.139-0.282,0.268-0.569,0.414-0.846l0.488-0.804l0.974-1.602l0.976-1.591l1.114-1.488
					l1.109-1.481l0.557-0.735l0.619-0.681c0.824-0.906,1.645-1.808,2.462-2.706c1.802-1.625,3.525-3.311,5.492-4.659l1.426-1.064
					c0.472-0.357,1.001-0.627,1.496-0.943c1.012-0.599,1.993-1.243,3.015-1.795c1.048-0.504,2.091-1.006,3.127-1.504l0.776-0.373
					c0.264-0.11,0.537-0.2,0.804-0.3l1.605-0.587c2.105-0.874,4.317-1.306,6.453-1.881c1.083-0.222,2.178-0.347,3.254-0.523
					c0.54-0.082,1.077-0.163,1.613-0.244c0.537-0.07,1.079-0.066,1.616-0.102c1.075-0.053,2.141-0.106,3.2-0.158
					c1.059-0.014,2.109,0.089,3.151,0.128c2.093,0.017,4.113,0.433,6.111,0.722c1.008,0.106,1.958,0.448,2.924,0.67
					c0.956,0.263,1.922,0.463,2.846,0.77c0.914,0.336,1.82,0.669,2.718,0.999c0.449,0.165,0.895,0.329,1.339,0.492
					c0.427,0.204,0.852,0.407,1.275,0.609c0.844,0.408,1.679,0.812,2.505,1.211c0.836,0.382,1.574,0.924,2.353,1.37
					c0.763,0.474,1.534,0.917,2.267,1.401c0.703,0.527,1.397,1.048,2.084,1.563c5.464,4.167,9.462,9.068,12.22,13.751
					c2.736,4.703,4.453,9.133,5.271,12.876c0.209,0.934,0.514,1.794,0.606,2.641c0.124,0.84,0.24,1.625,0.347,2.356
					c0.1,0.73,0.223,1.401,0.279,2.02c0.027,0.62,0.051,1.184,0.073,1.689c0.039,0.996,0.069,1.759,0.09,2.291
					C467.696,143.342,467.691,143.606,467.691,143.606z"/>
			</g>
		</g>
		<g>
			<path style="fill:#FFFFFF;" d="M381.635,189.804c0,3.689-2.99,6.679-6.679,6.679c-3.689,0-6.68-2.99-6.68-6.679
				s2.99-6.68,6.68-6.68C378.644,183.124,381.635,186.115,381.635,189.804z"/>
			<g>
				<path style="fill:#E0E0E0;" d="M381.635,189.804c-0.057,0.003-0.033-0.595-0.307-1.606c-0.271-0.992-0.948-2.442-2.443-3.557
					c-1.445-1.118-3.823-1.742-6.123-0.885c-1.133,0.41-2.213,1.183-2.98,2.251c-0.789,1.053-1.232,2.404-1.246,3.796
					c0.013,1.393,0.456,2.744,1.245,3.798c0.767,1.068,1.847,1.841,2.98,2.251c2.301,0.858,4.679,0.232,6.124-0.885
					c1.495-1.115,2.172-2.565,2.442-3.557C381.601,190.399,381.578,189.801,381.635,189.804c0.018,0,0.028,0.147,0.031,0.429
					c0.008,0.282-0.025,0.701-0.141,1.226c-0.218,1.036-0.866,2.583-2.416,3.8c-0.767,0.595-1.745,1.105-2.881,1.318
					c-1.128,0.206-2.406,0.181-3.63-0.274c-1.223-0.429-2.394-1.253-3.228-2.4c-0.857-1.132-1.343-2.595-1.355-4.1
					c0.013-1.504,0.499-2.966,1.355-4.098c0.834-1.147,2.004-1.971,3.227-2.4c2.484-0.896,5.014-0.176,6.51,1.043
					c1.549,1.217,2.198,2.764,2.416,3.8c0.116,0.525,0.15,0.945,0.142,1.227C381.663,189.657,381.653,189.804,381.635,189.804z"/>
			</g>
		</g>
		<g>
			<path style="fill:#E0E0E0;" d="M424.883,144.606c-0.09,0.023-0.051-0.749-0.768-1.844c-0.371-0.524-0.962-1.108-1.831-1.451
				c-0.856-0.352-1.991-0.388-3.118,0.059c-1.112,0.429-2.214,1.362-2.741,2.718c-0.552,1.327-0.429,3.044,0.381,4.537
				c0.8,1.478,2.335,2.737,4.223,3.049c1.854,0.327,4.031-0.247,5.669-1.589c1.641-1.34,2.795-3.489,2.763-5.812
				c-0.019-2.324-0.97-4.767-2.767-6.535c-1.771-1.782-4.36-2.865-7.033-2.741c-2.685,0.133-5.445,1.184-7.519,3.154
				c-2.089,1.934-3.501,4.699-3.746,7.667c-0.224,2.954,0.546,6.134,2.19,8.753c1.679,2.623,4.343,4.627,7.42,5.586
				c3.082,0.935,6.526,0.841,9.72-0.093c1.603-0.465,3.081-1.225,4.439-2.13c1.336-0.946,2.476-2.12,3.445-3.409
				c0.942-1.315,1.638-2.775,2.183-4.277c0.454-1.532,0.819-3.092,0.891-4.679c0.241-3.17-0.254-6.333-1.492-9.079
				c-1.271-2.743-3.283-5.055-5.652-6.724c-2.392-1.65-5.104-2.689-7.831-3.16c-2.726-0.48-5.487-0.385-8.038,0.056
				c-5.137,0.986-9.26,4.155-11.802,7.77c-2.559,3.656-3.672,7.71-3.809,11.252c-0.131,3.561,0.581,6.624,1.483,8.969
				c0.905,2.357,1.925,4.057,2.645,5.181c0.74,1.113,1.148,1.693,1.1,1.731c-0.035,0.029-0.526-0.484-1.358-1.551
				c-0.811-1.079-1.935-2.754-2.951-5.136c-1.012-2.369-1.843-5.512-1.791-9.222c0.059-3.688,1.136-7.958,3.775-11.855
				c1.329-1.926,3.036-3.755,5.143-5.231c1.041-0.757,2.205-1.376,3.419-1.937c1.229-0.533,2.534-0.946,3.891-1.243
				c2.727-0.501,5.601-0.624,8.522-0.141c2.908,0.477,5.83,1.565,8.426,3.333c2.573,1.785,4.782,4.288,6.184,7.279
				c1.375,3.017,1.911,6.428,1.665,9.807c-0.074,1.704-0.458,3.398-0.953,5.066c-0.588,1.642-1.349,3.245-2.388,4.697
				c-1.065,1.426-2.329,2.728-3.808,3.776c-1.499,1.006-3.135,1.841-4.887,2.35c-3.479,1.016-7.201,1.122-10.629,0.082
				c-3.408-1.062-6.391-3.315-8.251-6.247c-1.827-2.959-2.647-6.367-2.386-9.709c0.292-3.344,1.902-6.444,4.256-8.593
				c2.342-2.19,5.434-3.348,8.444-3.468c3.064-0.117,6.015,1.156,8.003,3.201c2.021,2.038,3.065,4.801,3.053,7.453
				c-0.001,2.7-1.371,5.165-3.277,6.668c-1.926,1.509-4.35,2.12-6.542,1.703c-2.199-0.41-3.938-1.904-4.814-3.619
				c-0.886-1.716-0.98-3.693-0.296-5.23c0.656-1.548,1.949-2.566,3.219-3.002c1.274-0.455,2.568-0.36,3.509,0.084
				c0.953,0.432,1.559,1.115,1.915,1.709c0.346,0.609,0.471,1.133,0.509,1.482C424.925,144.425,424.905,144.605,424.883,144.606z"/>
		</g>
	</g>
	<g>
		<path style="fill:#E0E0E0;" d="M308.826,44.576c-0.08-0.016,0.156-0.532-0.023-1.468c-0.104-0.456-0.337-1.012-0.822-1.483
			c-0.472-0.473-1.215-0.814-2.092-0.833c-0.86-0.027-1.853,0.284-2.58,1.033c-0.736,0.72-1.137,1.891-1.021,3.109
			c0.114,1.203,0.774,2.467,1.931,3.202c1.126,0.735,2.737,0.974,4.197,0.548c1.464-0.423,2.832-1.517,3.466-3.057
			c0.645-1.544,0.709-3.435,0.021-5.114c-0.668-1.683-2.072-3.132-3.874-3.808c-1.821-0.677-3.954-0.766-5.892-0.05
			c-1.938,0.688-3.664,2.12-4.672,4.018c-0.992,1.892-1.392,4.243-1.049,6.45c0.367,2.222,1.56,4.314,3.331,5.834
			c1.781,1.504,4.108,2.434,6.509,2.731c1.202,0.149,2.404,0.069,3.567-0.143c1.16-0.247,2.255-0.699,3.27-1.277
			c1.003-0.606,1.889-1.375,2.684-2.222c0.744-0.892,1.44-1.826,1.945-2.868c1.078-2.054,1.662-4.311,1.627-6.495
			c-0.054-2.196-0.731-4.317-1.828-6.117c-2.247-3.607-6.033-5.857-9.733-6.644c-0.915-0.267-1.852-0.258-2.762-0.342
			c-0.456,0.006-0.907,0.058-1.355,0.083l-0.668,0.05l-0.65,0.139c-1.753,0.27-3.303,1.038-4.724,1.809
			c-2.767,1.728-4.689,4.122-5.818,6.457c-0.144,0.293-0.285,0.58-0.424,0.863c-0.112,0.294-0.202,0.59-0.301,0.876
			c-0.181,0.578-0.422,1.119-0.496,1.678c-0.11,0.55-0.215,1.078-0.316,1.581c-0.036,0.512-0.071,0.999-0.104,1.461
			c-0.116,0.926,0.013,1.749,0.031,2.466c0.004,0.722,0.135,1.317,0.215,1.803c0.16,0.973,0.22,1.497,0.168,1.511
			c-0.052,0.015-0.214-0.481-0.476-1.448c-0.131-0.484-0.313-1.081-0.368-1.816c-0.069-0.73-0.247-1.573-0.177-2.533
			c0.012-0.481,0.025-0.988,0.038-1.52c0.083-0.529,0.17-1.082,0.261-1.66c0.057-0.588,0.284-1.162,0.455-1.777
			c0.094-0.305,0.18-0.619,0.288-0.933c0.136-0.302,0.275-0.61,0.416-0.924c1.115-2.501,3.089-5.107,6.025-7.024
			c1.505-0.866,3.168-1.721,5.068-2.053l0.705-0.161c0.24-0.031,0.484-0.046,0.727-0.069c0.488-0.037,0.981-0.099,1.479-0.112
			c0.996,0.069,2.024,0.054,3.031,0.326c4.01,0.8,8.141,3.161,10.689,7.153c1.238,1.989,2.021,4.363,2.096,6.838
			c0.053,2.488-0.591,4.988-1.757,7.232c-0.553,1.148-1.32,2.199-2.155,3.198c-0.889,0.957-1.892,1.832-3.038,2.526
			c-1.158,0.667-2.418,1.187-3.749,1.471c-1.333,0.249-2.709,0.335-4.066,0.167c-2.694-0.334-5.282-1.363-7.339-3.101
			c-2.035-1.747-3.422-4.193-3.832-6.771c-0.377-2.59,0.068-5.17,1.247-7.405c1.201-2.224,3.24-3.885,5.508-4.666
			c2.272-0.813,4.751-0.69,6.866,0.127c2.158,0.838,3.82,2.604,4.583,4.616c0.787,2.017,0.683,4.238-0.122,6.071
			c-0.814,1.874-2.505,3.172-4.277,3.639c-1.79,0.465-3.644,0.163-5.044-0.788c-1.404-0.948-2.158-2.509-2.248-3.959
			c-0.097-1.453,0.434-2.851,1.374-3.712c0.923-0.874,2.124-1.187,3.132-1.105c1.015,0.07,1.881,0.528,2.394,1.119
			c0.525,0.587,0.734,1.239,0.797,1.754c0.051,0.522-0.025,0.917-0.108,1.165C308.921,44.47,308.849,44.584,308.826,44.576z"/>
	</g>
	<g>
		<path style="fill:#E0E0E0;" d="M70.602,73.812c-0.075,0.031-0.164-0.506-0.806-1.155c-0.326-0.307-0.808-0.624-1.443-0.74
			c-0.627-0.124-1.397,0.001-2.104,0.452c-0.697,0.436-1.32,1.211-1.499,2.191c-0.201,0.962,0.102,2.104,0.842,3.01
			c0.729,0.894,1.925,1.547,3.233,1.516c1.283-0.014,2.69-0.681,3.622-1.794c0.938-1.113,1.442-2.708,1.128-4.267
			c-0.307-1.568-1.261-3.105-2.7-4.073c-1.424-0.982-3.309-1.387-5.099-0.967c-1.807,0.43-3.549,1.492-4.708,3.091
			c-1.175,1.577-1.785,3.631-1.578,5.674c0.217,2.03,1.148,4.114,2.594,5.685c1.473,1.572,3.531,2.6,5.747,2.868
			c2.215,0.25,4.561-0.248,6.628-1.288c1.036-0.52,1.949-1.223,2.761-2.009c0.791-0.813,1.422-1.754,1.921-2.753
			c0.476-1.015,0.772-2.098,0.955-3.193c0.118-1.105,0.175-2.219,0.023-3.316c-0.234-2.209-0.97-4.315-2.158-6.033
			c-1.209-1.718-2.876-3.046-4.706-3.896c-3.705-1.676-7.917-1.455-11.282-0.114c-0.871,0.273-1.612,0.779-2.381,1.196
			c-0.36,0.247-0.691,0.529-1.035,0.787l-0.506,0.395l-0.443,0.456c-1.253,1.147-2.079,2.583-2.8,3.953
			c-1.285,2.848-1.544,5.778-1.202,8.24c0.041,0.31,0.081,0.614,0.121,0.913c0.067,0.293,0.153,0.577,0.226,0.859
			c0.163,0.557,0.259,1.117,0.497,1.601c0.205,0.497,0.401,0.974,0.589,1.429c0.243,0.427,0.475,0.834,0.694,1.22
			c0.4,0.8,0.94,1.388,1.336,1.951c0.387,0.574,0.808,0.979,1.13,1.325c0.644,0.692,0.97,1.08,0.935,1.121s-0.429-0.266-1.156-0.897
			c-0.363-0.315-0.828-0.694-1.264-1.251c-0.445-0.545-1.037-1.122-1.495-1.925c-0.247-0.39-0.508-0.802-0.781-1.233
			c-0.216-0.466-0.442-0.954-0.679-1.464c-0.268-0.5-0.394-1.079-0.586-1.661c-0.087-0.293-0.187-0.59-0.268-0.898
			c-0.053-0.314-0.106-0.634-0.161-0.959c-0.445-2.592-0.261-5.727,1.059-8.826c0.74-1.495,1.611-3.066,2.951-4.347l0.477-0.505
			l0.544-0.444c0.37-0.29,0.731-0.603,1.122-0.88c0.832-0.477,1.646-1.039,2.595-1.359c3.63-1.502,8.19-1.824,12.359,0.006
			c2.052,0.928,3.947,2.408,5.329,4.346c1.372,1.961,2.192,4.303,2.459,6.718c0.171,1.213,0.119,2.462-0.014,3.708
			c-0.2,1.24-0.534,2.476-1.079,3.644c-0.569,1.152-1.299,2.241-2.212,3.18c-0.933,0.911-1.987,1.715-3.162,2.306
			c-2.332,1.172-4.95,1.732-7.524,1.441c-2.561-0.31-4.979-1.525-6.684-3.368c-1.686-1.871-2.708-4.171-2.959-6.589
			c-0.228-2.422,0.516-4.841,1.913-6.677c1.383-1.864,3.433-3.092,5.562-3.568c2.176-0.483,4.451,0.042,6.137,1.244
			c1.708,1.193,2.812,3.027,3.147,4.924c0.35,1.936-0.31,3.88-1.479,5.201c-1.185,1.329-2.83,2.078-4.461,2.065
			c-1.632-0.009-3.069-0.856-3.917-1.969c-0.854-1.112-1.176-2.514-0.883-3.707c0.272-1.193,1.067-2.086,1.918-2.558
			c0.85-0.486,1.788-0.581,2.515-0.382c0.734,0.189,1.249,0.6,1.572,0.979c0.319,0.39,0.468,0.747,0.533,0.99
			C70.623,73.676,70.625,73.806,70.602,73.812z"/>
	</g>
	<g>
		<g>
			<g>
				<g>
					<g>
						<g>
							<g>
								<rect x="162.549" y="435.557" style="fill:#F5F5F5;" width="29.463" height="35.026"/>
							</g>
						</g>
					</g>
					<g>
						<g>
							<g>
								<rect x="30.416" y="433.273" style="fill:#E0E0E0;" width="133.148" height="39.512"/>
							</g>
						</g>
					</g>
					<g>
						<g>
							<g>
								<path style="fill:#E0E0E0;" d="M192.905,436.596h-32.91v-3.323h32.91c0.918,0,1.661,0.744,1.661,1.661l0,0
									C194.566,435.852,193.822,436.596,192.905,436.596z"/>
							</g>
						</g>
					</g>
					<g>
						<g>
							<g>
								<path style="fill:#E0E0E0;" d="M192.905,472.786h-32.91v-3.323h32.91c0.918,0,1.661,0.744,1.661,1.661l0,0
									C194.566,472.042,193.822,472.786,192.905,472.786z"/>
							</g>
						</g>
					</g>
					<g>
						<g>
							<g>
								<rect x="137.365" y="433.273" style="fill:#EBEBEB;" width="15.731" height="39.512"/>
							</g>
						</g>
					</g>
					<g>
						<g>
							<g>
								<rect x="43.079" y="433.711" style="fill:#EBEBEB;" width="15.731" height="39.512"/>
							</g>
						</g>
					</g>
					<g>
						<g>
							<g>
								<g>
									<path style="fill:#E0E0E0;" d="M192.012,441.35c0,0.097-6.377,0.175-14.241,0.175c-7.867,0-14.242-0.078-14.242-0.175
										c0-0.096,6.375-0.175,14.242-0.175C185.635,441.175,192.012,441.254,192.012,441.35z"/>
								</g>
							</g>
						</g>
					</g>
					<g>
						<g>
							<g>
								<g>
									<path style="fill:#E0E0E0;" d="M192.012,446.603c0,0.097-6.377,0.175-14.241,0.175c-7.867,0-14.242-0.078-14.242-0.175
										c0-0.097,6.375-0.175,14.242-0.175C185.635,446.428,192.012,446.506,192.012,446.603z"/>
								</g>
							</g>
						</g>
					</g>
					<g>
						<g>
							<g>
								<g>
									<path style="fill:#E0E0E0;" d="M192.012,453.07c0,0.097-6.377,0.175-14.241,0.175c-7.867,0-14.242-0.078-14.242-0.175
										c0-0.097,6.375-0.175,14.242-0.175C185.635,452.895,192.012,452.973,192.012,453.07z"/>
								</g>
							</g>
						</g>
					</g>
					<g>
						<g>
							<g>
								<g>
									<path style="fill:#E0E0E0;" d="M192.012,459.537c0,0.097-6.377,0.175-14.241,0.175c-7.867,0-14.242-0.078-14.242-0.175
										c0-0.097,6.375-0.175,14.242-0.175C185.635,459.362,192.012,459.441,192.012,459.537z"/>
								</g>
							</g>
						</g>
					</g>
					<g>
						<g>
							<g>
								<g>
									<path style="fill:#E0E0E0;" d="M192.012,466.004c0,0.097-6.377,0.175-14.241,0.175c-7.867,0-14.242-0.078-14.242-0.175
										c0-0.097,6.375-0.175,14.242-0.175C185.635,465.829,192.012,465.908,192.012,466.004z"/>
								</g>
							</g>
						</g>
					</g>
				</g>
				<g>
					<g>
						<g>
							<rect x="69.006" y="449.513" style="fill:#EBEBEB;" width="59.902" height="7.115"/>
						</g>
					</g>
				</g>
			</g>
			<g>
				<g>
					<g>
						<g>
							<rect x="144.309" y="411.789" style="fill:#FAFAFA;" width="29.915" height="21.342"/>
						</g>
					</g>
				</g>
				<g>
					<g>
						<g>
							<rect x="17.336" y="411.014" style="fill:#F5F5F5;" width="127.308" height="22.891"/>
						</g>
					</g>
				</g>
				<g>
					<g>
						<g>
							<path style="fill:#F5F5F5;" d="M143.718,412.563h32.153c0.428,0,0.774-0.347,0.774-0.774l0,0
								c0-0.428-0.347-0.774-0.774-0.774h-32.153V412.563z"/>
						</g>
					</g>
				</g>
				<g>
					<g>
						<g>
							<path style="fill:#F5F5F5;" d="M143.718,433.905h32.508c0.232,0,0.419-0.188,0.419-0.419v-0.71
								c0-0.232-0.188-0.419-0.419-0.419h-32.508V433.905z"/>
						</g>
					</g>
				</g>
				<g>
					<g>
						<g>
							<g>
								<path style="fill:#E0E0E0;" d="M174.223,415.843c0,0.097-6.622,0.175-14.789,0.175c-8.17,0-14.791-0.078-14.791-0.175
									c0-0.096,6.621-0.175,14.791-0.175C167.601,415.668,174.223,415.746,174.223,415.843z"/>
							</g>
						</g>
					</g>
				</g>
				<g>
					<g>
						<g>
							<g>
								<path style="fill:#E0E0E0;" d="M174.223,419.88c0,0.097-6.622,0.175-14.789,0.175c-8.17,0-14.791-0.078-14.791-0.175
									c0-0.097,6.621-0.175,14.791-0.175C167.601,419.706,174.223,419.784,174.223,419.88z"/>
							</g>
						</g>
					</g>
				</g>
				<g>
					<g>
						<g>
							<g>
								<path style="fill:#E0E0E0;" d="M174.223,423.918c0,0.097-6.622,0.175-14.789,0.175c-8.17,0-14.791-0.078-14.791-0.175
									c0-0.097,6.621-0.175,14.791-0.175C167.601,423.743,174.223,423.822,174.223,423.918z"/>
							</g>
						</g>
					</g>
				</g>
				<g>
					<g>
						<g>
							<g>
								<path style="fill:#E0E0E0;" d="M174.223,427.956c0,0.097-6.622,0.175-14.789,0.175c-8.17,0-14.791-0.078-14.791-0.175
									c0-0.096,6.621-0.175,14.791-0.175C167.601,427.781,174.223,427.859,174.223,427.956z"/>
							</g>
						</g>
					</g>
				</g>
			</g>
			<g>
				<g>
					<g>
						<g>
							<rect x="169.248" y="354.374" style="fill:#EBEBEB;" width="28.699" height="54.38"/>
						</g>
					</g>
				</g>
				<g>
					<g>
						<g>
							<rect x="34.532" y="352.462" style="fill:#E0E0E0;" width="134.716" height="58.962"/>
						</g>
					</g>
				</g>
				<g>
					<g>
						<g>
							<path style="fill:#E0E0E0;" d="M200.193,411.424h-34.629V407.6h34.629c1.056,0,1.912,0.856,1.912,1.912l0,0
								C202.105,410.568,201.249,411.424,200.193,411.424z"/>
						</g>
					</g>
				</g>
				<g>
					<g>
						<g>
							<path style="fill:#E0E0E0;" d="M201.004,356.286h-35.44v-3.824h35.44c0.608,0,1.101,0.493,1.101,1.101v1.622
								C202.105,355.793,201.612,356.286,201.004,356.286z"/>
						</g>
					</g>
				</g>
				<g>
					<g>
						<g>
							<g>
								<path style="fill:#E0E0E0;" d="M197.947,361.664c0,0.091-6.425,0.164-14.349,0.164c-7.927,0-14.351-0.073-14.351-0.164
									c0-0.091,6.424-0.164,14.351-0.164C191.522,361.5,197.947,361.573,197.947,361.664z"/>
							</g>
						</g>
					</g>
				</g>
				<g>
					<g>
						<g>
							<g>
								<path style="fill:#E0E0E0;" d="M197.947,368.639c0,0.091-6.425,0.164-14.349,0.164c-7.927,0-14.351-0.074-14.351-0.164
									c0-0.091,6.424-0.165,14.351-0.165C191.522,368.474,197.947,368.548,197.947,368.639z"/>
							</g>
						</g>
					</g>
				</g>
				<g>
					<g>
						<g>
							<g>
								<path style="fill:#E0E0E0;" d="M197.947,375.613c0,0.091-6.425,0.164-14.349,0.164c-7.927,0-14.351-0.074-14.351-0.164
									c0-0.091,6.424-0.164,14.351-0.164C191.522,375.449,197.947,375.522,197.947,375.613z"/>
							</g>
						</g>
					</g>
				</g>
				<g>
					<g>
						<g>
							<g>
								<path style="fill:#E0E0E0;" d="M197.947,382.588c0,0.091-6.425,0.165-14.349,0.165c-7.927,0-14.351-0.074-14.351-0.165
									c0-0.091,6.424-0.164,14.351-0.164C191.522,382.423,197.947,382.497,197.947,382.588z"/>
							</g>
						</g>
					</g>
				</g>
				<g>
					<g>
						<g>
							<g>
								<path style="fill:#E0E0E0;" d="M197.947,389.562c0,0.091-6.425,0.165-14.349,0.165c-7.927,0-14.351-0.074-14.351-0.165
									c0-0.091,6.424-0.164,14.351-0.164C191.522,389.398,197.947,389.471,197.947,389.562z"/>
							</g>
						</g>
					</g>
				</g>
				<g>
					<g>
						<g>
							<g>
								<path style="fill:#E0E0E0;" d="M197.947,396.537c0,0.091-6.425,0.164-14.349,0.164c-7.927,0-14.351-0.074-14.351-0.164
									c0-0.091,6.424-0.164,14.351-0.164C191.522,396.372,197.947,396.446,197.947,396.537z"/>
							</g>
						</g>
					</g>
				</g>
				<g>
					<g>
						<g>
							<g>
								<path style="fill:#E0E0E0;" d="M197.947,403.511c0,0.091-6.425,0.164-14.349,0.164c-7.927,0-14.351-0.074-14.351-0.164
									c0-0.091,6.424-0.164,14.351-0.164C191.522,403.347,197.947,403.42,197.947,403.511z"/>
							</g>
						</g>
					</g>
				</g>
			</g>
		</g>
	</g>
	<g>
		<g>
			<g>
				<g>
					<path style="fill:#EBEBEB;" d="M426.272,325.322c7.812-4.031,17.011-4.555,25.684-3.121c4.66,0.77,9.517,2.164,12.688,5.664
						c3.171,3.5,3.771,9.659,0.131,12.667c-2.167,1.79-5.19,2.062-8,2.03c-6.789-0.079-14.323-1.275-19.747,2.811
						c-3.095,2.331-5.155,6.205-8.855,7.351c-3.62,1.122-7.705-1.015-9.624-4.282c-1.919-3.267-1.983-7.351-1.089-11.033
						C417.46,337.409,418.402,329.382,426.272,325.322z"/>
				</g>
			</g>
			<g>
				<g>
					<path style="fill:#EBEBEB;" d="M408.373,290.77c4.777,6.823,14.062,4.564,18.367,0.399c4.305-4.165,6.124-10.201,7.781-15.956
						c3.784-13.151,7.6-26.948,4.786-40.34c-0.841-4.004-2.338-7.997-5.152-10.967c-2.814-2.97-7.14-4.738-11.096-3.692
						c-4.681,1.237-7.591,5.822-9.694,10.184c-6.181,12.821-9.454,27.034-9.502,41.267
						C403.84,278.311,404.623,285.282,408.373,290.77"/>
				</g>
			</g>
			<g>
				<g>
					<path style="fill:#EBEBEB;" d="M395.255,300.56c5.187-6.156,6.171-15.134,3.863-22.846
						c-2.308-7.712-7.523-14.272-13.531-19.628c-7.046-6.28-15.327-11.166-24.23-14.297c-3.504-1.232-7.2-2.204-10.897-1.851
						c-3.697,0.353-7.421,2.243-9.145,5.533c-2.55,4.864-0.105,10.763,2.539,15.575c4.659,8.479,9.986,16.59,15.915,24.235
						c4.77,6.15,10.234,12.216,17.504,14.996c7.27,2.779,14.822,2.452,18.675-2.59"/>
				</g>
			</g>
			<g>
				<g>
					<g>
						<path style="fill:#E0E0E0;" d="M408.05,393.691c0.09,0.005,0.235-1.1,0.432-3.1c0.22-2.257,0.495-5.09,0.823-8.461
							c0.394-3.56,0.914-7.797,1.903-12.41c0.986-4.602,2.529-9.59,4.511-14.647c2.052-5.028,4.555-9.598,7.48-13.254
							c2.904-3.671,6.281-6.328,9.456-7.861c3.164-1.563,6.002-2.198,7.964-2.48c1.978-0.203,3.086-0.359,3.087-0.447
							c0.001-0.088-1.109-0.103-3.141-0.048c-2.013,0.134-4.969,0.644-8.303,2.161c-3.346,1.484-6.929,4.182-9.975,7.93
							c-3.071,3.731-5.665,8.402-7.753,13.52c-2.016,5.147-3.536,10.186-4.479,14.887c-0.939,4.694-1.369,8.977-1.65,12.567
							c-0.269,3.593-0.37,6.502-0.419,8.513C407.94,392.572,407.963,393.686,408.05,393.691z"/>
					</g>
				</g>
			</g>
			<g>
				<g>
					<g>
						<path style="fill:#E0E0E0;" d="M408.633,387.181c0.044-0.002,0.072-0.498,0.083-1.439c-0.003-1.081-0.007-2.443-0.011-4.114
							c-0.01-3.57-0.008-8.737,0.183-15.116c0.316-12.759,1.414-26.491,3.536-45.851c2.009-18.204,4.707-39.39,7.553-53.165
							c0.61-3.133,1.225-5.952,1.804-8.42c0.552-2.474,1.023-4.607,1.478-6.333c0.391-1.625,0.708-2.948,0.961-3.999
							c0.206-0.918,0.294-1.407,0.252-1.419c-0.042-0.012-0.214,0.452-0.5,1.349c-0.314,1.035-0.709,2.34-1.194,3.942
							c-0.53,1.71-1.073,3.829-1.692,6.293c-0.646,2.458-1.324,5.271-1.992,8.399c-2.816,12.481-5.798,29.925-7.94,49.331
							c-2.126,19.4-3.084,37.064-3.169,49.856c-0.076,6.396,0.06,11.573,0.223,15.146c0.102,1.671,0.185,3.031,0.251,4.111
							C408.53,386.691,408.589,387.183,408.633,387.181z"/>
					</g>
				</g>
			</g>
			<g>
				<g>
					<g>
						<path style="fill:#E0E0E0;" d="M408.718,353.111c0.089-0.003,0.073-1.53-0.03-4.297c-0.158-2.762-0.538-6.753-1.316-11.642
							c-0.825-4.878-1.977-10.669-3.786-16.963c-0.784-2.877-2.628-9.771-7.093-20.072c-5.884-13.957-13.877-25.368-20.831-32.436
							c-1.631-1.876-3.448-3.229-4.901-4.555c-0.752-0.636-1.416-1.27-2.093-1.772c-0.681-0.469-1.314-0.905-1.901-1.311
							c-2.289-1.565-3.57-2.391-3.618-2.316c-0.206,0.279,5.126,3.417,11.858,10.579c6.705,7.147,14.475,18.479,20.311,32.319
							c3.254,7.506,5.524,14.202,7.134,19.887c1.86,6.232,3.096,11.965,4.029,16.794c0.887,4.84,1.401,8.792,1.711,11.528
							C408.447,351.595,408.63,353.115,408.718,353.111z"/>
					</g>
				</g>
			</g>
		</g>
		<g>
			<g>
				<polygon style="fill:#E0E0E0;" points="375.788,413.21 379.202,459.981 439.287,459.981 442.701,413.21 				"/>
			</g>
		</g>
		<g>
			<g>
				<rect x="369.984" y="394.775" style="fill:#E0E0E0;" width="79.886" height="18.435"/>
			</g>
		</g>
		<g>
			<g>
				<polygon style="fill:#EBEBEB;" points="369.984,458.191 369.984,463.301 373.738,463.301 448.55,463.301 448.55,458.191 				"/>
			</g>
		</g>
		<g>
			<g>
				<polygon style="fill:#E0E0E0;" points="377.417,472.295 373.738,463.301 445.688,463.301 441.396,472.295 				"/>
			</g>
		</g>
		<g>
			<g>
				<g>
					<path style="fill:#F5F5F5;" d="M441.585,428.496c0.014,0.011-0.082,0.157-0.28,0.43c-0.238,0.316-0.534,0.708-0.898,1.191
						c-0.853,1.092-2.026,2.592-3.5,4.479l-0.156,0.199l-0.151-0.208c-2.2-3.043-5.139-7.108-8.599-11.893h0.495
						c-2.558,3.622-5.407,7.656-8.466,11.988l-0.266,0.376l-0.297-0.353c-3.124-3.717-6.518-7.755-10.041-11.946l0.579-0.007
						c-0.174,0.219-0.363,0.456-0.552,0.694c-3.114,3.904-6.128,7.682-8.978,11.255l-0.299,0.375l-0.276-0.391
						c-3.048-4.313-5.896-8.342-8.47-11.985l0.493,0.023c-4.174,4.756-7.715,8.79-10.432,11.885l-0.185,0.211l-0.141-0.238
						c-1.375-2.31-2.472-4.152-3.266-5.488c-0.342-0.596-0.618-1.077-0.838-1.461c-0.184-0.334-0.272-0.511-0.256-0.521
						c0.016-0.01,0.135,0.148,0.35,0.463c0.244,0.37,0.55,0.833,0.927,1.406c0.834,1.311,1.985,3.12,3.429,5.388l-0.326-0.026
						c2.674-3.133,6.157-7.216,10.265-12.03l0.259-0.304l0.234,0.327c2.598,3.627,5.471,7.638,8.546,11.931l-0.575-0.016
						c2.843-3.579,5.85-7.363,8.957-11.272c0.189-0.238,0.378-0.475,0.552-0.694l0.285-0.358l0.293,0.351
						c3.513,4.2,6.897,8.245,10.013,11.97l-0.562,0.022c3.09-4.31,5.967-8.324,8.551-11.928l0.251-0.35l0.244,0.35
						c3.387,4.838,6.264,8.947,8.418,12.022l-0.306-0.009c1.534-1.839,2.754-3.301,3.641-4.365c0.395-0.458,0.716-0.829,0.975-1.129
						C441.449,428.609,441.572,428.485,441.585,428.496z"/>
				</g>
			</g>
		</g>
		<g>
			<g>
				<g>
					<path style="fill:#F5F5F5;" d="M443.537,412.902c0,0.207-15.055,0.374-33.622,0.374c-18.574,0-33.626-0.167-33.626-0.374
						c0-0.207,15.052-0.374,33.626-0.374C428.481,412.528,443.537,412.695,443.537,412.902z"/>
				</g>
			</g>
		</g>
		<g>
			<g>
				<g>
					<path style="fill:#F5F5F5;" d="M446.572,463.805c0,0.207-16.362,0.374-36.541,0.374c-20.186,0-36.545-0.168-36.545-0.374
						c0-0.206,16.359-0.374,36.545-0.374C430.21,463.431,446.572,463.599,446.572,463.805z"/>
				</g>
			</g>
		</g>
	</g>
</g>
<g id="Background_Simple" style="display:none;">
	<path style="display:inline;fill:#F5F5F5;" d="M445.813,151.979l-1.039-1.187c-8.763-10.004-22.234-14.596-35.044-11.501
		c-1.647,0.398-3.265,0.915-4.839,1.552c-11.334,4.59-20.017,15.297-22.261,27.449c-1.319,7.147-0.66,14.993-4.466,21.151
		c-4.952,8.014-15.388,10.072-24.648,11.402c-9.26,1.331-19.698,3.417-24.615,11.453c-3.08,5.033-3.213,11.443-1.878,17.224
		c3.535,15.304,16.727,27.226,31.623,31.687c14.896,4.46,31.123,2.244,45.575-3.409c20.246-7.919,38.165-23.045,47.009-43.099
		C460.075,194.646,458.816,169.662,445.813,151.979z"/>
	<path style="display:inline;fill:#F5F5F5;" d="M104.204,32.646l0.871,0.612c7.339,5.164,11.383,13.875,10.223,22.69
		c-0.149,1.133-0.38,2.256-0.695,3.358c-2.269,7.933-8.832,14.525-16.825,16.899c-4.701,1.396-10.012,1.515-13.872,4.509
		c-5.023,3.896-5.657,11.045-5.888,17.353c-0.231,6.308-0.884,13.461-5.924,17.335c-3.156,2.426-7.448,2.974-11.422,2.492
		c-10.521-1.277-19.464-9.276-23.522-18.951c-4.058-9.676-3.731-20.722-0.972-30.823c3.865-14.15,12.733-27.255,25.556-34.624
		C74.556,26.129,91.409,25.187,104.204,32.646z"/>
	<circle style="display:inline;fill:#F5F5F5;" cx="413.017" cy="81.34" r="28.91"/>
</g>
<g id="Table">
	<g>
		<path style="fill:#263238;" d="M457.521,472.295c0,0.144-92.918,0.26-207.511,0.26c-114.633,0-207.531-0.116-207.531-0.26
			s92.898-0.26,207.531-0.26C364.603,472.035,457.521,472.151,457.521,472.295z"/>
	</g>
</g>
<g id="Character">
	<g>
		<g>
			<path style="fill:#FF725E;" d="M336.592,144.99c-0.034-0.005,0.123-0.443,0.149-1.327c0.037-0.878-0.113-2.215-0.803-3.798
				c-1.334-3.202-4.836-7.096-10.074-11.018c-10.498-7.902-27.706-16.357-49.754-24.341c-22.071-7.952-49.067-15.546-79.605-21.06
				c-15.268-2.71-31.438-4.922-48.298-5.713c-8.423-0.357-17.035-0.403-25.691,0.524c-4.316,0.488-8.668,1.181-12.847,2.549
				c-2.08,0.688-4.132,1.543-5.946,2.772c-1.799,1.209-3.385,2.899-3.896,5.019c-0.509,2.121,0.142,4.348,1.199,6.24
				c1.062,1.917,2.509,3.607,4.055,5.16c3.113,3.108,6.687,5.689,10.32,8.072c7.31,4.731,15.021,8.573,22.703,12.052
				c15.41,6.895,30.845,12.209,45.698,16.673c29.75,8.842,57.273,14.231,80.559,17.08c23.28,2.81,42.45,3.018,55.381,0.695
				c6.443-1.141,11.323-3.038,13.957-5.295c1.329-1.102,2.065-2.228,2.428-3.029C336.501,145.44,336.559,144.979,336.592,144.99
				c0,0-0.023,0.111-0.083,0.327c-0.049,0.221-0.157,0.538-0.334,0.946c-0.349,0.814-1.078,1.962-2.408,3.087
				c-2.636,2.303-7.533,4.24-13.988,5.414c-12.957,2.39-32.154,2.237-55.462-0.529c-23.314-2.805-50.866-8.16-80.652-16.985
				c-14.872-4.455-30.327-9.765-45.77-16.667c-7.699-3.483-15.428-7.33-22.776-12.083c-3.653-2.395-7.249-4.989-10.406-8.138
				c-1.567-1.575-3.043-3.292-4.142-5.275c-1.091-1.951-1.8-4.313-1.25-6.613c0.555-2.297,2.254-4.081,4.11-5.328
				c1.876-1.271,3.967-2.137,6.076-2.836c4.237-1.386,8.615-2.08,12.954-2.57c8.699-0.929,17.33-0.879,25.77-0.518
				c16.892,0.799,33.078,3.025,48.36,5.75c30.563,5.546,57.569,13.183,79.646,21.187c22.052,8.036,39.259,16.551,49.75,24.525
				c5.233,3.958,8.733,7.894,10.048,11.139c0.68,1.604,0.814,2.957,0.759,3.842c-0.026,0.445-0.072,0.777-0.128,0.995
				C336.621,144.88,336.592,144.99,336.592,144.99z"/>
		</g>
		<g>
			<path style="fill:#FF725E;" d="M322.393,75.821c0,0-0.213-0.404-0.603-1.198c-0.169-0.413-0.566-0.813-0.934-1.352
				c-0.175-0.28-0.454-0.505-0.723-0.772c-0.281-0.254-0.548-0.565-0.893-0.824c-1.35-1.08-3.251-2.101-5.628-2.95
				c-2.376-0.866-5.254-1.44-8.506-1.866c-13.071-1.649-32.258,0.173-55.18,5.3c-11.471,2.575-23.907,5.98-37.037,10.31
				c-13.133,4.317-26.98,9.515-41.201,15.794c-14.208,6.286-28.841,13.612-43.126,22.665c-7.102,4.569-14.17,9.534-20.586,15.443
				c-3.184,2.963-6.248,6.149-8.702,9.804c-1.207,1.835-2.241,3.798-2.899,5.891c-0.659,2.082-0.788,4.376-0.036,6.433
				c0.741,2.065,2.326,3.731,4.169,4.901c1.852,1.178,3.908,2.014,6.015,2.637c4.234,1.214,8.632,1.67,12.977,1.881
				c8.717,0.376,17.322-0.392,25.698-1.484c16.759-2.301,32.668-6.148,47.581-10.514c14.917-4.38,28.852-9.345,41.671-14.521
				c12.826-5.165,24.524-10.588,34.949-16.023c20.82-10.875,36.652-21.863,45.572-31.556c2.208-2.424,4.037-4.719,5.293-6.913
				c1.267-2.183,2.06-4.189,2.395-5.884c0.096-0.42,0.1-0.829,0.15-1.205c0.033-0.378,0.101-0.729,0.054-1.056
				c-0.067-0.649-0.021-1.212-0.159-1.636C322.491,76.267,322.393,75.821,322.393,75.821s0.132,0.434,0.365,1.294
				c0.147,0.425,0.11,0.99,0.186,1.645c0.052,0.33-0.012,0.684-0.041,1.065c-0.047,0.379-0.047,0.793-0.139,1.217
				c-0.321,1.713-1.104,3.74-2.364,5.943c-1.249,2.215-3.073,4.529-5.277,6.972c-8.905,9.768-24.73,20.817-45.551,31.746
				c-10.425,5.462-22.126,10.91-34.957,16.097c-12.825,5.199-26.767,10.183-41.698,14.581c-14.927,4.384-30.853,8.245-47.648,10.559
				c-8.396,1.098-17.023,1.872-25.79,1.496c-4.372-0.212-8.801-0.667-13.1-1.899c-2.141-0.632-4.241-1.484-6.155-2.701
				c-1.903-1.207-3.583-2.96-4.372-5.158c-0.801-2.19-0.654-4.611,0.026-6.76c0.68-2.164,1.739-4.166,2.965-6.031
				c2.493-3.711,5.58-6.917,8.784-9.897c6.454-5.941,13.543-10.915,20.663-15.492c14.321-9.067,28.977-16.392,43.207-22.674
				c14.242-6.274,28.108-11.462,41.26-15.765c13.149-4.316,25.603-7.705,37.092-10.259c22.958-5.086,42.179-6.858,55.286-5.142
				c3.261,0.443,6.147,1.035,8.531,1.921c2.385,0.87,4.292,1.913,5.642,3.015c0.345,0.264,0.612,0.58,0.892,0.84
				c0.268,0.273,0.546,0.502,0.719,0.788c0.365,0.549,0.757,0.957,0.919,1.376C322.214,75.405,322.393,75.821,322.393,75.821z"/>
		</g>
		<g>
			<path style="fill:#263238;" d="M339.011,108.381c-0.029,0.004-0.03-0.275-0.223-0.742c-0.192-0.449-0.664-1.123-1.579-1.4
				c-0.88-0.274-2.21,0.008-3.036,1.068c-0.878,1.019-0.872,2.845,0.182,4.159c0.521,0.649,1.291,1.153,2.178,1.337
				c0.883,0.189,1.875,0.025,2.757-0.393c1.795-0.816,3.04-3.013,2.576-5.215c-0.361-2.191-2.156-4.233-4.541-4.742
				c-2.356-0.51-5.07,0.431-6.773,2.355c-0.852,0.965-1.451,2.134-1.719,3.359c-0.271,1.226-0.195,2.492,0.079,3.686
				c0.533,2.395,2.074,4.421,4.034,5.525c1.959,1.125,4.204,1.387,6.191,1.102c2.011-0.228,3.77-1.061,5.098-2.133
				c1.343-1.075,2.19-2.437,2.732-3.684c0.543-1.258,0.771-2.437,0.859-3.399c0.177-1.933-0.031-3.013,0.039-3.018
				c0,0,0.279,1.066,0.163,3.035c-0.059,0.98-0.26,2.189-0.792,3.493c-0.53,1.292-1.383,2.718-2.765,3.855
				c-1.365,1.134-3.194,2.022-5.275,2.277c-2.054,0.314-4.413,0.063-6.488-1.113c-2.077-1.152-3.725-3.301-4.292-5.825
				c-0.292-1.249-0.377-2.596-0.088-3.913c0.285-1.311,0.925-2.563,1.836-3.594c1.835-2.058,4.698-3.064,7.274-2.507
				c2.59,0.561,4.524,2.784,4.901,5.156c0.494,2.403-0.895,4.823-2.862,5.688c-0.969,0.447-2.043,0.616-3.028,0.397
				c-0.982-0.216-1.822-0.783-2.384-1.502c-0.557-0.727-0.846-1.589-0.862-2.41c-0.023-0.83,0.279-1.603,0.741-2.159
				c0.934-1.142,2.371-1.408,3.324-1.08c0.982,0.333,1.448,1.075,1.616,1.555C339.055,108.1,339.011,108.381,339.011,108.381z"/>
		</g>
		<g>
			<path style="fill:#263238;" d="M211.007,54.191c0.029,0-0.007,0.277,0.122,0.765c0.13,0.471,0.508,1.202,1.378,1.599
				c0.835,0.389,2.191,0.287,3.152-0.653c1.006-0.892,1.245-2.703,0.376-4.146c-0.43-0.713-1.125-1.315-1.98-1.617
				c-0.85-0.306-1.855-0.276-2.785,0.021c-1.888,0.568-3.416,2.579-3.251,4.823c0.064,2.219,1.57,4.483,3.865,5.306
				c2.267,0.821,5.082,0.252,7.027-1.428c0.973-0.842,1.724-1.921,2.153-3.098c0.432-1.179,0.527-2.444,0.415-3.663
				c-0.208-2.445-1.464-4.659-3.258-6.015c-1.791-1.377-3.981-1.937-5.988-1.92c-2.023-0.043-3.878,0.547-5.337,1.431
				c-1.475,0.885-2.497,2.122-3.2,3.285c-0.706,1.174-1.09,2.312-1.306,3.253c-0.434,1.892-0.372,2.991-0.443,2.985
				c0,0-0.134-1.094,0.245-3.03c0.189-0.963,0.551-2.134,1.252-3.355c0.698-1.209,1.735-2.509,3.256-3.451
				c1.504-0.941,3.435-1.576,5.532-1.551c2.078-0.036,4.382,0.527,6.281,1.971c1.905,1.419,3.25,3.77,3.474,6.347
				c0.122,1.276,0.026,2.623-0.436,3.89c-0.458,1.261-1.26,2.416-2.301,3.316c-2.094,1.794-5.066,2.408-7.544,1.511
				c-2.492-0.902-4.111-3.364-4.167-5.765c-0.168-2.447,1.532-4.66,3.598-5.254c1.02-0.314,2.107-0.338,3.054,0.012
				c0.944,0.345,1.701,1.02,2.161,1.808c0.454,0.795,0.626,1.688,0.531,2.504c-0.088,0.826-0.49,1.551-1.023,2.04
				c-1.078,1.007-2.538,1.077-3.439,0.626c-0.929-0.461-1.291-1.259-1.394-1.757C210.926,54.464,211.007,54.191,211.007,54.191z"/>
		</g>
		<path style="fill:#FF725E;" d="M80.351,121.075l1.014,1.854c0.432,0.791,1.083,1.441,1.874,1.873l1.854,1.014l-1.854,1.014
			c-0.791,0.433-1.441,1.083-1.874,1.874l-1.014,1.854l-1.014-1.854c-0.433-0.791-1.083-1.441-1.874-1.874l-1.854-1.014l1.854-1.014
			c0.791-0.433,1.441-1.083,1.874-1.873L80.351,121.075z"/>
		<path style="fill:#FF725E;" d="M328.396,168.089l1.186,2.169c0.506,0.925,1.267,1.686,2.192,2.192l2.169,1.186l-2.169,1.186
			c-0.925,0.506-1.686,1.267-2.192,2.192l-1.186,2.169l-1.186-2.169c-0.506-0.925-1.267-1.686-2.192-2.192l-2.169-1.186l2.169-1.186
			c0.925-0.506,1.686-1.267,2.192-2.192L328.396,168.089z"/>
		<path style="fill:#FF725E;" d="M117.205,189.866l1.186,2.169c0.506,0.925,1.267,1.686,2.192,2.192l2.169,1.186l-2.169,1.186
			c-0.925,0.506-1.686,1.267-2.192,2.192l-1.186,2.169l-1.186-2.169c-0.506-0.925-1.267-1.686-2.192-2.192l-2.169-1.186l2.169-1.186
			c0.925-0.506,1.686-1.267,2.192-2.192L117.205,189.866z"/>
		<path style="fill:#FF725E;" d="M339.38,78.17l0.744,1.36c0.317,0.58,0.794,1.057,1.374,1.374l1.36,0.744l-1.36,0.744
			c-0.58,0.317-1.057,0.794-1.374,1.374l-0.744,1.36l-0.744-1.36c-0.317-0.58-0.794-1.057-1.374-1.374l-1.36-0.744l1.36-0.744
			c0.58-0.317,1.057-0.794,1.374-1.374L339.38,78.17z"/>
		<path style="fill:#FF725E;" d="M243.247,35.031l0.744,1.36c0.317,0.58,0.794,1.057,1.374,1.374l1.36,0.744l-1.36,0.744
			c-0.58,0.317-1.057,0.794-1.374,1.374l-0.744,1.36l-0.744-1.36c-0.317-0.58-0.794-1.057-1.374-1.374l-1.36-0.744l1.36-0.744
			c0.58-0.317,1.057-0.794,1.374-1.374L243.247,35.031z"/>
		<path style="fill:#FF725E;" d="M168.306,51.803l1.246,2.278c0.531,0.972,1.33,1.77,2.302,2.302l2.278,1.246l-2.278,1.246
			c-0.972,0.531-1.77,1.33-2.302,2.302l-1.246,2.278l-1.246-2.278c-0.531-0.972-1.33-1.77-2.302-2.302l-2.278-1.246l2.278-1.246
			c0.971-0.531,1.77-1.33,2.302-2.302L168.306,51.803z"/>
		<g>
			<path style="fill:#263238;" d="M88.587,188.973c-0.029,0.004-0.03-0.275-0.223-0.742c-0.192-0.449-0.664-1.123-1.579-1.4
				c-0.88-0.274-2.21,0.008-3.036,1.068c-0.878,1.019-0.872,2.845,0.182,4.159c0.521,0.649,1.291,1.152,2.179,1.337
				c0.883,0.189,1.875,0.025,2.757-0.393c1.795-0.816,3.04-3.013,2.576-5.215c-0.361-2.191-2.156-4.233-4.541-4.742
				c-2.356-0.51-5.07,0.431-6.773,2.355c-0.852,0.965-1.451,2.134-1.719,3.359c-0.271,1.226-0.195,2.492,0.079,3.686
				c0.533,2.395,2.074,4.421,4.034,5.525c1.959,1.125,4.204,1.387,6.191,1.102c2.011-0.228,3.77-1.061,5.098-2.133
				c1.343-1.075,2.19-2.437,2.732-3.684c0.543-1.258,0.771-2.437,0.859-3.399c0.177-1.933-0.031-3.013,0.039-3.018
				c0,0,0.279,1.066,0.163,3.036c-0.059,0.98-0.26,2.188-0.792,3.493c-0.53,1.292-1.383,2.718-2.765,3.855
				c-1.365,1.134-3.194,2.022-5.275,2.277c-2.054,0.313-4.413,0.063-6.488-1.113c-2.077-1.152-3.725-3.301-4.292-5.825
				c-0.291-1.249-0.377-2.596-0.088-3.913c0.285-1.311,0.925-2.563,1.836-3.594c1.835-2.058,4.698-3.064,7.274-2.507
				c2.59,0.561,4.524,2.784,4.901,5.156c0.494,2.403-0.895,4.823-2.862,5.688c-0.969,0.448-2.043,0.617-3.028,0.397
				c-0.982-0.216-1.822-0.783-2.384-1.502c-0.557-0.727-0.846-1.589-0.861-2.41c-0.023-0.83,0.279-1.602,0.741-2.159
				c0.934-1.142,2.371-1.408,3.324-1.08c0.982,0.333,1.448,1.075,1.617,1.555C88.63,188.693,88.587,188.973,88.587,188.973z"/>
		</g>
	</g>
	<g>
		<g>
			<g>
				<g>
					<g>
						<g>
							<g>
								<g>
									<g>
										<g>
											<g>
												<path style="fill:#263238;" d="M284.607,204.784c1.129-13.508,2.186-27.1,0.974-40.602
													c-1.212-13.501-4.81-27.027-12.315-38.317c-1.137-1.711-10.036-12.895-11.981-12.23c-1.389,0.475,5.03,11.35,4.6,12.754
													c-4.095,13.406-2.628,28.026,1.665,41.37C271.844,181.104,277.549,192.673,284.607,204.784"/>
											</g>
										</g>
									</g>
								</g>
							</g>
						</g>
					</g>
				</g>
			</g>
			<g>
				<g>
					<path style="fill:#FFBF9D;" d="M209.258,104.538l-3.021,0.883c-30.4,8.887-48.893,39.622-42.477,70.638
						c5.968,28.857,12.932,60.665,17.541,75.735c9.54,31.198,40.498,27.056,40.498,27.056c0.071-0.017,0.349,11.634,0.349,11.634
						l29.532,33.457l51.011-35.29l-28.617-134.519C267.373,120.8,242.391,96.918,209.258,104.538z"/>
				</g>
			</g>
			<g>
				<g>
					<g>
						<g>
							<g>
								<g>
									<g>
										<g>
											<g>
												<g>
													<g>
														<path style="fill:#FF9A6C;" d="M221.798,278.849c0,0,21.858-4.754,39.028-24.114c0,0-1.066,26.781-38.757,32.613
															L221.798,278.849z"/>
													</g>
												</g>
											</g>
										</g>
									</g>
								</g>
							</g>
						</g>
					</g>
				</g>
			</g>
			<g>
				<g>
					<g>
						<g>
							<g>
								<g>
									<g>
										<g>
											<g>
												<g>
													<g>
														<g>
															<g>
																<g>
																	<g>
																		<g>
																			<g>
																				<g>
																					<path style="fill:#263238;" d="M174.46,187.94c0.725,0.421,3.379-3.076,8.195-4.47
																						c4.79-1.462,9.045-0.018,9.394-0.76c0.18-0.335-0.692-1.224-2.557-1.894c-1.839-0.671-4.738-1.002-7.732-0.112
																						c-2.993,0.893-5.191,2.733-6.31,4.286C174.303,186.557,174.11,187.758,174.46,187.94z"/>
																				</g>
																			</g>
																		</g>
																	</g>
																</g>
															</g>
														</g>
													</g>
												</g>
											</g>
										</g>
									</g>
								</g>
							</g>
						</g>
					</g>
				</g>
			</g>
			<g>
				<g>
					<g>
						<g>
							<g>
								<g>
									<g>
										<g>
											<g>
												<g>
													<g>
														<g>
															<g>
																<g>
																	<g>
																		<g>
																			<g>
																				<g>
																					<path style="fill:#263238;" d="M221.952,175.266c0.726,0.421,3.386-3.077,8.198-4.47
																						c4.789-1.46,9.045-0.018,9.395-0.76c0.179-0.336-0.687-1.224-2.558-1.893
																						c-1.839-0.673-4.737-1.001-7.731-0.114c-2.993,0.894-5.191,2.734-6.311,4.286
																						C221.8,173.883,221.605,175.085,221.952,175.266z"/>
																				</g>
																			</g>
																		</g>
																	</g>
																</g>
															</g>
														</g>
													</g>
												</g>
											</g>
										</g>
									</g>
								</g>
							</g>
						</g>
					</g>
				</g>
			</g>
			<g>
				<g>
					<g>
						<g>
							<g>
								<g>
									<g>
										<g>
											<g>
												<g>
													<g>
														<g>
															<g>
																<g>
																	<g>
																		<g>
																			<g>
																				<path style="fill:#263238;" d="M215.501,217.286c-0.058-0.28-3.2,0.077-8.227,0.874
																					c-1.266,0.233-2.501,0.329-2.952-0.45c-0.549-0.803-0.422-2.278-0.245-3.882
																					c0.286-3.312,0.584-6.781,0.898-10.418c1.152-14.796,1.603-26.817,1.007-26.859
																					c-0.597-0.04-2.014,11.919-3.166,26.714c-0.254,3.641-0.501,7.111-0.729,10.43
																					c-0.056,1.532-0.393,3.35,0.772,5.009c0.599,0.822,1.697,1.224,2.546,1.206c0.858,0.01,1.553-0.178,2.172-0.32
																					C212.53,218.427,215.561,217.565,215.501,217.286z"/>
																			</g>
																		</g>
																	</g>
																</g>
															</g>
														</g>
													</g>
												</g>
											</g>
										</g>
									</g>
								</g>
							</g>
						</g>
					</g>
				</g>
			</g>
			<g>
				<g>
					<g>
						<g>
							<g>
								<g>
									<g>
										<g>
											<g>
												<g>
													<g>
														<g>
															<g>
																<path style="fill:#263238;" d="M242.004,156.859c-0.394-1.395-5.433-1.113-11.247-2.247
																	c-5.838-1.016-10.444-3.077-11.31-1.915c-0.389,0.559,0.342,1.898,2.159,3.353c1.8,1.452,4.734,2.92,8.227,3.569
																	c3.493,0.64,6.758,0.316,8.958-0.398C241.008,158.509,242.17,157.52,242.004,156.859z"/>
															</g>
														</g>
													</g>
												</g>
											</g>
										</g>
									</g>
								</g>
							</g>
						</g>
					</g>
				</g>
			</g>
			<g>
				<g>
					<g>
						<g>
							<g>
								<g>
									<g>
										<g>
											<g>
												<g>
													<g>
														<g>
															<g>
																<path style="fill:#263238;" d="M170.103,173.857c1.308,0.82,4.928-1.406,9.644-2.767
																	c4.674-1.499,8.941-1.676,9.546-3.079c0.25-0.668-0.684-1.594-2.721-2.149c-2.01-0.559-5.13-0.608-8.358,0.373
																	c-3.227,0.985-5.769,2.758-7.104,4.336C169.749,172.162,169.512,173.443,170.103,173.857z"/>
															</g>
														</g>
													</g>
												</g>
											</g>
										</g>
									</g>
								</g>
							</g>
						</g>
					</g>
				</g>
			</g>
			<g>
				<g>
					<g>
						<g>
							<g>
								<g>
									<g>
										<g>
											<g>
												<path style="fill:#FFBF9D;" d="M278.294,178.064c0.466-0.387,19.655-12.652,25.228,8.953
													c5.574,21.606-19.149,24.005-19.346,23.396C283.978,209.802,278.294,178.064,278.294,178.064z"/>
											</g>
										</g>
									</g>
								</g>
							</g>
						</g>
					</g>
				</g>
			</g>
			<g>
				<g>
					<g>
						<g>
							<g>
								<g>
									<g>
										<g>
											<g>
												<g>
													<path style="fill:#FF9A6C;" d="M290.545,199.265c0.076-0.094,0.444,0.166,1.156,0.294
														c0.693,0.124,1.811,0.045,2.828-0.668c2.066-1.426,3.053-5.546,2.154-9.468c-0.452-1.98-1.347-3.747-2.443-5.117
														c-1.068-1.41-2.375-2.251-3.577-2.159c-1.212,0.031-1.848,0.928-1.955,1.605c-0.133,0.678,0.115,1.074,0.009,1.141
														c-0.046,0.07-0.557-0.243-0.613-1.18c-0.021-0.453,0.1-1.028,0.501-1.573c0.409-0.555,1.116-0.967,1.939-1.087
														c1.696-0.315,3.592,0.831,4.797,2.335c1.298,1.488,2.351,3.462,2.858,5.685c0.985,4.39-0.193,9.039-3.083,10.747
														c-1.418,0.789-2.803,0.658-3.59,0.316C290.719,199.776,290.48,199.324,290.545,199.265z"/>
												</g>
											</g>
										</g>
									</g>
								</g>
							</g>
						</g>
					</g>
				</g>
			</g>
			<g>
				<g>
					<g>
						<g>
							<g>
								<g>
									<g>
										<g>
											<g>
												<path style="fill:#263238;" d="M168.852,136.703c-3.985-1.063,3.71-15.027,11.352-21.076
													c11.548-9.141,30.521-17.719,43.368-17.299c15.468,0.505,29.26,4.71,39.784,16.058
													c10.524,11.347,17.06,25.993,20.372,41.111c1.01,4.613,1.722,9.506,0.238,13.988c-1.834,5.54-6.888,9.998-4.992,16.539
													c0.694,2.39,0.61,4.999-0.606,7.17c-2.914,5.201-8.746,2.445-11.961-0.971c-6.869-7.298-9.916-17.292-12.75-26.905
													c-2.014-6.833-4.048-13.818-3.75-20.935c0.162-3.873,1.016-7.706,0.963-11.582c-0.052-3.876-1.196-8.005-4.222-10.429
													c-0.492-0.394-1.256-0.856-2.201-1.342c-7.468-3.851-16.453-3.325-23.465,1.305
													c-11.122,7.346-30.345,18.965-36.812,16.18c-9.304-4.009-12.141-7.426-12.141-7.426L168.852,136.703z"/>
											</g>
										</g>
									</g>
								</g>
							</g>
						</g>
					</g>
				</g>
			</g>
			<g>
				<g>
					<g>
						<g>
							<g>
								<g>
									<g>
										<g>
											<g>
												<g>
													<g>
														<path style="fill:#263238;" d="M225.819,233.45c0.737,0.22,1.927-4.763,7.032-7.292
															c5.102-2.542,10.284-0.723,10.488-1.412c0.144-0.296-0.954-1.248-3.184-1.841c-2.182-0.597-5.564-0.651-8.688,0.895
															c-3.118,1.555-4.922,4.186-5.577,6.191C225.207,232.032,225.471,233.399,225.819,233.45z"/>
													</g>
												</g>
											</g>
										</g>
									</g>
								</g>
							</g>
						</g>
					</g>
				</g>
			</g>
		</g>
		<g>
			<path style="fill:#263238;" d="M191.999,196.559c-0.07,0.012-0.084-0.351-0.435-0.834c-0.328-0.468-1.204-1.005-2.234-0.558
				c-0.488,0.202-0.964,0.625-1.181,1.22c-0.229,0.577-0.163,1.328,0.203,1.98c0.361,0.642,1.039,1.181,1.857,1.304
				c0.795,0.132,1.767-0.131,2.473-0.726c0.713-0.595,1.206-1.537,1.183-2.545c-0.017-1.021-0.445-2.102-1.242-2.874
				c-0.787-0.78-1.925-1.247-3.096-1.187c-1.194,0.066-2.423,0.538-3.341,1.418c-0.926,0.864-1.548,2.094-1.654,3.409
				c-0.099,1.306,0.255,2.761,0.99,3.921c0.753,1.169,1.937,2.06,3.316,2.491c1.378,0.419,2.945,0.378,4.393-0.044
				c0.724-0.21,1.388-0.551,1.999-0.956c0.599-0.424,1.111-0.949,1.548-1.526c0.423-0.591,0.74-1.247,0.988-1.927
				c0.206-0.694,0.377-1.402,0.41-2.128c0.114-1.455-0.109-2.898-0.662-4.135c-0.569-1.244-1.477-2.294-2.55-3.061
				c-2.176-1.523-4.931-1.897-7.273-1.439c-2.367,0.392-4.247,1.882-5.462,3.51c-1.185,1.688-1.72,3.559-1.807,5.205
				c-0.07,1.649,0.179,3.104,0.621,4.202c0.158,0.576,0.434,1.031,0.619,1.453c0.178,0.428,0.398,0.751,0.562,1.023
				c0.327,0.544,0.481,0.851,0.439,0.885c-0.042,0.034-0.279-0.206-0.698-0.705c-0.209-0.249-0.478-0.554-0.707-0.974
				c-0.236-0.414-0.566-0.867-0.78-1.457c-0.552-1.122-0.92-2.658-0.929-4.455c0.009-1.793,0.508-3.88,1.773-5.808
				c0.679-0.919,1.458-1.872,2.519-2.574c0.248-0.198,0.514-0.375,0.806-0.517c0.286-0.151,0.568-0.318,0.866-0.458
				c0.62-0.222,1.241-0.5,1.922-0.601c2.632-0.568,5.747-0.23,8.352,1.528c1.277,0.884,2.382,2.125,3.081,3.617
				c0.691,1.509,0.954,3.199,0.835,4.864c-0.036,0.842-0.225,1.685-0.473,2.514c-0.29,0.819-0.673,1.619-1.192,2.347
				c-0.533,0.715-1.169,1.367-1.911,1.893c-0.752,0.506-1.573,0.921-2.447,1.175c-1.732,0.504-3.579,0.557-5.302,0.032
				c-1.71-0.535-3.214-1.675-4.146-3.153c-0.917-1.499-1.32-3.182-1.185-4.877c0.153-1.692,0.972-3.255,2.164-4.335
				c1.187-1.1,2.747-1.679,4.266-1.732c1.562-0.053,3.063,0.604,4.066,1.648c1.021,1.042,1.542,2.443,1.527,3.792
				c-0.01,1.385-0.72,2.642-1.698,3.4c-0.993,0.762-2.213,1.063-3.346,0.84c-1.129-0.221-2.01-0.995-2.447-1.875
				c-0.442-0.876-0.478-1.886-0.118-2.673c0.347-0.788,1.013-1.295,1.659-1.504c0.645-0.219,1.304-0.158,1.774,0.078
				c0.476,0.229,0.769,0.581,0.934,0.882C192.144,196.186,192.032,196.566,191.999,196.559z"/>
		</g>
		<g>
			<path style="fill:#263238;" d="M235.658,185.608c-0.07,0.012-0.084-0.351-0.435-0.834c-0.329-0.469-1.204-1.005-2.234-0.558
				c-0.489,0.202-0.964,0.625-1.181,1.22c-0.229,0.577-0.163,1.327,0.203,1.98c0.361,0.642,1.039,1.181,1.857,1.304
				c0.795,0.132,1.767-0.131,2.473-0.726c0.713-0.595,1.206-1.537,1.183-2.545c-0.017-1.021-0.445-2.102-1.242-2.874
				c-0.787-0.78-1.925-1.247-3.096-1.187c-1.194,0.066-2.423,0.538-3.341,1.418c-0.926,0.864-1.548,2.094-1.654,3.409
				c-0.099,1.306,0.255,2.761,0.99,3.921c0.753,1.169,1.937,2.06,3.316,2.491c1.378,0.419,2.945,0.378,4.393-0.044
				c0.724-0.21,1.388-0.551,1.999-0.956c0.599-0.424,1.111-0.949,1.548-1.527c0.423-0.591,0.74-1.247,0.988-1.927
				c0.206-0.694,0.377-1.402,0.41-2.128c0.114-1.455-0.109-2.898-0.662-4.135c-0.569-1.244-1.477-2.294-2.55-3.061
				c-2.176-1.523-4.93-1.897-7.273-1.439c-2.367,0.392-4.247,1.882-5.462,3.51c-1.185,1.688-1.72,3.559-1.807,5.205
				c-0.07,1.649,0.179,3.104,0.621,4.202c0.158,0.576,0.435,1.031,0.619,1.453c0.177,0.428,0.398,0.751,0.562,1.023
				c0.326,0.544,0.481,0.851,0.439,0.885c-0.042,0.034-0.279-0.207-0.697-0.705c-0.209-0.249-0.478-0.554-0.708-0.974
				c-0.236-0.414-0.566-0.868-0.78-1.457c-0.552-1.122-0.92-2.658-0.929-4.455c0.009-1.793,0.508-3.88,1.773-5.808
				c0.679-0.919,1.458-1.872,2.519-2.574c0.249-0.198,0.514-0.375,0.806-0.517c0.286-0.151,0.568-0.318,0.866-0.457
				c0.621-0.222,1.241-0.501,1.922-0.602c2.632-0.568,5.747-0.23,8.352,1.528c1.277,0.884,2.382,2.125,3.081,3.617
				c0.691,1.509,0.954,3.199,0.835,4.864c-0.035,0.842-0.225,1.685-0.472,2.514c-0.29,0.819-0.673,1.619-1.192,2.347
				c-0.533,0.715-1.169,1.367-1.911,1.893c-0.751,0.506-1.573,0.921-2.447,1.175c-1.732,0.504-3.578,0.557-5.302,0.032
				c-1.71-0.535-3.214-1.675-4.146-3.153c-0.917-1.499-1.32-3.182-1.185-4.876c0.153-1.692,0.973-3.255,2.164-4.335
				c1.187-1.1,2.747-1.679,4.266-1.732c1.562-0.053,3.063,0.604,4.066,1.648c1.021,1.042,1.542,2.443,1.527,3.792
				c-0.01,1.385-0.72,2.642-1.698,3.4c-0.994,0.762-2.213,1.063-3.346,0.84c-1.129-0.221-2.01-0.995-2.447-1.874
				c-0.442-0.876-0.479-1.886-0.118-2.673c0.347-0.788,1.013-1.295,1.659-1.505c0.645-0.219,1.304-0.158,1.774,0.078
				c0.476,0.23,0.769,0.581,0.934,0.882C235.803,185.234,235.69,185.615,235.658,185.608z"/>
		</g>
		<g>
			<g>
				<path style="fill:#263238;" d="M223.346,135.605c0.01-0.095,0.763,0.069,1.893-0.234c1.103-0.278,2.622-1.16,3.342-2.767
					c0.698-1.618,0.32-3.333-0.221-4.334c-0.541-1.037-1.17-1.481-1.107-1.552c0.017-0.045,0.755,0.302,1.427,1.37
					c0.664,1.024,1.162,2.899,0.378,4.725c-0.815,1.811-2.533,2.713-3.737,2.916C224.079,135.958,223.324,135.648,223.346,135.605z"
					/>
			</g>
			<g>
				<path style="fill:#263238;" d="M242.268,129.193c0.042,0.018-0.416,0.811-1.662,1.492c-1.212,0.681-3.279,1.107-5.348,0.385
					c-2.058-0.733-3.43-2.266-4.13-3.443c-0.719-1.197-0.887-2.054-0.835-2.068c0.083-0.033,0.374,0.768,1.142,1.866
					c0.753,1.085,2.089,2.476,3.995,3.154c1.905,0.665,3.83,0.335,5.012-0.223C241.653,129.801,242.2,129.123,242.268,129.193z"/>
			</g>
			<g>
				<path style="fill:#263238;" d="M235.748,143.317c-0.082,0.033-0.348-0.692-1.078-1.655c-0.715-0.958-1.98-2.132-3.703-2.744
					c-1.725-0.608-3.447-0.49-4.605-0.194c-1.173,0.29-1.836,0.687-1.879,0.609c-0.033-0.043,0.573-0.564,1.778-0.964
					c1.185-0.402,3.025-0.596,4.88,0.057c1.853,0.658,3.162,1.965,3.83,3.023C235.657,142.519,235.801,143.305,235.748,143.317z"/>
			</g>
			<g>
				<path style="fill:#263238;" d="M238.267,141.877c-0.033,0.039-0.602-0.437-1.018-1.523c-0.417-1.053-0.577-2.795,0.283-4.397
					c0.877-1.594,2.427-2.407,3.537-2.63c1.137-0.242,1.846-0.023,1.831,0.026c-0.004,0.091-0.704,0.015-1.738,0.33
					c-1.016,0.297-2.389,1.095-3.172,2.522c-0.771,1.433-0.694,3.019-0.391,4.033C237.896,141.278,238.341,141.824,238.267,141.877z
					"/>
			</g>
		</g>
	</g>
	<g>
		<g>
			<path style="fill:#FFBF9D;" d="M118.504,233.841c0,0,25.394-51.502,27.132-53.573c1.738-2.071,10.985-23.606,10.985-23.606
				l12.936-15.461c0,0,6.068,0.91,2.215,8.763l-5.492,10.46l20.169-20.245c0,0,5.973,0.691,3.648,7.035
				c-1.728,4.714-7.888,12.015-7.888,12.015l18.102-15.713c0,0,7.531,1.161,3.918,9.061c-2.349,5.137-23.449,28.457-23.449,28.457
				s10.525-6.503,13.852-8.661c3.326-2.158,6.76-6.852,9.216-6.408c2.455,0.444,6.742,4.244,0.347,11.503
				c-6.395,7.26-24.386,18.829-27.007,20.266c-2.62,1.438-2.62,1.438-2.62,1.438s-3.117,8.071-7.51,11.971
				c0,0-7.22,22.88-10.86,29.179c-3.926,6.795-10.445,10.484-10.445,10.484l-11.108,30.003l-31.726-21.912L118.504,233.841z"/>
			<g>
				<path style="fill:#FF9A6C;" d="M118.503,233.841c0,0-0.33,0.572-1,1.67c-0.679,1.105-1.678,2.732-2.986,4.86
					c-2.64,4.27-6.518,10.542-11.495,18.59l-0.035-0.166c8.534,5.876,19.259,13.26,31.758,21.866l-0.269,0.085
					c3.323-9.002,7.064-19.135,11.08-30.014c0.017-0.046,0.048-0.082,0.086-0.105l0.007-0.004c2.942-1.805,5.695-4.184,8.006-7.012
					c1.145-1.423,2.192-2.963,3.007-4.645c0.815-1.689,1.566-3.439,2.27-5.23c2.822-7.164,5.367-14.79,7.897-22.666
					c0.013-0.042,0.039-0.079,0.069-0.106c1.618-1.47,2.992-3.352,4.216-5.38c1.212-2.037,2.308-4.232,3.224-6.501
					c0.022-0.055,0.063-0.099,0.11-0.126c1.329-0.743,2.691-1.44,3.986-2.252c1.305-0.808,2.608-1.641,3.905-2.497
					c2.598-1.708,5.192-3.485,7.773-5.333c2.579-1.851,5.149-3.77,7.655-5.812c2.488-2.052,4.982-4.192,7.024-6.733
					c0.988-1.282,1.874-2.689,2.279-4.248c0.43-1.531,0.208-3.284-0.893-4.461c-0.527-0.587-1.212-1.052-1.961-1.296
					c-0.747-0.266-1.494-0.052-2.209,0.353c-1.407,0.829-2.622,2.034-3.881,3.166c-1.245,1.142-2.56,2.308-4.045,3.178
					c-1.45,0.907-2.904,1.816-4.363,2.729c-2.918,1.824-5.852,3.66-8.803,5.505c-0.122,0.076-0.282,0.039-0.358-0.083
					c-0.063-0.1-0.046-0.229,0.029-0.314c1.539-1.725,3.201-3.588,4.869-5.457c4.662-5.295,9.253-10.567,13.57-15.946
					c1.074-1.348,2.127-2.706,3.13-4.089c0.99-1.397,1.933-2.791,2.41-4.404c0.507-1.568,0.561-3.337-0.294-4.709
					c-0.852-1.365-2.448-2.168-4.002-2.484l0.207-0.06c-6.15,5.336-12.192,10.578-18.105,15.709
					c-0.105,0.091-0.263,0.08-0.354-0.025c-0.081-0.094-0.078-0.234-0.002-0.326c2.558-3.13,4.993-6.354,6.87-9.812
					c0.45-0.87,0.891-1.751,1.145-2.677c0.302-0.911,0.429-1.878,0.28-2.79c-0.143-0.912-0.63-1.743-1.359-2.308
					c-0.727-0.558-1.637-0.919-2.533-1.06l0.2-0.07c-6.983,7.002-13.717,13.755-20.179,20.235c-0.089,0.089-0.234,0.09-0.323,0.001
					c-0.073-0.072-0.086-0.182-0.041-0.268c1.829-3.479,3.616-6.877,5.364-10.201c0.407-0.839,0.783-1.675,1.036-2.553
					c0.158-0.43,0.194-0.883,0.298-1.321c0.015-0.443,0.097-0.893,0.019-1.327c-0.071-0.874-0.421-1.71-1.03-2.318
					c-0.594-0.614-1.42-1.021-2.24-1.185l0.195-0.074c-4.544,5.421-8.846,10.555-12.949,15.45l0.03-0.048
					c-2.636,6.082-5.182,11.862-7.72,17.28c-0.642,1.351-1.273,2.684-1.941,3.978c-0.331,0.649-0.669,1.286-1.054,1.907
					c-0.432,0.635-0.773,1.163-1.12,1.797c-1.369,2.455-2.609,4.89-3.827,7.23c-4.825,9.389-8.899,17.535-12.241,24.194
					c-3.331,6.658-5.922,11.836-7.685,15.361c-0.879,1.751-1.551,3.088-2.008,3.999C118.75,233.386,118.503,233.841,118.503,233.841
					s0.211-0.472,0.649-1.381c0.446-0.916,1.101-2.262,1.958-4.024c1.742-3.536,4.301-8.73,7.591-15.408
					c3.312-6.674,7.358-14.834,12.159-24.24c1.212-2.346,2.444-4.781,3.814-7.252c0.322-0.606,0.759-1.269,1.127-1.818
					c0.367-0.595,0.706-1.233,1.032-1.878c0.661-1.288,1.289-2.621,1.926-3.971c2.522-5.416,5.057-11.202,7.68-17.285
					c0.008-0.018,0.018-0.035,0.03-0.049c4.094-4.902,8.388-10.043,12.923-15.472l0.006-0.007c0.048-0.057,0.121-0.08,0.19-0.067
					c0.939,0.187,1.805,0.617,2.484,1.305c0.684,0.678,1.078,1.627,1.155,2.577c0.082,0.477-0.001,0.952-0.019,1.428
					c-0.106,0.46-0.147,0.942-0.309,1.386c-0.26,0.91-0.652,1.782-1.063,2.632c-1.745,3.327-3.528,6.729-5.354,10.213l-0.364-0.268
					c6.455-6.486,13.183-13.245,20.159-20.255l0.007-0.007c0.052-0.053,0.125-0.073,0.193-0.063c1.01,0.159,1.957,0.536,2.778,1.159
					c0.815,0.625,1.383,1.589,1.541,2.609c0.167,1.02,0.022,2.061-0.291,3.014c-0.27,0.977-0.721,1.878-1.179,2.766
					c-1.91,3.521-4.345,6.744-6.924,9.905l-0.356-0.352c5.911-5.134,11.95-10.378,18.098-15.717l0.006-0.005
					c0.057-0.05,0.132-0.067,0.201-0.055c0.874,0.165,1.682,0.475,2.444,0.915c0.748,0.445,1.455,1.029,1.916,1.803
					c0.966,1.549,0.881,3.501,0.351,5.135c-0.289,0.82-0.588,1.639-1.053,2.389c-0.433,0.761-0.939,1.454-1.43,2.165
					c-1.011,1.395-2.068,2.759-3.146,4.111c-4.327,5.394-8.92,10.668-13.586,15.968c-1.669,1.871-3.333,3.735-4.874,5.462
					l-0.33-0.396c2.948-1.843,5.881-3.677,8.797-5.5c2.892-1.878,5.946-3.435,8.339-5.85c1.262-1.13,2.469-2.343,3.977-3.234
					c0.388-0.205,0.792-0.402,1.247-0.486c0.447-0.125,0.956-0.026,1.37,0.092c0.85,0.277,1.599,0.789,2.189,1.445
					c1.233,1.314,1.471,3.299,1.006,4.929c-0.436,1.669-1.359,3.121-2.373,4.437c-2.096,2.604-4.605,4.747-7.106,6.811
					c-2.519,2.05-5.097,3.973-7.683,5.827c-2.588,1.852-5.189,3.63-7.793,5.34c-1.301,0.858-2.607,1.691-3.92,2.503
					c-1.316,0.823-2.681,1.521-4.008,2.26l0.11-0.126c-0.934,2.308-2.036,4.508-3.266,6.573c-1.242,2.053-2.636,3.966-4.314,5.487
					l0.069-0.106c-2.541,7.884-5.094,15.507-7.933,22.689c-0.709,1.796-1.465,3.553-2.292,5.261
					c-0.834,1.715-1.901,3.278-3.066,4.722c-2.357,2.871-5.124,5.26-8.138,7.102l0.093-0.109
					c-4.036,10.871-7.796,20.997-11.136,29.993c-0.034,0.093-0.137,0.14-0.229,0.106c-0.014-0.005-0.028-0.013-0.04-0.021
					c-12.473-8.641-23.177-16.057-31.694-21.958c-0.054-0.037-0.069-0.111-0.035-0.166c5.018-8.02,8.929-14.27,11.592-18.524
					c1.331-2.114,2.349-3.731,3.04-4.828C118.135,234.391,118.503,233.841,118.503,233.841z"/>
			</g>
		</g>
		<g>
			<path style="fill:#FF9A6C;" d="M185.128,155.928c0.027,0.024-0.37,0.523-1.11,1.407c-0.742,0.882-1.836,2.141-3.213,3.675
				c-2.762,3.058-6.664,7.215-11.256,11.521c-3.641,3.418-7.184,6.395-10.156,8.631l-0.033,0.025l-0.037,0.01
				c-2.741,0.775-4.801,1.97-6.146,2.89c-1.347,0.93-2.024,1.571-2.061,1.529c-0.014-0.015,0.141-0.189,0.457-0.495
				c0.319-0.302,0.802-0.732,1.464-1.23c1.318-0.989,3.382-2.261,6.169-3.1l-0.069,0.035c2.922-2.276,6.426-5.268,10.057-8.676
				c4.579-4.293,8.514-8.401,11.342-11.391c1.363-1.456,2.488-2.657,3.332-3.56C184.653,156.359,185.101,155.904,185.128,155.928z"
				/>
		</g>
		<g>
			<path style="fill:#FF9A6C;" d="M167.275,159.199c0.052,0.046-0.668,0.964-1.901,2.39c-1.233,1.425-2.988,3.349-4.974,5.426
				c-1.938,2.006-3.69,3.819-5.11,5.289c-1.313,1.348-2.136,2.173-2.191,2.124c-0.052-0.046,0.675-0.959,1.921-2.374
				c1.244-1.416,3.019-3.322,5.003-5.398c1.926-2.015,3.667-3.838,5.078-5.315C166.401,159.981,167.219,159.15,167.275,159.199z"/>
		</g>
		<g>
			<path style="fill:#FFBF9D;" d="M159.545,191.302c7.668-2.527,14.993-6.091,21.714-10.565"/>
			<g>
				<path style="fill:#FF9A6C;" d="M181.258,180.738c0.02,0.03-0.245,0.244-0.741,0.606c-0.495,0.364-1.231,0.863-2.155,1.456
					c-1.848,1.187-4.476,2.716-7.491,4.185c-3.018,1.466-5.843,2.591-7.917,3.312c-1.037,0.361-1.883,0.632-2.475,0.797
					c-0.591,0.167-0.923,0.244-0.934,0.209c-0.025-0.075,1.247-0.544,3.28-1.351c2.033-0.806,4.818-1.977,7.818-3.435
					c2.997-1.46,5.637-2.929,7.527-4.031C180.06,181.384,181.215,180.672,181.258,180.738z"/>
			</g>
		</g>
	</g>
	<g>
		<path style="fill:#FF725E;" d="M115.161,237.739c-1.109,1.479-34.011,51.017-34.011,51.017s-31.074,48.411-35.614,62.031
			c-6.628,19.888-8.108,54.361,13.333,63.604c21.442,9.242,28.832,9.541,54.71-0.441s44.74-25.575,44.74-25.575l-5.081-90.096
			l-20.868,10.71l17.958-48.217L115.161,237.739z"/>
		<path style="fill:#FF725E;" d="M391.562,314.455c0,0,16.709,13.37,22.757,58.921c3.818,28.756,14.652,98.916,14.652,98.916
			l-63.196-0.001c0,0-12.652-90.241-11.359-91.602C355.71,379.329,391.562,314.455,391.562,314.455z"/>
		<path style="fill:#FF725E;" d="M153.239,298.277l68.372-14.257c0,0,5.326,28.32,41.085,22.155
			c36.787-6.343,37.231-31.629,37.231-31.629s61.354,21.066,73.229,26.379c11.875,5.314,18.407,13.531,18.407,13.531
			s-21.8,84.593-22.478,85.656c-0.679,1.063-1.357,72.619-3.054,72.265c-1.697-0.354-203.539-1.078-203.539-1.078l-6.136-84.77
			l-21.044-72.851L153.239,298.277z"/>
		<g>
			<path style="fill:#263238;" d="M141.69,285.048c0.017,0.007-0.082,0.295-0.285,0.836c-0.224,0.582-0.527,1.369-0.908,2.36
				c-0.782,2.052-1.926,5.014-3.27,8.702c-2.711,7.367-6.193,17.637-9.938,29.016c-1.849,5.707-3.831,11.056-4.939,16.124
				c-0.607,2.522-1.165,4.929-1.795,7.157c-0.611,2.231-1.344,4.273-2.071,6.096c-0.72,1.825-1.317,3.491-1.815,4.969
				c-0.495,1.485-1.055,2.719-1.528,3.709c-0.475,0.991-0.861,1.752-1.129,2.264c-0.268,0.513-0.416,0.778-0.433,0.77
				c-0.016-0.008,0.101-0.289,0.338-0.816c0.256-0.568,0.603-1.336,1.039-2.303c0.444-1.003,0.97-2.233,1.436-3.717
				c0.471-1.486,1.049-3.173,1.748-5.009c1.479-3.637,2.592-8.166,3.743-13.232c1.089-5.098,3.068-10.487,4.911-16.176
				c3.745-11.38,7.285-21.641,10.087-28.981c1.389-3.674,2.587-6.619,3.427-8.649c0.42-0.976,0.753-1.751,0.999-2.324
				C141.542,285.316,141.673,285.042,141.69,285.048z"/>
		</g>
		<g>
			<path style="fill:#263238;" d="M158.878,421.378c-0.014,0.001-0.041-0.2-0.08-0.587c-0.039-0.426-0.09-0.992-0.155-1.708
				c-0.122-1.537-0.294-3.709-0.509-6.431c-0.403-5.552-0.969-13.338-1.632-22.465l0.005,0.035
				c-1.253-5.672-2.72-11.884-4.455-18.342c-3.561-13.378-7.773-25.23-11.786-33.361c-1.938-4.102-3.949-7.18-5.337-9.296
				c-0.728-1.035-1.354-1.796-1.743-2.339c-0.182-0.249-0.33-0.451-0.449-0.614c-0.099-0.14-0.147-0.215-0.14-0.221
				c0.007-0.006,0.068,0.057,0.18,0.186c0.13,0.154,0.291,0.345,0.49,0.582c0.417,0.522,1.071,1.266,1.828,2.288
				c1.445,2.088,3.514,5.154,5.502,9.25c4.113,8.121,8.392,19.99,11.959,33.39c1.738,6.468,3.194,12.692,4.424,18.374l0.004,0.018
				l0.001,0.017c0.587,9.132,1.087,16.923,1.444,22.478c0.157,2.726,0.283,4.901,0.372,6.44c0.033,0.718,0.059,1.287,0.079,1.714
				C158.891,421.175,158.891,421.377,158.878,421.378z"/>
		</g>
		<g>
			<path style="fill:#263238;" d="M365.776,472.292c-0.009,0-0.017-0.112-0.023-0.33c-0.004-0.246-0.009-0.565-0.016-0.968
				c-0.003-0.885-0.007-2.133-0.012-3.723c0.013-3.267,0.031-7.937,0.054-13.695c0.096-11.595,0.228-27.563,0.375-45.216l0-0.016
				l0.002-0.016c0.012-0.087,0.024-0.181,0.037-0.275c2.371-17.562,4.518-33.458,6.076-45.002c0.799-5.73,1.447-10.378,1.901-13.629
				c0.232-1.582,0.414-2.823,0.543-3.702c0.064-0.4,0.115-0.717,0.154-0.961c0.038-0.216,0.061-0.326,0.07-0.325
				c0.009,0.001,0.003,0.114-0.017,0.332c-0.026,0.246-0.06,0.565-0.103,0.968c-0.106,0.883-0.255,2.128-0.446,3.715
				c-0.414,3.257-1.006,7.912-1.736,13.651c-1.52,11.549-3.613,27.452-5.925,45.022c-0.013,0.094-0.025,0.189-0.037,0.276
				l0.002-0.031c-0.206,17.652-0.393,33.62-0.528,45.214c-0.092,5.758-0.167,10.427-0.219,13.694
				c-0.037,1.59-0.065,2.837-0.086,3.722c-0.015,0.403-0.026,0.722-0.035,0.968C365.795,472.18,365.785,472.292,365.776,472.292z"/>
		</g>
		<g>
			<path style="fill:#263238;" d="M220.11,305.581c-0.124-0.024,0.646-2.625,2.748-5.152c2.08-2.545,4.482-3.802,4.529-3.686
				c0.094,0.134-2.115,1.551-4.128,4.017C221.223,303.205,220.26,305.647,220.11,305.581z"/>
		</g>
		<g>
			<path style="fill:#263238;" d="M230.412,312.081c-0.125,0.024-0.239-2.489,1.048-5.225c1.26-2.749,3.248-4.286,3.311-4.176
				c0.119,0.113-1.634,1.76-2.838,4.396C230.695,309.695,230.575,312.099,230.412,312.081z"/>
		</g>
		<g>
			<path style="fill:#263238;" d="M243.939,317.79c-0.144,0-0.26-2.556-0.26-5.709c0-3.154,0.117-5.709,0.26-5.709
				s0.26,2.556,0.26,5.709C244.199,315.234,244.083,317.79,243.939,317.79z"/>
		</g>
		<g>
			<path style="fill:#263238;" d="M260.37,317.196c-0.105,0.076-1.536-1.959-2.468-4.853c-0.949-2.889-0.988-5.377-0.858-5.377
				c0.157-0.016,0.425,2.397,1.353,5.216C259.305,315.007,260.507,317.117,260.37,317.196z"/>
		</g>
		<g>
			<path style="fill:#263238;" d="M276.838,315.083c-0.131,0.059-1.38-2.441-2.79-5.583c-1.41-3.143-2.446-5.737-2.315-5.796
				c0.131-0.059,1.38,2.44,2.79,5.583C275.932,312.429,276.969,315.025,276.838,315.083z"/>
		</g>
		<g>
			<path style="fill:#263238;" d="M292.872,307.947c-0.133,0.081-1.642-2.293-3.861-4.937c-2.207-2.656-4.272-4.565-4.169-4.681
				c0.082-0.103,2.329,1.654,4.569,4.347C291.661,305.359,292.988,307.884,292.872,307.947z"/>
		</g>
		<g>
			<path style="fill:#263238;" d="M304.966,298.122c-0.117,0.111-2.227-2.161-5.336-4.33c-3.095-2.191-5.945-3.41-5.88-3.558
				c0.025-0.061,0.771,0.166,1.919,0.683c1.147,0.515,2.686,1.344,4.261,2.449c1.573,1.108,2.873,2.275,3.745,3.181
				C304.55,297.452,305.015,298.078,304.966,298.122z"/>
		</g>
		<g>
			<path style="fill:#263238;" d="M311.683,285.943c-0.104,0.139-2.485-2.242-6.298-3.563c-3.795-1.374-7.143-1.032-7.136-1.206
				c-0.007-0.058,0.811-0.226,2.156-0.217c1.341,0.006,3.21,0.246,5.154,0.932c1.941,0.691,3.544,1.682,4.588,2.524
				C311.197,285.255,311.725,285.902,311.683,285.943z"/>
		</g>
		<g>
			<path style="fill:#263238;" d="M212.157,295.372c-0.087-0.095,2.017-1.943,5.125-3.381c3.1-1.457,5.867-1.884,5.884-1.756
				c0.037,0.155-2.628,0.8-5.664,2.228C214.458,293.87,212.252,295.5,212.157,295.372z"/>
		</g>
		<g>
			<path style="fill:#263238;" d="M202.105,457.71c-0.004-0.008,0.092-0.062,0.281-0.16c0.216-0.108,0.495-0.246,0.847-0.421
				c0.781-0.375,1.879-0.902,3.278-1.574c2.882-1.374,6.998-3.337,12.071-5.756c10.185-4.876,24.209-11.705,39.575-19.495
				c15.368-7.797,29.166-15.078,39.117-20.414c4.949-2.664,8.964-4.824,11.775-6.337c1.369-0.732,2.443-1.306,3.206-1.715
				c0.349-0.18,0.626-0.324,0.84-0.434c0.191-0.095,0.29-0.14,0.295-0.132c0.004,0.008-0.087,0.068-0.269,0.179
				c-0.208,0.122-0.477,0.281-0.815,0.48c-0.752,0.429-1.811,1.032-3.159,1.8c-2.747,1.557-6.743,3.775-11.698,6.484
				c-9.908,5.42-23.683,12.755-39.057,20.554c-15.371,7.792-29.425,14.572-39.652,19.363c-5.113,2.397-9.263,4.311-12.143,5.607
				c-1.417,0.634-2.529,1.132-3.32,1.485c-0.361,0.155-0.647,0.279-0.869,0.374C202.212,457.68,202.109,457.718,202.105,457.71z"/>
		</g>
	</g>
</g>
</svg>
