<svg width="364" height="364" viewBox="0 0 364 364" fill="none" xmlns="http://www.w3.org/2000/svg">
<rect width="364" height="364" fill="#B4E8FF"/>
<path d="M22.5811 154.428C23.6039 155.192 48.4425 181.092 48.4425 181.092L50.3266 170.14L74.2319 187.74L45.1345 154.803L43.3436 166.86L22.5811 154.428Z" fill="#F5F5F5"/>
<path d="M321.837 220.606C321.226 220.567 304.465 216.662 304.465 216.662L306.575 221.556L292.362 220.742L312.676 226.359L310.24 221.046L321.837 220.606Z" fill="#EBEBEB"/>
<path d="M63.1442 207.013C62.5334 206.973 45.7756 203.057 45.7756 203.057L47.8817 207.952L33.6689 207.127L53.9794 212.759L51.5464 207.444L63.1442 207.013Z" fill="#EBEBEB"/>
<path d="M293.311 323.281C292.593 322.905 274.416 309.178 274.416 309.178L274.34 316.231L257.584 307.612L279.139 325.32L279.046 317.584L293.311 323.281Z" fill="#EBEBEB"/>
<path d="M331.059 163.061C329.895 163.634 295.014 174.167 295.014 174.167L304.054 180.92L277.11 194.434L320.322 183.292L310.24 176.114L331.059 163.061Z" fill="#F5F5F5"/>
<path d="M81.7182 294.344C80.5549 294.917 45.6735 305.45 45.6735 305.45L54.7131 312.203L27.7705 325.717L70.9824 314.575L60.9003 307.397L81.7182 294.344Z" fill="#F5F5F5"/>
<path d="M237.308 105.644C236.969 106.415 224.043 126.256 224.043 126.256L231.363 125.827L223.631 143.826L240.443 120.195L232.427 120.849L237.308 105.644Z" fill="#EBEBEB"/>
<path d="M282.519 138.45C285.071 137.579 286.334 134.133 284.95 131.819C283.565 129.506 279.931 128.99 277.957 130.828C276.695 127.756 275.432 124.684 274.17 121.612L270.511 124.771C270.832 125.997 271.153 127.222 271.473 128.447C269.909 128.696 268.506 129.79 267.885 131.246C267.263 132.702 267.442 134.473 268.344 135.774C265.706 135.834 262.828 136.448 261.205 138.528C259.621 140.558 259.726 143.627 261.187 145.746C262.648 147.866 265.256 149.042 267.83 149.093C270.404 149.144 272.927 148.166 275.039 146.693C277.152 148.886 281.14 148.825 283.187 146.57C285.232 144.317 284.905 140.341 282.519 138.45Z" fill="#F5F5F5"/>
<path d="M315.423 38.4303C314.254 36.1262 312.806 33.8017 310.531 32.5765C308.256 31.3512 304.965 31.6774 303.636 33.8942C302.263 30.4776 298.21 28.6686 294.55 29.0762C290.891 29.4839 287.65 31.7043 285.12 34.3805C283.889 35.6836 282.744 37.2044 282.517 38.9836C282.394 39.9511 282.647 40.9878 283.178 41.7973C281.556 41.2892 279.542 41.7638 278.41 43.099C276.751 45.0566 276.943 48.1586 278.435 50.2458C279.928 52.3329 282.455 53.4919 284.994 53.8683C286.198 54.0466 287.474 54.086 288.521 54.7069C289.925 55.5405 290.591 57.2746 290.583 58.9082C290.575 60.5411 290.322 66.1118 290.466 67.8372H296.935C297.295 65.3933 298.915 59.685 299.14 57.6779C300.799 59.0393 303.232 59.3814 305.201 58.5282C307.17 57.6757 308.586 55.6679 308.728 53.5269C308.799 52.4458 308.728 51.0684 309.711 50.6134C310.348 50.3178 311.082 50.6185 311.775 50.7364C314.404 51.1849 316.832 48.7148 317.255 46.0809C317.678 43.4462 316.63 40.8087 315.423 38.4303Z" fill="#F5F5F5"/>
<path d="M290.275 62.8641C290.275 62.8641 287.594 76.8417 288.552 81.2454C289.509 85.649 291.615 85.649 291.615 85.649C291.615 85.649 291.807 88.0427 292.477 91.5844C293.148 95.1269 295.062 96.371 293.913 101.062C293.913 101.062 285.489 99.0515 282.426 105.562C279.362 112.072 279.649 119.061 283.574 122.89C287.5 126.719 293.713 134.158 307.7 129.879C320.002 126.114 326.162 116.927 328.121 105.583C330.043 94.4513 324.357 71.7683 300.328 76.6502C300.328 76.6502 297.168 76.9378 297.743 73.0124C298.317 69.087 298.509 62.1943 298.509 62.1943L290.275 62.8641Z" fill="#EBEBEB"/>
<path d="M283.567 105.677C283.567 105.677 280.397 103.956 276.593 103.321C274.264 102.933 267.626 104.499 266.992 111.382C266.358 118.265 269.438 127.956 269.438 127.956L276.774 125.964C276.774 125.964 275.157 119.541 274.871 115.361C274.6 111.382 277.21 111.49 279.303 112.403C282.836 113.942 282.389 116.364 282.389 116.364L283.567 105.677Z" fill="#EBEBEB"/>
<path d="M295.791 79.2819C295.826 79.3351 295.39 79.6387 294.787 80.2283C294.182 80.8151 293.438 81.7222 292.865 82.8703C292.297 84.0212 292.025 85.1635 291.925 85.9999C291.821 86.8371 291.843 87.3678 291.779 87.3722C291.739 87.3773 291.62 86.848 291.658 85.9759C291.692 85.1081 291.933 83.9011 292.526 82.7014C293.122 81.5038 293.937 80.5821 294.607 80.0296C295.277 79.4727 295.77 79.2463 295.791 79.2819Z" fill="#E0E0E0"/>
<path d="M302.529 107.793C302.431 107.873 301.002 105.7 298.445 103.872C295.907 102.014 293.397 101.337 293.442 101.219C293.453 101.176 294.091 101.287 295.074 101.643C296.056 101.996 297.37 102.628 298.667 103.564C299.961 104.503 300.973 105.554 301.615 106.376C302.261 107.198 302.566 107.769 302.529 107.793Z" fill="#E0E0E0"/>
<path d="M280.226 112.846C280.184 112.852 280.049 112.291 280.043 111.361C280.035 110.434 280.203 109.14 280.706 107.806C281.213 106.474 281.946 105.394 282.566 104.706C283.187 104.013 283.661 103.683 283.688 103.715C283.784 103.795 282.027 105.331 281.06 107.941C280.054 110.535 280.352 112.851 280.226 112.846Z" fill="#E0E0E0"/>
<path d="M274.053 61.0193C272.919 59.6492 270.788 59.2277 269.218 60.062C267.648 60.8963 266.805 62.8983 267.306 64.6054C265.753 64.735 264.38 66.0418 264.172 67.5851C263.965 69.1285 264.945 70.7512 266.407 71.2863C267.87 71.8214 269.666 71.2142 270.503 69.9016C270.892 72.2254 273.863 73.6829 275.939 72.5676C278.014 71.4523 278.44 68.1697 276.716 66.563C278.607 66.3002 279.878 63.9633 279.071 62.2329C278.263 60.5031 275.656 59.9761 274.24 61.2566" fill="#F5F5F5"/>
<path d="M295.923 138.07C294.504 138.581 294.025 140.712 295.091 141.78C296.157 142.848 298.289 142.374 298.802 140.955C299.316 139.537 297.98 137.808 296.477 137.947" fill="#F5F5F5"/>
<path d="M266.638 48.3663C265.218 48.8766 264.74 51.0082 265.806 52.0762C266.872 53.1441 269.004 52.6702 269.517 51.2513C270.031 49.8325 268.695 48.1042 267.192 48.2432" fill="#F5F5F5"/>
<path d="M283.78 118.007C283.761 118.02 283.614 117.83 283.394 117.458C283.173 117.086 282.898 116.518 282.653 115.782C282.155 114.323 281.869 112.09 282.535 109.781C283.205 107.473 284.639 105.737 285.838 104.771C286.44 104.279 286.975 103.946 287.36 103.749C287.744 103.551 287.97 103.47 287.98 103.491C288.016 103.553 287.144 103.96 286.014 104.974C284.888 105.969 283.543 107.668 282.9 109.887C282.26 112.106 282.49 114.261 282.91 115.704C283.325 117.164 283.844 117.974 283.78 118.007Z" fill="white"/>
<path d="M295.743 92.0401C295.714 92.0656 295.3 91.6528 294.862 90.8258C294.422 90.0054 294.017 88.7416 293.996 87.3059C293.98 85.8696 294.354 84.5963 294.773 83.7649C295.191 82.927 295.594 82.5048 295.623 82.5288C295.677 82.5659 295.358 83.0384 295.018 83.8741C294.674 84.7063 294.36 85.9278 294.374 87.3008C294.395 88.6739 294.739 89.8874 295.104 90.7101C295.465 91.5371 295.797 92.0015 295.743 92.0401Z" fill="white"/>
<path d="M290.293 75.8132C290.199 75.827 289.972 74.0863 290.359 71.978C290.733 69.8668 291.554 68.3155 291.637 68.3613C291.743 68.4058 291.096 69.9884 290.732 72.045C290.354 74.0994 290.408 75.8088 290.293 75.8132Z" fill="white"/>
<path d="M268.577 114.878C268.491 114.915 268.064 113.241 268.614 111.248C269.143 109.248 270.355 108.018 270.411 108.094C270.507 108.163 269.48 109.442 268.979 111.347C268.453 113.244 268.695 114.867 268.577 114.878Z" fill="white"/>
<path d="M345.604 346.98C345.604 347.19 272.35 347.359 182.008 347.359C91.6338 347.359 18.3955 347.19 18.3955 346.98C18.3955 346.77 91.6338 346.601 182.008 346.601C272.35 346.601 345.604 346.771 345.604 346.98Z" fill="#263238"/>
<path d="M77.7195 53.8363L62.1745 37.7402L58.3117 63.2006L37.4858 62.4951L50.5178 79.609L37.4043 96.8182L59.1198 92.5368L62.2589 114.386L79.8147 101.086L101.953 112.678L97.1076 90.3128L122.225 86.3583L102.689 74.8297L114.078 55.1868L94.5552 62.8206L92.1812 38.5935L77.7195 53.8363Z" fill="white"/>
<path d="M77.7194 53.8364C77.7194 53.8364 78.0419 53.4804 78.6701 52.8092C79.3028 52.1358 80.2346 51.1435 81.454 49.8447C83.8994 47.2501 87.495 43.4362 92.117 38.5331L92.2495 38.3926L92.2684 38.5848C92.9229 45.1586 93.7375 53.3464 94.6796 62.809L94.51 62.7049C100.361 60.4102 106.949 57.8258 114.025 55.0514L114.414 54.8985L114.205 55.2603C110.69 61.3333 106.861 67.9472 102.83 74.9112L102.772 74.6892C108.991 78.3547 115.53 82.2094 122.314 86.2083L122.733 86.4559L122.252 86.5316C114.241 87.7954 105.816 89.1247 97.1351 90.4941L97.2858 90.2735C98.8314 97.4006 100.467 104.943 102.136 112.638L102.222 113.031L101.865 112.845C95.733 109.635 89.2553 106.244 82.6858 102.805C81.6972 102.287 80.71 101.77 79.7257 101.255L79.9281 101.238C73.9774 105.745 68.1163 110.184 62.3709 114.536L62.1169 114.728L62.0717 114.413C61.003 106.961 59.9569 99.6683 58.9377 92.563L59.1539 92.7167C51.6868 94.1858 44.441 95.6119 37.4369 96.99L36.9834 97.0788L37.2637 96.7119C41.8144 90.746 46.1955 85.0035 50.3859 79.51V79.7088C45.7878 73.6613 41.4497 67.9559 37.3663 62.5855L37.177 62.3365L37.4894 62.3474C45.0496 62.6109 51.9635 62.8519 58.3145 63.0732L58.1835 63.1817C59.7196 53.1593 61.0256 44.6337 62.0841 37.7272L62.1118 37.5474L62.2377 37.6784C67.2602 42.9105 71.1259 46.9386 73.7416 49.6642C75.0462 51.0285 76.0384 52.0666 76.7096 52.7684C77.3787 53.468 77.7194 53.8364 77.7194 53.8364C77.7194 53.8364 77.3794 53.5 76.7096 52.8157C76.0348 52.1234 75.0367 51.1013 73.7248 49.7559C71.0836 47.0376 67.1801 43.0212 62.1096 37.8029L62.2632 37.7541C61.2258 44.6636 59.9438 53.1935 58.4383 63.2203L58.4215 63.3331L58.3072 63.3295C51.9562 63.1205 45.0416 62.8934 37.4814 62.6444L37.6044 62.4064C41.6957 67.771 46.0419 73.4698 50.6487 79.5107L50.7244 79.6097L50.6487 79.7095C46.4641 85.2073 42.0896 90.9542 37.5447 96.9245L37.3714 96.6464C44.3748 95.2632 51.6198 93.832 59.0855 92.3578L59.2748 92.3206L59.3024 92.5114C60.3245 99.6166 61.3736 106.909 62.4459 114.359L62.1467 114.236C67.8914 109.884 73.7518 105.444 79.7017 100.936L79.7978 100.863L79.9041 100.919C80.8884 101.434 81.8748 101.951 82.8641 102.469C89.4336 105.909 95.9106 109.301 102.042 112.512L101.771 112.719C100.105 105.023 98.4725 97.48 96.9298 90.3521L96.8883 90.1621L97.0805 90.1323C105.762 88.7687 114.188 87.4452 122.199 86.1872L122.138 86.5105C115.358 82.5043 108.823 78.643 102.608 74.9709L102.468 74.8887L102.549 74.7489C106.59 67.7907 110.428 61.1826 113.952 55.1147L114.132 55.3244C107.05 58.085 100.457 60.6555 94.6017 62.9385L94.4473 62.9982L94.4313 62.8337C93.5184 53.369 92.7278 45.1783 92.0937 38.603L92.2451 38.6547C87.5758 43.5446 83.9438 47.3484 81.4729 49.9357C80.2463 51.2156 79.3086 52.1933 78.673 52.8572C78.0419 53.5117 77.7194 53.8364 77.7194 53.8364Z" fill="#263238"/>
<path d="M122.995 101.022C126.776 105.99 121.163 111.604 116.195 107.822C112.41 102.854 118.026 97.2368 122.995 101.022Z" fill="white"/>
<path d="M122.995 101.022C122.975 101.043 122.617 100.833 121.989 100.471C121.325 100.195 120.298 99.7809 119.008 99.9709C118.849 99.9979 118.687 100.025 118.521 100.052C118.36 100.098 118.202 100.167 118.036 100.224C117.695 100.315 117.4 100.541 117.07 100.719C116.469 101.17 115.911 101.771 115.547 102.536C115.21 103.311 115.078 104.209 115.202 105.118C115.328 106.036 115.793 106.898 116.341 107.699C117.084 108.192 117.991 108.701 118.895 108.813C119.805 108.938 120.702 108.807 121.478 108.47C122.244 108.106 122.845 107.549 123.296 106.947C123.474 106.618 123.7 106.323 123.792 105.981C123.85 105.816 123.917 105.657 123.964 105.496C123.991 105.331 124.019 105.169 124.045 105.01C124.235 103.72 123.822 102.693 123.547 102.028C123.183 101.4 122.974 101.042 122.995 101.022C123.004 101.013 123.068 101.09 123.185 101.248C123.298 101.407 123.475 101.641 123.676 101.959C123.999 102.619 124.475 103.671 124.31 105.044C124.286 105.213 124.261 105.387 124.235 105.563C124.19 105.735 124.123 105.906 124.066 106.083C123.973 106.449 123.743 106.769 123.555 107.124C123.086 107.777 122.447 108.384 121.625 108.786C120.794 109.161 119.821 109.312 118.839 109.18C118.598 109.127 118.355 109.074 118.109 109.019C117.867 108.957 117.643 108.835 117.406 108.743L117.054 108.594L116.73 108.39L116.405 108.181L116.242 108.076L116.16 108.024L116.12 107.998L116.099 107.985L116.089 107.978L116.084 107.975C116.111 108.002 116.042 107.935 116.048 107.94C115.456 107.082 114.968 106.164 114.835 105.173C114.704 104.192 114.856 103.219 115.231 102.389C115.632 101.567 116.241 100.929 116.893 100.46C117.249 100.272 117.569 100.042 117.935 99.9498C118.112 99.8923 118.283 99.8246 118.456 99.7802C118.632 99.7547 118.804 99.73 118.974 99.7052C120.347 99.5414 121.4 100.018 122.059 100.341C122.378 100.543 122.612 100.719 122.771 100.833C122.926 100.949 123.004 101.013 122.995 101.022Z" fill="#263238"/>
<path d="M81.5163 63.6673L80.532 80.1208C80.4512 81.4662 79.3811 82.5407 78.0357 82.6251C76.6168 82.7147 75.3771 81.6758 75.2154 80.2635L73.3321 63.7372C73.1894 62.4857 74.1759 61.3923 75.4353 61.4054L79.448 61.4476C80.6449 61.4607 81.5876 62.4726 81.5163 63.6673Z" fill="#FF725E"/>
<path d="M73.7071 91.894C74.4133 93.9958 76.6898 95.1278 78.7915 94.4216C80.8932 93.7162 82.0253 91.4398 81.3191 89.3373C80.613 87.2356 78.3365 86.1035 76.2348 86.8097C74.133 87.5158 73.001 89.7916 73.7071 91.894Z" fill="#FF725E"/>
<path d="M189.933 36.8148C188.529 33.7455 185.004 31.7967 181.658 32.2415C177.918 28.9647 171.833 28.7784 167.899 31.8192C165.049 29.9337 161.2 29.668 158.117 31.1458C155.035 32.6237 152.83 35.7905 152.515 39.1939C149.128 38.4804 145.373 40.1476 143.629 43.1374C141.885 46.1281 142.284 50.2172 144.574 52.814C140.797 53.8369 138.145 57.9617 138.782 61.8216C139.419 65.6814 143.257 68.7354 147.162 68.4893L187.982 46.0662C190.506 43.8254 191.337 39.884 189.933 36.8148Z" fill="#263238"/>
<path d="M145.947 69.5501C148.237 52.0439 163.588 39.2347 181.221 40.1113L182.973 40.1979C201.811 42.2407 210.6 59.38 208.037 78.1536L203.031 149.305L213.806 154.409L181.195 178.2L143.774 151.756L158.429 146.937L158.688 134.518C158.688 134.518 140.666 130.792 141.344 112.622C141.672 103.848 143.817 85.8318 145.947 69.5501Z" fill="#FFBF9D"/>
<path d="M158.689 134.519C158.689 134.519 170.102 135.76 182.679 128.704C182.679 128.704 176.622 142.072 158.584 139.536L158.689 134.519Z" fill="#FF9A6C"/>
<path d="M153.415 87.5655C153.298 88.932 154.36 90.1587 155.785 90.3057C157.208 90.4528 158.458 89.4678 158.574 88.1006C158.691 86.7334 157.63 85.506 156.207 85.3583C154.782 85.2112 153.532 86.1991 153.415 87.5655Z" fill="#263238"/>
<path d="M149.409 78.6284C149.713 78.9829 151.75 77.6259 154.541 77.7722C157.33 77.8778 159.307 79.4153 159.626 79.0892C159.782 78.9451 159.485 78.3182 158.626 77.6245C157.78 76.9343 156.315 76.2311 154.576 76.1524C152.837 76.076 151.343 76.6431 150.47 77.2561C149.579 77.872 149.258 78.4689 149.409 78.6284Z" fill="#263238"/>
<path d="M177.935 88.7913C177.819 90.1577 178.88 91.3837 180.306 91.5307C181.728 91.6785 182.978 90.6935 183.096 89.3256C183.212 87.9592 182.15 86.7317 180.727 86.584C179.302 86.4362 178.052 87.4248 177.935 88.7913Z" fill="#263238"/>
<path d="M176.813 80.5118C177.118 80.8656 179.157 79.5101 181.945 79.6564C184.733 79.7627 186.711 81.2995 187.03 80.9726C187.186 80.8292 186.893 80.2024 186.029 79.5086C185.184 78.8185 183.718 78.1159 181.979 78.0359C180.241 77.9587 178.747 78.5265 177.873 79.1395C176.986 79.7554 176.663 80.3524 176.813 80.5118Z" fill="#263238"/>
<path d="M165.658 100.704C165.679 100.545 163.959 100.159 161.167 99.6603C160.458 99.5518 159.79 99.3764 159.695 98.8843C159.553 98.3615 159.888 97.6081 160.275 96.7956C161.031 95.1052 161.821 93.3325 162.652 91.4739C165.963 83.894 168.396 77.647 168.09 77.5167C167.784 77.3864 164.852 83.4244 161.542 91.0044C160.743 92.8739 159.979 94.6568 159.252 96.3625C158.943 97.1589 158.432 98.0543 158.743 99.1405C158.909 99.6829 159.412 100.096 159.863 100.241C160.313 100.403 160.713 100.431 161.065 100.468C163.885 100.761 165.639 100.861 165.658 100.704Z" fill="#263238"/>
<path d="M188.653 75.4479C188.514 74.6616 185.999 74.6755 183.159 73.8819C180.301 73.1525 178.098 71.877 177.619 72.4987C177.403 72.7987 177.712 73.5623 178.555 74.4221C179.39 75.279 180.787 76.1781 182.496 76.636C184.204 77.091 185.839 77.0029 186.96 76.668C188.09 76.336 188.708 75.8192 188.653 75.4479Z" fill="#263238"/>
<path d="M160.188 72.8673C159.641 72.1968 157.298 72.7071 154.529 72.5615C151.756 72.4967 149.445 71.8102 148.864 72.4377C148.607 72.7442 148.935 73.4023 149.921 74.067C150.892 74.7287 152.549 75.325 154.454 75.3978C156.358 75.4684 158.043 74.9996 159.047 74.4128C160.065 73.8246 160.428 73.1927 160.188 72.8673Z" fill="#263238"/>
<path d="M148.107 61.3086C148.107 61.3086 153.461 50.1746 159.077 47.7933C165.875 44.9104 168.37 52.3389 174.785 50.8851C181.199 49.4313 187.689 46.6634 193.912 51.8752C200.722 57.579 197.22 61.1703 197.257 69.2489C197.406 102.003 202.913 111.537 205.374 96.2351C205.643 94.5585 210.388 93.4505 211.435 86.3627C212.793 77.1717 213.705 65.9758 211.97 59.3197C210.506 53.709 207.547 49.7363 202.108 45.2475C193.523 38.1626 181.283 37.4113 172.924 37.835C164.567 38.2587 148.056 47.0325 148.107 61.3086Z" fill="#263238"/>
<path d="M204.241 95.6834C204.495 92.8864 207.02 90.7934 209.799 91.1975C213.17 91.6874 216.843 93.7979 216.272 100.785C215.259 113.18 203.023 109.606 203.031 109.249C203.036 109.007 203.772 100.867 204.241 95.6834Z" fill="#FFBF9D"/>
<path d="M206.109 104.806C206.167 104.771 206.313 104.975 206.665 105.172C207.007 105.364 207.61 105.526 208.276 105.337C209.625 104.964 210.897 102.975 211.14 100.746C211.264 99.6208 211.115 98.5266 210.788 97.605C210.483 96.6673 209.949 95.9859 209.3 95.8148C208.656 95.6088 208.157 95.9655 207.977 96.3019C207.782 96.6353 207.841 96.8886 207.773 96.9046C207.736 96.933 207.524 96.6746 207.665 96.1708C207.737 95.9291 207.905 95.6488 208.216 95.4341C208.534 95.2164 208.981 95.1283 209.436 95.2164C210.386 95.3606 211.175 96.3099 211.534 97.3225C211.947 98.3432 212.139 99.575 212.001 100.838C211.717 103.33 210.248 105.563 208.414 105.933C207.523 106.09 206.817 105.767 206.465 105.444C206.107 105.107 206.064 104.825 206.109 104.806Z" fill="#FF9A6C"/>
<path d="M205.194 71.6184C203.527 72.6383 201.767 73.6895 199.815 73.7849C197.862 73.881 195.697 72.6543 195.464 70.7135C195.36 69.8421 195.621 68.8498 195.087 68.1538C194.448 67.3232 193.185 67.511 192.139 67.5693C188.511 67.7724 184.491 63.5769 183.747 60.0199C182.758 61.3521 180.72 61.6688 179.372 60.7013C178.023 59.7338 177.541 59.1965 176.512 57.8934C175.484 56.591 174.01 55.3985 172.357 55.55C171.432 55.6344 170.546 56.1389 169.627 56.0108C168.004 55.7851 167.302 53.8363 167.136 52.2063C166.97 50.5755 166.872 48.6784 165.536 47.7305C164.297 46.8518 162.615 47.2406 161.103 47.3869C159.591 47.534 157.67 47.0848 157.359 45.5982C157.196 44.8185 157.567 44.025 158.027 43.3742C160.111 40.4272 164.394 39.2843 167.669 40.8022C169.088 36.7603 173.083 33.758 177.36 33.5207C181.637 33.2834 185.94 35.8241 187.797 39.6847C190.539 37.4344 194.402 36.6249 197.817 37.5844C201.232 38.5439 204.107 41.2462 205.276 44.5958C208.335 43.9515 211.719 45.2903 213.51 47.8536C215.3 50.4168 215.393 54.0547 213.735 56.706C215.903 58.0914 217.703 60.4043 217.622 62.9763C217.54 65.5483 214.91 67.9842 212.464 67.1849C213.367 69.2356 212.416 71.9103 210.423 72.9317C208.429 73.9531 205.702 73.1617 204.565 71.2311" fill="#263238"/>
<path d="M166.565 44.4085C166.555 44.4085 166.552 44.4857 166.557 44.6364C166.566 44.7864 166.563 45.0128 166.603 45.3033C166.688 45.882 166.877 46.7425 167.385 47.7399C167.898 48.7227 168.712 49.87 169.992 50.812C171.245 51.7628 172.99 52.525 175.005 52.5148L174.809 52.2295C174.37 53.2719 174.412 54.5518 174.887 55.67C175.333 56.8049 176.073 57.8285 176.86 58.8288C177.265 59.3107 177.609 59.8698 178.178 60.3226C178.732 60.7572 179.409 61.0266 180.11 61.1504C181.501 61.3986 183.103 61.0441 184.177 59.9171L183.719 59.7613C183.912 62.2445 185.193 64.7838 187.348 66.4C188.486 67.3114 189.92 67.9055 191.359 67.9382C192.797 67.9957 194.153 67.6405 195.42 67.2561L195.095 67.0938C195.685 68.6706 196.646 70.0378 197.843 71.0715C199.017 72.1024 200.618 72.7525 202.11 72.4642C205.071 71.9896 207.136 69.649 207.641 67.374L207.354 67.4912C208.768 68.3561 210.325 68.5097 211.589 68.3299C212.869 68.161 213.893 67.6587 214.629 67.1513C215.37 66.6322 215.819 66.084 216.092 65.7033C216.345 65.3051 216.452 65.0837 216.438 65.0765C216.379 65.0219 215.98 65.9996 214.512 66.9773C213.781 67.4425 212.782 67.8982 211.551 68.0307C210.336 68.1763 208.863 67.9957 207.558 67.1702L207.332 67.0268L207.27 67.2874C206.77 69.4081 204.785 71.5892 202.041 71.9983C200.69 72.2451 199.283 71.6649 198.171 70.6893C197.053 69.7153 196.138 68.3976 195.591 66.9161L195.504 66.6817L195.266 66.7538C194.019 67.1287 192.71 67.4599 191.381 67.4024C190.051 67.3646 188.764 66.836 187.679 65.9719C185.643 64.4431 184.44 62.0669 184.246 59.7155L184.197 59.1243L183.788 59.5597C182.881 60.525 181.446 60.8686 180.196 60.6473C179.567 60.5403 178.967 60.3037 178.483 59.9281C178.011 59.5684 177.651 59.0137 177.24 58.5274C176.453 57.5438 175.733 56.5589 175.308 55.5025C174.855 54.4571 174.815 53.3324 175.192 52.3874L175.309 52.0962L174.996 52.1013C173.096 52.1348 171.413 51.4396 170.188 50.5456C168.936 49.6625 168.12 48.572 167.59 47.6321C166.554 45.6971 166.656 44.3838 166.565 44.4085Z" fill="#455A64"/>
<path d="M172.135 107.371C171.767 106.758 171.313 106.184 170.724 105.778C169.63 105.025 168.183 104.94 166.89 105.25C165.801 105.51 164.593 106.242 163.762 106.999C162.205 108.416 162.565 109.997 162.87 113.55C166.389 113.095 169.896 114.04 173.249 112.881C173.517 110.989 173.117 109.01 172.135 107.371Z" fill="#FF9A6C"/>
<path d="M163.762 106.594C163.778 106.585 163.795 106.576 163.812 106.567L163.814 106.564L163.762 106.594Z" fill="#FF9A6C"/>
<path d="M162.87 113.55C162.855 113.451 164.388 113.17 166.878 113.11C168.12 113.069 169.592 113.053 171.209 112.913C171.411 112.895 171.615 112.875 171.822 112.855C172.033 112.83 172.243 112.822 172.392 112.776C172.73 112.675 172.941 112.498 173.014 112.164C173.096 111.826 173.055 111.399 172.984 110.961C172.912 110.509 172.836 110.055 172.739 109.604C172.545 108.706 172.271 107.852 171.81 107.177C171.357 106.495 170.697 106.05 169.967 105.839C169.238 105.62 168.487 105.601 167.778 105.643C167.071 105.684 166.419 105.786 165.85 105.96C164.704 106.297 163.931 106.921 163.514 107.442C163.089 107.962 162.93 108.319 162.87 108.292C162.834 108.28 162.897 107.882 163.276 107.268C163.644 106.656 164.454 105.884 165.682 105.451C166.289 105.227 166.985 105.088 167.732 105.016C168.471 104.946 169.308 104.933 170.161 105.168C171.013 105.384 171.878 105.944 172.421 106.754C172.978 107.555 173.275 108.5 173.481 109.444C173.583 109.918 173.66 110.387 173.73 110.845C173.798 111.313 173.864 111.811 173.735 112.346C173.669 112.611 173.529 112.889 173.304 113.094C173.087 113.293 172.83 113.411 172.578 113.476C172.311 113.544 172.092 113.543 171.888 113.564C171.677 113.58 171.467 113.595 171.26 113.61C169.605 113.714 168.119 113.673 166.881 113.647C164.408 113.569 162.884 113.658 162.87 113.55Z" fill="#263238"/>
<path d="M184.612 94.1301C184.49 94.3193 182.926 93.3657 180.76 93.1211C178.597 92.8386 176.85 93.3882 176.777 93.1757C176.743 93.0854 177.142 92.8197 177.877 92.5962C178.607 92.3719 179.681 92.2278 180.851 92.369C182.021 92.5132 183.029 92.9107 183.684 93.3038C184.344 93.6962 184.667 94.0507 184.612 94.1301Z" fill="#FF9A6C"/>
<path d="M156.758 92.2176C156.647 92.412 155.146 91.6497 153.142 91.5114C151.14 91.3396 149.539 91.8623 149.46 91.6527C149.423 91.5624 149.785 91.3032 150.457 91.0732C151.125 90.8424 152.112 90.6728 153.2 90.7558C154.287 90.8417 155.236 91.1605 155.861 91.4918C156.49 91.8216 156.807 92.1331 156.758 92.2176Z" fill="#FF9A6C"/>
<path d="M165.45 75.9993C165.403 75.8967 165.713 75.6812 166.09 75.2604C166.467 74.8462 166.902 74.1866 167.052 73.3763C167.2 72.5646 167.028 71.7937 166.824 71.2724C166.621 70.7446 166.408 70.433 166.489 70.3537C166.553 70.2838 166.926 70.4745 167.298 71.022C167.666 71.5549 167.985 72.486 167.798 73.5132C167.607 74.5397 166.977 75.2961 166.444 75.6623C165.902 76.0423 165.485 76.0874 165.45 75.9993Z" fill="#FF9A6C"/>
<path d="M171.179 76.5652C171.1 76.6213 170.798 76.3788 170.48 75.8518C170.163 75.3298 169.864 74.5079 169.813 73.5637C169.764 72.6194 169.974 71.7706 170.235 71.218C170.496 70.6604 170.77 70.3881 170.855 70.4354C171.05 70.5388 170.462 71.8419 170.57 73.5244C170.64 75.2075 171.363 76.4414 171.179 76.5652Z" fill="#FF9A6C"/>
<path d="M201.027 46.691C201.174 47.5501 201.207 48.4266 201.132 49.2944C201.073 49.9627 200.992 50.7657 200.516 51.2833C200.052 51.7885 199.303 51.9479 198.643 51.9639C197.797 51.985 196.972 51.7732 196.159 51.5672C195.591 51.423 195.348 52.301 195.917 52.4444C197.556 52.8594 199.836 53.3515 201.16 51.9268C201.769 51.2709 201.926 50.3798 202.02 49.5215C202.132 48.495 202.079 47.4656 201.905 46.4493C201.806 45.8728 200.928 46.1174 201.027 46.691Z" fill="#455A64"/>
<path d="M203.973 46.4484C203.799 47.4647 203.747 48.4941 203.858 49.5206C203.952 50.3789 204.109 51.27 204.718 51.9259C206.042 53.3506 208.322 52.8585 209.961 52.4435C210.528 52.3001 210.288 51.4221 209.72 51.5663C208.906 51.7723 208.082 51.9841 207.235 51.963C206.575 51.947 205.828 51.7869 205.362 51.2824C204.886 50.7662 204.805 49.961 204.747 49.2935C204.671 48.425 204.704 47.5492 204.851 46.6901C204.949 46.1179 204.072 45.8719 203.973 46.4484Z" fill="#455A64"/>
<path d="M205.034 60.6034C204.887 59.7444 204.854 58.8679 204.929 58.0001C204.987 57.3318 205.069 56.5288 205.544 56.0112C206.009 55.506 206.758 55.3465 207.417 55.3305C208.263 55.3094 209.088 55.5213 209.901 55.7273C210.469 55.8707 210.712 54.9935 210.143 54.85C208.504 54.4351 206.224 53.943 204.9 55.3677C204.291 56.0236 204.134 56.9147 204.04 57.773C203.928 58.7994 203.981 59.8288 204.155 60.8451C204.256 61.4217 205.132 61.1771 205.034 60.6034Z" fill="#455A64"/>
<path d="M202.088 60.8461C202.262 59.8298 202.314 58.8004 202.203 57.7739C202.11 56.9156 201.953 56.0238 201.343 55.3686C200.019 53.9439 197.739 54.4361 196.1 54.851C195.533 54.9944 195.773 55.8724 196.342 55.7283C197.156 55.5222 197.98 55.3104 198.826 55.3315C199.487 55.3475 200.234 55.5077 200.7 56.0122C201.176 56.5283 201.256 57.3342 201.315 58.0011C201.39 58.8696 201.357 59.7454 201.21 60.6044C201.112 61.1766 201.989 61.4227 202.088 60.8461Z" fill="#455A64"/>
<path d="M170.069 120.433C169.996 120.524 169.555 120.253 168.818 119.931C168.082 119.606 167.024 119.269 165.813 119.172C164.602 119.081 163.504 119.25 162.727 119.458C161.949 119.661 161.471 119.861 161.413 119.76C161.364 119.682 161.758 119.307 162.55 118.951C163.337 118.595 164.541 118.314 165.872 118.415C167.203 118.521 168.35 118.984 169.071 119.458C169.799 119.933 170.13 120.364 170.069 120.433Z" fill="#FF9A6C"/>
<path d="M242.098 158.859C242.098 158.859 253.267 162.537 261.451 179.375C267.783 192.403 281.015 220.303 281.015 220.303L241.817 234.658L237.839 218.279L242.098 158.859Z" fill="#455A64"/>
<path d="M242.098 158.859L203.032 149.306C183.054 159.958 172.446 160.185 158.584 146.152L116.027 156.043L116.875 221.197L117.624 275.731L108.426 346.981H244.855L240.862 233.141L242.098 158.859Z" fill="#455A64"/>
<path d="M244.856 346.98C244.843 346.981 244.821 346.837 244.793 346.556C244.768 346.259 244.732 345.844 244.685 345.305C244.607 344.19 244.492 342.57 244.346 340.491C244.083 336.294 243.705 330.245 243.239 322.776C242.798 315.291 242.275 306.385 241.693 296.497C241.551 294.024 241.406 291.49 241.257 288.901C241.144 286.297 241.141 283.659 241.077 280.961C240.984 275.572 240.888 269.992 240.79 264.276C240.415 241.407 240.163 220.704 240.075 205.718C240.038 198.225 240.027 192.161 240.074 187.97C240.087 185.875 240.124 184.248 240.159 183.144C240.179 182.603 240.194 182.187 240.205 181.89C240.22 181.608 240.234 181.463 240.247 181.463C240.279 183.549 240.831 218.679 241.548 264.265C241.641 269.979 241.732 275.56 241.82 280.949C241.878 283.64 241.876 286.299 241.981 288.875C242.121 291.463 242.257 293.998 242.391 296.47C242.912 306.358 243.38 315.265 243.775 322.751C244.14 330.224 244.436 336.276 244.641 340.476C244.726 342.559 244.792 344.181 244.838 345.298C244.852 345.839 244.863 346.256 244.87 346.553C244.873 346.834 244.869 346.98 244.856 346.98Z" fill="#263238"/>
<path d="M116.276 155.979C116.276 155.979 107.84 158.035 101.241 168.254C94.6428 178.473 78.3975 207.363 78.3975 207.363L117.527 228.761L116.276 155.979Z" fill="#455A64"/>
<path d="M108.427 346.98C108.416 346.978 108.42 346.873 108.439 346.67C108.464 346.453 108.497 346.154 108.541 345.767C108.647 344.96 108.8 343.79 108.997 342.28C109.424 339.231 110.044 334.814 110.818 329.286C112.432 318.205 114.693 302.671 117.295 284.796L117.292 284.857C117.167 278.441 117.034 271.606 116.898 264.566C116.508 241.621 116.156 220.852 115.901 205.802C115.81 198.293 115.737 192.212 115.686 187.993C115.677 185.901 115.67 184.272 115.665 183.15C115.671 182.606 115.676 182.188 115.679 181.89C115.686 181.607 115.697 181.461 115.71 181.461C115.723 181.461 115.738 181.606 115.756 181.889C115.771 182.187 115.791 182.605 115.817 183.148C115.855 184.269 115.91 185.897 115.98 187.987C116.088 192.205 116.244 198.285 116.436 205.792C116.749 220.841 117.179 241.608 117.655 264.553C117.784 271.592 117.908 278.428 118.026 284.843L118.027 284.874L118.023 284.904C115.315 302.762 112.961 318.283 111.283 329.355C110.416 334.869 109.725 339.275 109.247 342.318C108.998 343.819 108.804 344.982 108.67 345.786C108.599 346.169 108.544 346.465 108.505 346.68C108.464 346.88 108.438 346.982 108.427 346.98Z" fill="#263238"/>
<path d="M186.303 205.941C186.332 205.985 185.66 206.49 184.421 207.365C183.182 208.241 181.369 209.48 179.113 210.985C174.601 213.997 168.297 218.054 161.225 222.357C154.15 226.66 147.648 230.392 142.898 233.014C140.524 234.325 138.591 235.366 137.243 236.062C135.897 236.761 135.139 237.125 135.114 237.079C135.088 237.034 135.797 236.582 137.099 235.805C138.438 235.017 140.321 233.909 142.633 232.548C147.311 229.81 153.762 226.007 160.831 221.71C167.895 217.411 174.237 213.43 178.82 210.536C181.092 209.108 182.941 207.946 184.257 207.119C185.547 206.319 186.273 205.899 186.303 205.941Z" fill="#263238"/>
<path d="M179.707 326.963C153.464 326.963 132.114 305.613 132.114 279.37C132.114 253.127 153.464 231.777 179.707 231.777C205.949 231.777 227.3 253.127 227.3 279.37C227.3 305.613 205.949 326.963 179.707 326.963ZM179.707 232.505C153.866 232.505 132.842 253.529 132.842 279.37C132.842 305.211 153.865 326.235 179.707 326.235C205.549 326.235 226.572 305.211 226.572 279.37C226.572 253.529 205.548 232.505 179.707 232.505Z" fill="#FF725E"/>
<path d="M179.706 321.923C203.208 321.923 222.259 302.872 222.259 279.37C222.259 255.869 203.208 236.817 179.706 236.817C156.205 236.817 137.153 255.869 137.153 279.37C137.153 302.872 156.205 321.923 179.706 321.923Z" fill="#FF725E"/>
<g opacity="0.4">
<path d="M179.706 321.923C203.208 321.923 222.259 302.872 222.259 279.37C222.259 255.869 203.208 236.817 179.706 236.817C156.205 236.817 137.153 255.869 137.153 279.37C137.153 302.872 156.205 321.923 179.706 321.923Z" fill="white"/>
</g>
<path d="M205.475 305.14C219.708 290.907 219.708 267.831 205.475 253.598C191.242 239.365 168.166 239.365 153.933 253.598C139.7 267.831 139.7 290.907 153.933 305.14C168.166 319.373 191.242 319.373 205.475 305.14Z" fill="#FF725E"/>
<g opacity="0.3">
<path d="M205.475 305.14C219.708 290.907 219.708 267.831 205.475 253.598C191.242 239.365 168.166 239.365 153.933 253.598C139.7 267.831 139.7 290.907 153.933 305.14C168.166 319.373 191.242 319.373 205.475 305.14Z" fill="white"/>
</g>
<path d="M200.571 300.236C212.096 288.712 212.096 270.027 200.571 258.502C189.047 246.977 170.362 246.977 158.837 258.502C147.312 270.027 147.312 288.712 158.837 300.236C170.362 311.761 189.047 311.761 200.571 300.236Z" fill="#FF725E"/>
<path d="M200.571 300.236C212.096 288.712 212.096 270.027 200.571 258.502C189.047 246.977 170.362 246.977 158.837 258.502C147.312 270.027 147.312 288.712 158.837 300.236C170.362 311.761 189.047 311.761 200.571 300.236Z" fill="#FF725E"/>
<path d="M189.007 223.024C189.007 223.024 191.679 204.51 191.352 203.705C191.023 202.9 199.728 221.571 199.733 222.352C199.738 223.132 216.541 196.969 216.541 196.969L214.437 226.52L229.47 222.752L220.381 232.669L235.136 234.761C235.136 234.761 220.813 242.509 219.929 243.026L227.465 237.011L215.548 234.804L221.761 227.233L211.793 230.733L212.071 210.52L199.69 225.882L192.916 214.886L189.007 223.024Z" fill="#FF725E"/>
<path d="M115.492 309.42L99.8916 318.11L120.101 320.227L113.841 337.017L130.703 324.615C130.703 324.615 134.415 336.453 134.574 336.204C134.733 335.956 143.26 326.794 143.26 326.794L135.882 331.93L131.147 322.314L120.468 327.466L123.6 318.425L108.863 316.575L115.492 309.42Z" fill="#FF725E"/>
<path d="M210.588 326.746L222.356 332.509L222.006 322.523L249.988 325.967L233.256 302.618L242.751 300.42L228.05 301.082L239.878 320.443L218.589 318.58L218.764 327.253L210.588 326.746Z" fill="#FF725E"/>
<path d="M203.888 265.539C203.888 265.539 196.616 266.482 192.711 262.846C188.806 259.209 183.689 253.703 179.918 252.82C176.147 251.937 165.644 251.803 164.97 251.937C164.449 252.041 159.71 254.971 157.596 256.289C157.005 256.656 156.871 257.451 157.299 257.999C158.209 259.164 159.977 260.822 162.546 260.556C166.452 260.152 168.076 258.629 168.076 258.629L172.598 259.584C172.598 259.584 171.166 262.037 168.607 262.98C166.048 263.922 156.756 265.893 154.063 265.649C151.369 265.404 137.768 265.404 136.017 267.963C134.266 270.522 135.074 272.002 138.172 272.541C141.269 273.08 156.891 273.08 157.698 273.349C158.506 273.619 136.152 274.561 131.438 276.178C126.725 277.794 129.552 280.352 130.764 281.564C131.977 282.776 158.102 280.891 158.102 280.891C158.102 280.891 132.649 286.277 131.842 287.893C131.034 289.509 131.573 292.202 134.805 292.202C138.037 292.202 161.2 288.566 161.2 288.566C161.2 288.566 139.653 295.165 138.98 296.511C138.307 297.858 139.115 299.744 140.192 300.148C141.27 300.552 168.607 296.243 168.607 296.243C168.607 296.243 189.345 294.088 193.116 291.26C196.887 288.432 204.967 289.24 204.967 289.24L203.888 265.539Z" fill="#FFBF9D"/>
<path d="M203.888 265.539C203.888 265.539 251.834 262.935 256.215 259.698L245.558 233.287L277.716 221.511C277.716 221.511 287.638 250.937 288.4 262.554C289.162 274.172 288.335 282.507 283.449 286.551C277.925 291.122 272.129 290.795 263.923 292.373C254.549 294.174 244.948 294.46 235.481 293.24L203.888 289.169V266.363" fill="#FFBF9D"/>
<path d="M276.256 264.61C276.169 264.711 275.165 263.854 273.348 262.805C272.892 262.545 272.393 262.264 271.83 262.012C271.283 261.728 270.667 261.498 270.028 261.237C268.73 260.763 267.268 260.341 265.697 260.07C264.122 259.818 262.601 259.743 261.22 259.771C260.531 259.812 259.873 259.83 259.263 259.921C258.65 259.977 258.085 260.082 257.57 260.18C255.511 260.584 254.284 261.07 254.235 260.947C254.201 260.878 255.366 260.209 257.452 259.657C257.973 259.522 258.548 259.384 259.177 259.298C259.801 259.177 260.478 259.133 261.189 259.072C262.614 259.004 264.191 259.06 265.821 259.32C267.446 259.601 268.956 260.059 270.282 260.585C270.935 260.873 271.562 261.133 272.113 261.45C272.68 261.734 273.179 262.051 273.629 262.347C275.424 263.546 276.31 264.556 276.256 264.61Z" fill="#FF9A6C"/>
<path d="M176.565 279.905C177.988 277.844 176.05 275.119 173.618 275.72C171.793 276.17 169.078 276.712 166.043 276.885C161.085 277.166 155.103 276.216 153.796 276.578C151.04 277.343 141.089 282.548 136.496 283.774C131.903 284.998 127.722 284.039 127.722 284.039L116.275 304.332C116.275 304.332 164.666 330.313 167.115 331.078C169.565 331.844 177.985 334.446 178.75 332.456C179.515 330.466 178.75 328.629 178.75 328.629L162.217 319.75C162.217 319.75 184.874 326.027 187.324 325.874C189.774 325.721 192.223 323.424 189.62 321.128C187.017 318.832 167.269 312.249 167.269 312.249C167.269 312.249 192.335 316.162 195.132 315.77C198.25 315.332 198.499 311.177 195.132 309.953C191.764 308.728 167.728 303.829 168.188 302.604C168.647 301.38 191.607 301.29 193.247 299.713C194.859 298.162 195.285 295.256 189.926 294.031C184.568 292.807 164.819 294.338 161.758 292.347C158.696 290.357 159.308 285.611 159.308 285.611C159.308 285.611 167.875 286.43 171.096 284.999C173.851 283.774 175.162 281.938 176.565 279.905Z" fill="#FFBF9D"/>
<path d="M93.3306 255.663L111.092 225.242L80.2572 208.38C80.2572 208.38 71.7578 227.305 66.2941 238.752C60.8305 250.199 55.8881 258.264 61.8715 268.41C67.8549 278.556 122.229 307.174 122.229 307.174L133.676 286.881L93.3306 255.663Z" fill="#FFBF9D"/>
<path d="M176.423 333.563C173.338 333.563 168.602 332.079 166.977 331.417C164.61 330.453 118.083 305.708 116.104 304.654L116.446 304.011C116.931 304.269 164.92 329.792 167.251 330.743C170.702 332.146 177.633 333.727 178.431 332.282C179.054 331.15 179.093 330.143 178.545 329.29C178.315 328.934 177.962 328.621 177.523 328.385L159.173 318.531L162.312 319.401C170.017 321.535 184.975 325.514 187.21 325.514C187.243 325.514 187.272 325.512 187.299 325.511C188.669 325.425 189.953 324.631 190.284 323.663C190.536 322.928 190.223 322.147 189.377 321.402C186.859 319.18 167.349 312.66 167.152 312.594L167.313 311.888C167.313 311.888 193.949 315.257 195.175 315.409C196.386 315.559 197.037 314.747 197.239 313.937C197.543 312.707 196.973 311.043 195.001 310.293C193.761 309.822 189.44 308.806 184.865 307.73C173.255 305 168.329 303.722 167.876 302.875C167.808 302.747 167.797 302.606 167.845 302.476C168.136 301.7 171.044 301.417 180.892 300.85C185.85 300.565 190.977 300.27 192.497 299.826C193.342 299.579 193.891 298.782 193.863 297.843C193.826 296.608 192.751 295.05 189.843 294.386C187.53 293.856 182.499 293.851 177.17 293.844C170.071 293.835 163.365 293.827 161.558 292.652C158.341 290.562 158.919 285.767 158.946 285.564L158.991 285.215L159.341 285.249C159.427 285.257 167.85 286.044 170.947 284.666C173.672 283.455 174.932 281.63 176.265 279.698C176.937 278.726 176.7 277.692 176.255 277.048C175.798 276.385 174.889 275.78 173.705 276.074C171.928 276.513 169.159 277.072 166.063 277.248C163.36 277.4 160.377 277.194 157.981 277.026C156.077 276.893 154.432 276.78 153.893 276.928C152.739 277.249 150.273 278.376 147.418 279.68C143.586 281.432 139.242 283.418 136.589 284.125C131.962 285.357 127.815 284.433 127.64 284.393L127.802 283.683C127.844 283.693 131.957 284.606 136.402 283.421C138.994 282.73 143.309 280.758 147.116 279.018C149.998 277.7 152.487 276.563 153.697 276.226C154.358 276.044 155.899 276.151 158.031 276.299C160.407 276.465 163.362 276.672 166.021 276.521C169.062 276.348 171.782 275.798 173.53 275.366C174.801 275.051 176.105 275.549 176.854 276.633C177.597 277.709 177.601 279.042 176.864 280.11C175.532 282.04 174.154 284.036 171.242 285.33C168.316 286.628 161.339 286.145 159.639 286.004C159.575 287.102 159.586 290.502 161.954 292.041C163.581 293.099 170.8 293.107 177.171 293.115C182.54 293.123 187.613 293.128 190.005 293.676C193.317 294.433 194.546 296.313 194.591 297.821C194.629 299.097 193.87 300.182 192.701 300.523C191.101 300.992 186.163 301.275 180.933 301.577C176.319 301.842 170.129 302.199 168.73 302.676C170.339 303.567 179.106 305.627 185.032 307.021C189.83 308.149 193.974 309.123 195.259 309.612C197.54 310.48 198.337 312.533 197.945 314.112C197.603 315.489 196.447 316.299 195.084 316.131C194.139 316.015 178.077 313.983 170.779 313.06C176.573 315.062 187.878 319.108 189.859 320.855C191.3 322.126 191.175 323.308 190.972 323.899C190.543 325.15 189.017 326.132 187.344 326.237C185.422 326.375 171.542 322.671 165.219 320.951L177.866 327.743C178.414 328.037 178.859 328.436 179.155 328.896C179.639 329.649 180.016 330.909 179.066 332.633C178.696 333.307 177.702 333.563 176.423 333.563Z" fill="#FF9A6C"/>
<path d="M93.7109 255.557C93.6942 255.794 89.771 255.422 85.0565 256.293C80.3325 257.122 76.7871 258.84 76.6888 258.624C76.584 258.473 80.0667 256.403 84.9218 255.547C89.7695 254.654 93.7561 255.379 93.7109 255.557Z" fill="#FF9A6C"/>
</svg>
