<svg width="32" height="26" viewBox="0 0 32 26" fill="none" xmlns="http://www.w3.org/2000/svg">
<path opacity="0.2" d="M28.37 0.539978C28.7836 0.542179 29.1919 0.632528 29.5678 0.804962C29.9437 0.977397 30.2785 1.22796 30.55 1.53998C30.8452 1.82932 31.0795 2.17478 31.2393 2.55603C31.399 2.93728 31.4808 3.34663 31.48 3.75998V22.63C31.4808 23.0433 31.399 23.4527 31.2393 23.8339C31.0795 24.2152 30.8452 24.5606 30.55 24.85C30.2785 25.162 29.9437 25.4126 29.5678 25.585C29.1919 25.7575 28.7836 25.8478 28.37 25.85H3.09998C2.68663 25.8465 2.27868 25.7556 1.90296 25.5833C1.52724 25.4109 1.19225 25.161 0.919985 24.85C0.627946 24.5588 0.396351 24.2128 0.238466 23.8318C0.080582 23.4508 -0.000461066 23.0424 1.97302e-06 22.63V3.72C-0.000461066 3.3076 0.080582 2.89917 0.238466 2.51819C0.396351 2.13721 0.627946 1.79118 0.919985 1.5C1.19225 1.18897 1.52724 0.939073 1.90296 0.766724C2.27868 0.594375 2.68663 0.503475 3.09998 0.5L28.37 0.539978ZM28.37 6.88998V3.72L15.74 11.62L3.09998 3.72V6.88998L15.74 14.73L28.37 6.88998Z" fill="black"/>
</svg>
