<svg width="31" height="28" viewBox="0 0 31 28" fill="none" xmlns="http://www.w3.org/2000/svg">
<path d="M15.6898 27.6057C12.7686 27.6057 9.91305 26.7987 7.48414 25.2867C5.05522 23.7747 3.1621 21.6256 2.0442 19.1113C0.926289 16.5969 0.633838 13.8302 1.20374 11.1609C1.77364 8.49169 3.18036 6.03981 5.24598 4.1154C7.3116 2.19098 9.94326 0.880432 12.8084 0.349486C15.6735 -0.18146 18.6433 0.091057 21.3422 1.13254C24.041 2.17403 26.3478 3.93768 27.9707 6.20056C29.5937 8.46343 30.4598 11.1239 30.4598 13.8454C30.4572 17.4941 28.9002 20.9927 26.1309 23.5727C23.3615 26.1528 19.6063 27.6033 15.6898 27.6057ZM15.6898 1.51978C13.0831 1.51978 10.5349 2.23995 8.36744 3.58919C6.2 4.93843 4.51075 6.85618 3.51319 9.09988C2.51563 11.3436 2.25464 13.8125 2.76319 16.1944C3.27174 18.5763 4.52699 20.7642 6.37024 22.4814C8.2135 24.1987 10.5619 25.3681 13.1185 25.8419C15.6752 26.3157 18.3253 26.0725 20.7336 25.1432C23.142 24.2138 25.2005 22.64 26.6487 20.6207C28.0969 18.6014 28.8699 16.2274 28.8699 13.7989C28.8514 10.5519 27.4552 7.44342 24.9861 5.15178C22.5169 2.86014 19.1751 1.57128 15.6898 1.56641V1.51978Z" fill="url(#paint0_linear_122_7)"/>
<path d="M24.1799 8.82392C23.6238 9.04802 23.0389 9.20458 22.4398 9.28974C22.7198 9.28974 23.1299 8.77733 23.2999 8.58168C23.5509 8.30558 23.7473 7.99013 23.8799 7.65004C23.8799 7.65004 23.8799 7.58486 23.8799 7.56623C23.8659 7.55967 23.8505 7.55622 23.8348 7.55622C23.8192 7.55622 23.8039 7.55967 23.7899 7.56623C23.14 7.89294 22.4476 8.14029 21.7299 8.3022C21.7068 8.31362 21.6811 8.3196 21.6549 8.3196C21.6288 8.3196 21.6029 8.31362 21.5798 8.3022C21.5251 8.23877 21.4649 8.17957 21.3999 8.12519C21.1029 7.88519 20.7649 7.69313 20.3999 7.5569C19.9152 7.37307 19.3922 7.29346 18.8699 7.32399C18.3606 7.3557 17.864 7.48551 17.4113 7.7052C16.9586 7.92489 16.5597 8.22969 16.2399 8.60033C15.9034 8.98353 15.6641 9.43254 15.5399 9.91392C15.445 10.3693 15.445 10.8374 15.5399 11.2928C15.5399 11.3673 15.5399 11.3766 15.4699 11.3673C12.7389 11.1096 10.21 9.91002 8.37989 8.00407C8.28989 7.92022 8.24994 7.92022 8.17994 8.00407C7.81008 8.63717 7.66963 9.36466 7.77955 10.0781C7.88947 10.7916 8.24386 11.4529 8.78992 11.9635L9.22986 12.3176C8.75248 12.2856 8.28673 12.1652 7.85987 11.9635C7.77987 11.917 7.73986 11.9635 7.72986 12.0288C7.71515 12.1557 7.71515 12.2838 7.72986 12.4107C7.81346 13.0054 8.06487 13.5687 8.45838 14.0434C8.85189 14.518 9.3734 14.8869 9.96985 15.1125C10.1182 15.17 10.2724 15.2137 10.4299 15.2429C9.98625 15.3109 9.53354 15.3109 9.08985 15.2429C8.98985 15.2429 8.94987 15.2429 8.98987 15.3547C9.2196 15.9158 9.59909 16.413 10.0925 16.7994C10.586 17.1857 11.1771 17.4485 11.8099 17.5627C11.9399 17.5627 12.0598 17.5627 12.1898 17.6093C11.6367 18.0605 10.9746 18.3802 10.2599 18.5409C9.32517 18.853 8.32918 18.9738 7.33985 18.895C7.17985 18.895 7.14986 18.895 7.09986 18.895C7.04986 18.895 7.09986 18.9508 7.09986 18.9881C7.29986 19.1092 7.49984 19.221 7.70984 19.3235C8.34352 19.6382 9.01482 19.8821 9.70984 20.0502C11.4556 20.5417 13.3094 20.5973 15.0855 20.2114C16.8615 19.8255 18.4975 19.0117 19.8298 17.8515C20.7881 16.8836 21.5295 15.7473 22.0103 14.5091C22.4911 13.2708 22.7017 11.9557 22.6299 10.6406C22.6299 10.5381 22.7598 10.4729 22.8398 10.417C23.3654 10.0393 23.8272 9.59019 24.2098 9.0848C24.2684 9.01276 24.2969 8.92335 24.2899 8.83324C24.2899 8.83324 24.2499 8.79597 24.1799 8.82392Z" fill="url(#paint1_linear_122_7)"/>
<defs>
<linearGradient id="paint0_linear_122_7" x1="82.1197" y1="6.6811" x2="304.312" y2="-20.9348" gradientUnits="userSpaceOnUse">
<stop stop-color="#003350"/>
<stop offset="0.55" stop-color="#00866F"/>
<stop offset="1" stop-color="#4BDF23"/>
</linearGradient>
<linearGradient id="paint1_linear_122_7" x1="82.1001" y1="6.46689" x2="304.284" y2="-21.1494" gradientUnits="userSpaceOnUse">
<stop stop-color="#003350"/>
<stop offset="0.55" stop-color="#00866F"/>
<stop offset="1" stop-color="#4BDF23"/>
</linearGradient>
</defs>
</svg>
