<svg width="30" height="28" viewBox="0 0 30 28" fill="none" xmlns="http://www.w3.org/2000/svg">
<path d="M15.0998 27.6057C12.1782 27.6076 9.32158 26.8021 6.89135 25.2912C4.46112 23.7803 2.56645 21.632 1.44701 19.1177C0.327574 16.6035 0.033636 13.8365 0.60241 11.1666C1.17118 8.49676 2.5771 6.04405 4.64233 4.1187C6.70755 2.19335 9.33933 0.881874 12.2047 0.350173C15.0701 -0.181528 18.0403 0.0904262 20.7397 1.13164C23.4392 2.17285 25.7466 3.93652 27.37 6.1996C28.9934 8.46267 29.8599 11.1235 29.8599 13.8454C29.8546 17.4918 28.2981 20.9875 25.5315 23.5667C22.7649 26.1459 19.0137 27.5983 15.0998 27.6057ZM15.0998 1.51978C12.4927 1.51794 9.94353 2.23653 7.77477 3.58464C5.60602 4.93276 3.91511 6.84987 2.91601 9.0934C1.91691 11.3369 1.65443 13.8061 2.16186 16.1886C2.66928 18.5711 3.92386 20.7599 5.76672 22.4781C7.60957 24.1963 9.95794 25.3667 12.5149 25.8412C15.0718 26.3158 17.7224 26.0732 20.1313 25.1441C22.5403 24.215 24.5993 22.6411 26.048 20.6217C27.4966 18.6022 28.2699 16.2278 28.2699 13.7989C28.2514 10.5535 26.8566 7.4464 24.3896 5.15503C21.9226 2.86365 18.5834 1.57374 15.0998 1.56641V1.51978Z" fill="url(#paint0_linear_122_9)"/>
<path d="M23.9399 11.7586C23.9373 10.8213 23.5358 9.92322 22.8235 9.26131C22.1111 8.5994 21.1461 8.22766 20.14 8.22766H10.3101C9.30489 8.22766 8.34077 8.59971 7.63 9.26188C6.91924 9.92406 6.52002 10.8222 6.52002 11.7586V16.0535C6.52002 16.9899 6.91924 17.888 7.63 18.5502C8.34077 19.2124 9.30489 19.5844 10.3101 19.5844H20.14C20.6386 19.5856 21.1324 19.4952 21.5934 19.3183C22.0544 19.1414 22.4734 18.8815 22.8264 18.5535C23.1794 18.2255 23.4594 17.8359 23.6505 17.4069C23.8416 16.9779 23.9399 16.5179 23.9399 16.0535V11.7586ZM17.73 14.125L13.8101 16.128C13.6401 16.2119 13.49 16.128 13.49 15.923V11.8052C13.49 11.6189 13.6401 11.507 13.8101 11.6002L17.8101 13.7057C17.8467 13.7329 17.8746 13.7688 17.8911 13.8096C17.9076 13.8504 17.9121 13.8946 17.9039 13.9375C17.8957 13.9805 17.8752 14.0206 17.8446 14.0535C17.814 14.0865 17.7744 14.1112 17.73 14.125Z" fill="url(#paint1_linear_122_9)"/>
<defs>
<linearGradient id="paint0_linear_122_9" x1="-49.1302" y1="20.7768" x2="173.063" y2="-6.8393" gradientUnits="userSpaceOnUse">
<stop stop-color="#003350"/>
<stop offset="0.55" stop-color="#00866F"/>
<stop offset="1" stop-color="#4BDF23"/>
</linearGradient>
<linearGradient id="paint1_linear_122_9" x1="-49.1197" y1="20.8514" x2="173.072" y2="-6.76438" gradientUnits="userSpaceOnUse">
<stop stop-color="#003350"/>
<stop offset="0.55" stop-color="#00866F"/>
<stop offset="1" stop-color="#4BDF23"/>
</linearGradient>
</defs>
</svg>
